<?xml version="1.0" encoding="UTF-8" standalone="no"?>
<svg width="53px" height="53px" viewBox="0 0 53 53" version="1.1" xmlns="http://www.w3.org/2000/svg" xmlns:xlink="http://www.w3.org/1999/xlink">
    <!-- Generator: Sketch 3.6.1 (26313) - http://www.bohemiancoding.com/sketch -->
    <title>Air pressure</title>
    <desc>Created with Sketch.</desc>
    <defs></defs>
    <g id="Page-1" stroke="none" stroke-width="1" fill="none" fill-rule="evenodd">
        <g id="28-getstarted-copy" transform="translate(-433.000000, -1053.000000)">
            <g id="Air-pressure" transform="translate(433.000000, 1053.000000)">
                <circle id="Oval-3" fill="#BCC4CE" cx="26.5" cy="26.5" r="26.5"></circle>
                <g id="pressure" transform="translate(10.000000, 8.000000)" fill="#FFFFFF">
                    <g id="Capa_1">
                        <path d="M4.13187634,9.16451786 L3.61447581,8.93925454 L3.70490591,8.73468734 L4.22238441,8.95886952 L4.13187634,9.16451786 L4.13187634,9.16451786 Z M2.80840054,8.34578571 L1.91150538,7.95642074 L1.82068548,8.16183741 L2.71797043,8.55035291 L2.80840054,8.34578571 L2.80840054,8.34578571 Z M1.01484409,7.56721021 L0.497209677,7.34217857 L0.406311828,7.54774969 L0.923946237,7.77278133 L1.01484409,7.56721021 L1.01484409,7.56721021 Z M3.8113172,9.69358161 L3.91086828,9.89583208 L4.41805645,9.64902318 L4.31850538,9.44785385 L3.8113172,9.69358161 L3.8113172,9.69358161 Z M2.05268548,10.5473736 L2.15223656,10.7485429 L3.0321371,10.3219558 L2.93204032,10.1207865 L2.05268548,10.5473736 L2.05268548,10.5473736 Z M0.665908602,11.2199201 L0.765537634,11.4210122 L1.27303763,11.1742033 L1.17294086,10.9731112 L0.665908602,11.2199201 L0.665908602,11.2199201 Z M4.06343011,9.22622008 L3.49902151,9.25008239 L3.50829839,9.47426457 L4.07309677,9.44955279 L4.06343011,9.22622008 L4.06343011,9.22622008 Z M2.52042742,9.29216964 L1.54253495,9.33356187 L1.55173387,9.55689458 L2.5297043,9.51527068 L2.52042742,9.29216964 L2.52042742,9.29216964 Z M2.33146835e-15,9.3975036 L0.00927688172,9.62168578 L0.573607527,9.59805514 L0.56394086,9.37387296 L2.33146835e-15,9.3975036 L2.33146835e-15,9.3975036 Z M28.8589758,10.8252267 L28.8589758,31.6442831 C28.8589758,33.615588 27.2461237,35.213359 25.2565054,35.213359 L18.891707,35.213359 C16.901543,35.213359 15.2886129,33.6156653 15.2886129,31.6442831 L15.2886129,13.1671311 C14.630422,13.3293794 14.3216344,13.558195 14.1805323,13.7188216 C14.0072339,13.916593 14.0211102,14.0847876 14.0236048,14.1033214 L14.0384946,14.1718194 L14.0331935,14.2151422 L14.0331935,30.1458997 C14.0331935,32.5534449 12.0556586,34.5127801 9.62488172,34.5127801 C7.19394892,34.5127801 5.21656989,32.5541399 5.21656989,30.1458997 L5.21656989,14.927382 L5.10415591,14.927382 L5.10415591,9.72207738 L4.57560753,9.29726645 L5.10415591,8.65344737 L5.10415591,8.18075736 L6.62564247,8.18075736 L6.62564247,14.9277682 L6.5266371,14.9277682 L6.5266371,30.1462086 C6.5266371,31.8383477 7.91598656,33.2149483 9.62441398,33.2149483 C11.3324516,33.2149483 12.7222688,31.8383477 12.7222688,30.1462086 L12.7222688,14.2600868 C12.696621,14.0401519 12.6896828,13.4937127 13.1246828,12.9467329 C13.5536022,12.4084023 14.2830457,12.0424362 15.2880672,11.8446648 L15.2880672,10.8256128 C15.2880672,8.85531172 16.9009194,7.25738628 18.8909274,7.25738628 L20.4524059,7.25738628 L20.4524059,6.40452099 C19.3487688,5.84078352 18.5901694,4.70218828 18.5901694,3.39076504 C18.5903253,1.52147337 20.1264677,0 22.0132608,0 C23.9005995,0 25.4362742,1.52147337 25.4362742,3.39076504 C25.4362742,4.23057942 25.1239005,4.99927021 24.6103199,5.59150345 L26.8251559,5.59150345 L26.8251559,4.84420379 C26.8251559,4.5967771 27.0272204,4.39645724 27.2769167,4.39645724 C27.5263011,4.39645724 27.7286774,4.5967771 27.7286774,4.84420379 L27.7286774,6.89281031 C27.7286774,7.140237 27.5263011,7.34047964 27.2769167,7.34047964 C27.0272204,7.34047964 26.8251559,7.140237 26.8251559,6.89281031 L26.8251559,6.2632005 L23.8215511,6.2632005 C23.7792984,6.28961122 23.7374355,6.31640805 23.6944812,6.34096538 L23.6944812,7.25707738 L25.2556478,7.25707738 C27.2460457,7.25700016 28.8589758,8.85500282 28.8589758,10.8252267 L28.8589758,10.8252267 Z M23.5487016,5.5910401 C24.2529651,5.10777036 24.7161075,4.3020119 24.7161075,3.39030169 C24.7161075,1.91377287 23.5039543,0.713475407 22.0141962,0.713475407 C20.5242823,0.713475407 19.3114274,1.91338675 19.3114274,3.39030169 C19.3114274,4.3020119 19.7747258,5.10777036 20.4802366,5.5910401 L23.4892984,5.5910401 L23.4937419,5.5910401 L23.5487016,5.5910401 L23.5487016,5.5910401 Z M26.5999382,11.1060143 L26.1477876,11.1060143 L26.1477876,30.0718416 L26.5999382,30.0718416 L26.5999382,11.1060143 L26.5999382,11.1060143 Z M22.0738333,3.07777491 C22.0269032,3.07777491 21.9812204,3.08688737 21.9383441,3.10171444 L20.4528737,2.73636623 L21.6396129,3.63564333 C21.6895054,3.82839521 21.8649086,3.97010182 22.0738333,3.97010182 C22.3230618,3.97010182 22.5243468,3.77063142 22.5243468,3.52490367 C22.5243468,3.27832644 22.3230618,3.07777491 22.0738333,3.07777491 L22.0738333,3.07777491 Z" id="Shape"></path>
                    </g>
                </g>
            </g>
        </g>
    </g>
</svg>