<?xml version="1.0" encoding="UTF-8" standalone="no"?>
<svg width="53px" height="53px" viewBox="0 0 53 53" version="1.1" xmlns="http://www.w3.org/2000/svg" xmlns:xlink="http://www.w3.org/1999/xlink">
    <!-- Generator: Sketch 3.6.1 (26313) - http://www.bohemiancoding.com/sketch -->
    <title>ATM</title>
    <desc>Created with Sketch.</desc>
    <defs></defs>
    <g id="Page-1" stroke="none" stroke-width="1" fill="none" fill-rule="evenodd">
        <g id="28-getstarted-copy" transform="translate(-158.000000, -1053.000000)">
            <g id="ATM" transform="translate(158.000000, 1053.000000)">
                <circle id="Oval-3" fill="#BCC4CE" cx="26.5" cy="26.5" r="26.5"></circle>
                <g id="business" transform="translate(10.000000, 12.000000)" fill="#FFFFFF">
                    <g id="Capa_1">
                        <path d="M31.0320133,0.00971821306 L2.96798665,0.00971821306 C1.33138126,0.00971821306 0,1.34133749 0,2.97831203 L0,6.6238943 C0,8.26067011 1.33138126,9.59228938 2.96798665,9.59228938 L5.92911768,9.59228938 L5.92911768,28.2805687 C5.92911768,28.5813531 6.17383351,28.8260944 6.47458657,28.8260944 L19.9987376,28.8260944 L19.9987376,1.99696199 L21.9858738,1.99696199 L21.9858738,28.8260944 L27.5254134,28.8260944 C27.8261665,28.8260944 28.0708823,28.5813531 28.0708823,28.2805687 L28.0708823,9.59219002 L31.0320133,9.59219002 C32.6686187,9.59219002 34,8.26057074 34,6.62379493 L34,2.97831203 C34,1.34133749 32.6686187,0.00971821306 31.0320133,0.00971821306 L31.0320133,0.00971821306 Z M5.92911768,7.60484687 L2.96798665,7.60484687 C2.42718753,7.60484687 1.98713622,7.16474973 1.98713622,6.62379493 L1.98713622,2.97831203 C1.98713622,2.43725786 2.42718753,1.99706136 2.96798665,1.99706136 L5.92911768,1.99706136 L5.92911768,7.60484687 L5.92911768,7.60484687 Z M32.0128638,6.62379493 C32.0128638,7.16474973 31.5728125,7.60484687 31.0320133,7.60484687 L28.0708823,7.60484687 L28.0708823,1.99706136 L31.0320133,1.99706136 C31.5728125,1.99706136 32.0128638,2.43725786 32.0128638,2.97831203 L32.0128638,6.62379493 L32.0128638,6.62379493 Z" id="Shape"></path>
                    </g>
                </g>
            </g>
        </g>
    </g>
</svg>