<?xml version="1.0" encoding="UTF-8" standalone="no"?>
<svg width="53px" height="53px" viewBox="0 0 53 53" version="1.1" xmlns="http://www.w3.org/2000/svg" xmlns:xlink="http://www.w3.org/1999/xlink">
    <!-- Generator: Sketch 3.6.1 (26313) - http://www.bohemiancoding.com/sketch -->
    <title>bike performance</title>
    <desc>Created with Sketch.</desc>
    <defs></defs>
    <g id="Page-1" stroke="none" stroke-width="1" fill="none" fill-rule="evenodd">
        <g id="28-getstarted-copy" transform="translate(-867.000000, -1053.000000)">
            <g id="bike-performance" transform="translate(867.000000, 1053.000000)">
                <circle id="Oval-3" fill="#BCC4CE" cx="26.5" cy="26.5" r="26.5"></circle>
                <g id="icon" transform="translate(8.000000, 17.000000)" fill="#FFFFFF">
                    <g id="Capa_1">
                        <path d="M38.2806667,3.757 C37.934,1.15266667 29.9368333,1.39316667 30.2986667,2.77766667 C30.6605,4.16216667 27.586,5.22816667 27.586,5.22816667 L23.166,6.08833333 C20.4771667,3.952 19.2616667,3.2825 18.33,2.6845 C14.7095,0.364 10.9135,5.14583333 10.9135,5.14583333 C10.9135,5.14583333 7.39916667,4.71683333 11.5613333,0.554666667 C-2.92283333,7.99066667 3.9715,9.23 3.9715,9.23 L8.04266667,9.23 L7.39266667,10.2808333 C6.74916667,9.997 6.03416667,9.83666667 5.28016667,9.83666667 C2.36383333,9.83666667 0,12.2026667 0,15.1168333 C0,18.0331667 2.36383333,20.3991667 5.28016667,20.3991667 C8.1965,20.3991667 10.5603333,18.0331667 10.5603333,15.1168333 C10.5603333,13.481 9.815,12.0206667 8.645,11.0521667 L9.204,10.1465 L14.8351667,16.4211667 L14.8351667,16.4211667 L15.3248333,16.4211667 L25.5363333,16.4211667 L26.8016667,16.4211667 C27.3823333,18.7048333 29.4493333,20.3991667 31.9128333,20.3991667 C34.8291667,20.3991667 37.1908333,18.0331667 37.1908333,15.1168333 C37.1908333,12.2026667 34.8291667,9.83666667 31.9128333,9.83666667 C29.2478333,9.83666667 27.0508333,11.8126667 26.689,14.378 L26.6391667,14.378 C26.6391667,14.378 26.1776667,12.6815 25.3565,10.5798333 C28.0995,9.66333333 38.5818333,6.02116667 38.2806667,3.757 L38.2806667,3.757 Z M5.28233333,18.4361667 C3.4515,18.4361667 1.96516667,16.9476667 1.96516667,15.1168333 C1.96516667,13.286 3.45366667,11.7996667 5.28233333,11.7996667 C5.65716667,11.7996667 6.01466667,11.8625 6.3505,11.9795 L5.2065,13.8341667 C5.19783333,13.8471667 5.18266667,13.8558333 5.174,13.871 L4.69516667,14.6575 C4.693,14.6661667 4.69516667,14.6705 4.69083333,14.6748333 L4.65616667,14.7311667 L4.667,14.7398333 C4.51533333,15.0735 4.6215,15.4765 4.94433333,15.6736667 C5.265,15.8686667 5.66583333,15.7798333 5.89333333,15.4938333 L5.9085,15.5046667 L5.95183333,15.4353333 C5.954,15.431 5.95833333,15.4288333 5.9605,15.4266667 L6.175,15.0756667 L7.605,12.7508333 C8.22033333,13.3531667 8.60166667,14.1916667 8.60166667,15.119 C8.5995,16.9476667 7.111,18.4361667 5.28233333,18.4361667 L5.28233333,18.4361667 Z M31.915,11.7975 C33.7436667,11.7975 35.2321667,13.286 35.2321667,15.1146667 C35.2321667,16.9476667 33.7415,18.434 31.915,18.434 C30.5456667,18.434 29.367,17.5998333 28.8621667,16.4168333 L32.89,16.4168333 L32.89,16.3995 L32.9831667,16.3995 C33.5443333,16.4081667 34.0058333,15.9661667 34.0123333,15.4028333 C34.0231667,14.8438333 33.5746667,14.3845 33.0156667,14.3736667 L31.7525,14.3585 C31.6875,14.3563333 31.6246667,14.3628333 31.5618333,14.3736667 L28.6823333,14.3736667 C29.016,12.9025 30.3355,11.7975 31.915,11.7975 L31.915,11.7975 Z" id="Shape"></path>
                    </g>
                </g>
            </g>
        </g>
    </g>
</svg>