<?xml version="1.0" encoding="UTF-8" standalone="no"?>
<svg width="53px" height="53px" viewBox="0 0 53 53" version="1.1" xmlns="http://www.w3.org/2000/svg" xmlns:xlink="http://www.w3.org/1999/xlink">
    <!-- Generator: Sketch 3.6.1 (26313) - http://www.bohemiancoding.com/sketch -->
    <title>card payment</title>
    <desc>Created with Sketch.</desc>
    <defs></defs>
    <g id="Page-1" stroke="none" stroke-width="1" fill="none" fill-rule="evenodd">
        <g id="28-getstarted-copy" transform="translate(-294.000000, -1053.000000)">
            <g id="card-payment" transform="translate(294.000000, 1053.000000)">
                <circle id="Oval-3" fill="#BCC4CE" cx="26.5" cy="26.5" r="26.5"></circle>
                <g id="money" transform="translate(11.000000, 11.000000)" fill="#FFFFFF">
                    <g id="Capa_1">
                        <g id="Layer_1_32_">
                            <g id="Group">
                                <path d="M3.22365217,9.15205527 L28.626087,2.66915371 L28.4132174,1.68262522 C28.1293913,0.484753022 26.8521739,-0.21991019 25.645913,0.0618998273 L4.64278261,5.41734024 C3.43652174,5.69920553 2.72695652,6.96759931 3.01078261,8.16552677 L3.22365217,9.15205527 L3.22365217,9.15205527 Z" id="Shape"></path>
                                <path d="M30.258087,17.8194128 C31.4643478,17.5375475 32.173913,16.2691537 31.8900313,15.0712263 L29.8322922,7.03806563 L12.0931617,11.5479102 L24.0848139,11.5479102 C26.4973913,11.5479102 28.4841739,13.5209672 28.4841739,15.9168221 L28.4841739,18.3127323 L30.258087,17.8194128 L30.258087,17.8194128 Z" id="Shape"></path>
                                <path d="M26.2845217,15.9168221 C26.2845217,14.6484283 25.2911304,13.6618998 24.013913,13.6618998 L2.30121739,13.6618998 C1.024,13.6618998 0.0306086957,14.6484283 0.0306086957,15.9168221 L0.0306086957,29.7282211 C0.0306086957,30.9966149 1.024,31.9831434 2.30121739,31.9831434 L24.013913,31.9831434 C25.2911304,31.9831434 26.2845217,30.9966149 26.2845217,29.7282211 L26.2845217,15.9168221 L26.2845217,15.9168221 Z M2.51408696,17.5375475 C2.51408696,16.9738169 3.01078261,16.4805527 3.57843478,16.4805527 L15.6410435,16.4805527 C16.2086957,16.4805527 16.7053913,16.9738169 16.7053913,17.5375475 C16.7053913,18.1012781 16.2086957,18.5945423 15.6410435,18.5945423 L3.57843478,18.5945423 C3.01078261,18.5945423 2.51408696,18.1013333 2.51408696,17.5375475 L2.51408696,17.5375475 Z M16.2086957,29.9396753 C14.221913,29.9396753 12.589913,28.3189499 12.589913,26.3458929 C12.589913,24.3728359 14.221913,22.8225769 16.2086957,22.8225769 C18.1954783,22.8225769 19.8274226,24.4433022 19.8274226,26.4163592 C19.8274226,28.389361 18.1954783,29.9396753 16.2086957,29.9396753 L16.2086957,29.9396753 Z M24.013913,26.4163592 C24.013913,28.389361 22.381913,30.0100864 20.3951304,30.0100864 C20.1822609,30.0100864 19.8984348,30.0100864 19.6855652,29.9396753 C20.608,29.0236131 21.1046957,27.8256857 21.1046957,26.4163592 C21.1046957,25.0070328 20.5370435,23.8090501 19.6855652,22.8930432 C19.8984348,22.8225769 20.1113043,22.8225769 20.3951304,22.8225769 C22.4528696,22.8225216 24.013913,24.4433022 24.013913,26.4163592 L24.013913,26.4163592 Z" id="Shape"></path>
                            </g>
                        </g>
                    </g>
                </g>
            </g>
        </g>
    </g>
</svg>