<?xml version="1.0" encoding="UTF-8" standalone="no"?>
<svg width="53px" height="53px" viewBox="0 0 53 53" version="1.1" xmlns="http://www.w3.org/2000/svg" xmlns:xlink="http://www.w3.org/1999/xlink">
    <!-- Generator: Sketch 3.6.1 (26313) - http://www.bohemiancoding.com/sketch -->
    <title>eatery</title>
    <desc>Created with Sketch.</desc>
    <defs></defs>
    <g id="Page-1" stroke="none" stroke-width="1" fill="none" fill-rule="evenodd">
        <g id="28-getstarted-copy" transform="translate(-363.000000, -1053.000000)">
            <g id="eatery" transform="translate(363.000000, 1053.000000)">
                <circle id="Oval-3" fill="#BCC4CE" cx="26.5" cy="26.5" r="26.5"></circle>
                <g id="eating" transform="translate(9.000000, 14.000000)" fill="#FFFFFF">
                    <g id="Capa_1">
                        <g id="Group">
                            <path d="M17.9627165,0.0318181818 C11.0105774,0.0318181818 5.37612861,5.60881818 5.37612861,12.4875455 C5.37612861,19.3662727 11.0105774,24.9432727 17.9627165,24.9432727 C24.9125591,24.9432727 30.5493045,19.3673636 30.5493045,12.4875455 C30.5482021,5.60872727 24.9125591,0.0318181818 17.9627165,0.0318181818 L17.9627165,0.0318181818 Z M17.8239108,20.4679091 C13.4595669,20.4679091 9.92300525,16.9685455 9.92300525,12.6496364 C9.92300525,8.33063636 13.4595669,4.83081818 17.8239108,4.83081818 C22.186601,4.83081818 25.7248163,8.33063636 25.7248163,12.6496364 C25.7248163,16.9685455 22.186601,20.4679091 17.8239108,20.4679091 L17.8239108,20.4679091 Z" id="Shape"></path>
                            <path d="M4.03400262,2.24454545 L3.50624672,2.24454545 L3.66370079,7.71745455 L3.02965879,7.71745455 L3.02965879,2.24454545 L2.56538058,2.24454545 L2.56538058,7.75127273 L2.0408399,7.75127273 L2.0408399,2.24454545 L1.52796588,2.24563636 L1.52796588,7.75236364 L0.905131234,7.75236364 L1.08334646,2.24454545 L0.599868766,2.24454545 L0.0155249344,6.90309091 C0.0155249344,6.90309091 9.1863516e-05,7.07845455 9.1863516e-05,7.14554545 C9.1863516e-05,7.86272727 0.337874016,8.505 0.86351706,8.92218182 C2.59688976,10.8593636 1.41322835,12.8366364 1.41433071,13.3066364 C1.41534121,13.8252727 1.41534121,21.8263636 1.41534121,21.8263636 C1.41644357,21.8326364 1.41322835,21.8368182 1.41433071,21.8442727 C1.41534121,22.3343636 1.81559055,22.7304545 2.31036745,22.7304545 C2.80560367,22.7304545 3.20796588,22.3321818 3.20796588,21.8442727 C3.20686352,21.8368182 3.20585302,21.8326364 3.20475066,21.8263636 L3.20686352,21.8263636 C3.20686352,21.8263636 3.20686352,13.9256364 3.20796588,13.3245455 C3.20796588,12.7774545 2.20784777,10.506 3.87875328,8.81545455 C3.87985564,8.81336364 3.88353018,8.80809091 3.88674541,8.80545455 C4.2944357,8.42263636 4.56396325,7.895 4.60346457,7.30245455 C4.60667979,7.26127273 4.60557743,7.15509091 4.60557743,7.15509091 L4.03400262,2.24454545 L4.03400262,2.24454545 Z" id="Shape"></path>
                            <path d="M34.9732677,15.4550909 C34.9742782,14.9269091 34.9571916,2.24563636 34.9571916,2.24563636 L34.6646982,2.24454545 C34.6646982,2.24454545 32.2802887,3.576 32.2802887,13.4566364 C34.1118635,13.9540909 33.3412205,15.9356364 33.2025066,16.188 C33.2025066,16.6908182 33.2420079,21.8579091 33.2420079,21.8579091 L33.2483465,21.8547273 C33.2462336,21.8621818 33.2441207,21.8664545 33.2441207,21.8727273 C33.2420079,22.347 33.631601,22.7325455 34.1086483,22.7282727 C34.5856955,22.7303636 34.9752887,22.3448182 34.9731759,21.8727273 C34.9751969,21.8664545 34.9751969,21.8621818 34.9731759,21.8579091 L34.9741864,21.8536364 C34.9742782,21.8537273 34.9742782,16.035 34.9732677,15.4550909 L34.9732677,15.4550909 Z" id="Shape"></path>
                        </g>
                    </g>
                </g>
            </g>
        </g>
    </g>
</svg>