<?xml version="1.0" encoding="UTF-8" standalone="no"?>
<svg width="53px" height="53px" viewBox="0 0 53 53" version="1.1" xmlns="http://www.w3.org/2000/svg" xmlns:xlink="http://www.w3.org/1999/xlink">
    <!-- Generator: Sketch 3.6.1 (26313) - http://www.bohemiancoding.com/sketch -->
    <title>emission test</title>
    <desc>Created with Sketch.</desc>
    <defs></defs>
    <g id="Page-1" stroke="none" stroke-width="1" fill="none" fill-rule="evenodd">
        <g id="28-getstarted-copy" transform="translate(-224.000000, -1153.000000)">
            <g id="emission-test" transform="translate(224.000000, 1153.000000)">
                <g id="home-dropoff" fill="#BCC4CE">
                    <circle id="Oval-3" cx="26.5" cy="26.5" r="26.5"></circle>
                </g>
                <g id="Group-3" transform="translate(4.000000, 14.000000)" fill="#FFFFFF">
                    <g id="Group-2" transform="translate(23.989333, 0.000000)">
                        <path d="M20.6848537,5.93068011 C20.6848537,4.78352936 19.7549035,3.85446535 18.6085584,3.85446535 C17.5684772,3.85446535 16.7149822,4.62103178 16.563119,5.61865575 C16.112444,5.3636707 15.6001376,5.20649034 15.0454545,5.20649034 C13.411536,5.20649034 12.0870639,6.4753733 11.9684737,8.07851627 C11.4855731,7.76729755 10.9130854,7.58159754 10.2952401,7.58159754 C8.58341627,7.58159754 7.19521804,8.96987633 7.19521804,10.6816196 C7.19521804,10.9027677 7.21987063,11.1177125 7.263778,11.3256482 C6.91638605,11.2185786 6.55505652,11.1446209 6.17286092,11.1446209 C4.1135646,11.1446209 2.44419802,12.814068 2.44419802,14.8733643 C2.44419802,16.9326607 4.11364516,18.6020272 6.17286092,18.6020272 C6.59348555,18.6020272 6.99098831,18.5172739 7.36778612,18.3886938 C8.03799801,19.3793892 9.1720974,20.0303463 10.4578182,20.0303463 C12.517034,20.0303463 14.1865617,18.3608992 14.1865617,16.3016834 C14.1865617,15.8278866 14.0894821,15.3795479 13.9285152,14.9627098 C15.6071467,14.9241197 16.9577215,13.5575126 16.9577215,11.8695357 C16.9577215,11.5198074 16.8867446,11.1892533 16.7805613,10.8757788 C17.604167,10.3187593 18.1457182,9.37583831 18.1457182,8.30651238 C18.1457182,8.18091311 18.123402,8.06151727 18.1087393,7.94059071 C18.2697062,7.98071158 18.4352652,8.00842559 18.6086389,8.00842559 C19.7549035,8.00689488 20.6848537,7.07702522 20.6848537,5.93068011 L20.6848537,5.93068011 Z" id="Shape" transform="translate(11.564526, 11.942406) scale(-1, 1) rotate(-300.000000) translate(-11.564526, -11.942406) "></path>
                    </g>
                    <g id="transport-(3)" transform="translate(0.000000, 2.010667)">
                        <g id="Capa_1">
                            <g id="Group">
                                <path d="M1.911208,4.40235467 L18.269992,4.40235467 C18.4589947,4.40235467 18.6339227,4.291768 18.7153547,4.11885067 C19.210984,3.07129333 19.6563467,1.98854933 19.1798187,1.284816 C18.7233973,0.604205333 17.609488,0.325728 15.3303973,0.325728 C13.8807067,0.325728 12.047984,0.441341333 10.111712,0.563992 C7.704944,0.715797333 4.97948533,0.888714667 2.29826133,0.888714667 C2.12031733,0.888714667 1.956448,0.983216 1.868984,1.137032 C1.82676,1.21142667 1.45177067,1.91314933 1.40552533,3.586024 C1.40049867,3.72978667 1.407536,3.85243733 1.4196,3.963024 C1.44774933,4.21234667 1.65886933,4.40235467 1.911208,4.40235467 L1.911208,4.40235467 Z" id="Shape"></path>
                                <path d="M23.728952,11.26476 C23.8928213,11.2054453 24.0144667,11.0677147 24.0496533,10.8958027 L24.3603013,9.385792 C24.3964933,9.21388 24.3371787,9.03493067 24.20548,8.91730667 L22.5637707,7.452536 C22.4753013,7.37412 22.3616987,7.32888 22.24508,7.32686933 L20.248488,7.286656 C19.850376,6.945848 18.6841893,5.944536 18.1584,5.50520533 C18.0699307,5.43081067 17.9573333,5.39059733 17.84172,5.39059733 L2.728544,5.39059733 C2.56769067,5.39059733 2.417896,5.468008 2.32540533,5.59970667 C2.23291467,5.7304 2.209792,5.89829067 2.26307467,6.050096 C2.38874133,6.40397333 2.64510133,6.70557333 2.99897867,7.12479733 C3.376984,7.57116533 3.895736,8.182408 4.49994133,9.14853333 C4.93122933,9.84020267 5.011656,10.5479573 4.73921067,11.2567173 C4.30993333,12.3666053 1.39030667,13.231192 0.695621333,13.4282373 C0.141682667,13.58708 -0.549215591,17.7300587 1.09137128,17.7300587 C3.70032841,17.7300587 10.651576,17.7300587 10.651576,17.7300587 C11.1090027,20.605312 13.598208,22.813024 16.6001333,22.813024 C19.925776,22.813024 22.6321333,20.1086773 22.6321333,16.781024 C22.6321333,16.60308 22.6200693,16.428152 22.6059947,16.25624 C24.3572853,16.008928 24.6428,15.7183867 24.7795253,15.5766347 C24.9675227,15.3856213 24.9996933,15.179528 24.9946667,15.0448133 C24.9554587,13.9510107 23.9812907,12.24496 23.433384,11.367304 L23.728952,11.26476 Z M20.158008,16.7790133 C20.158008,18.7424293 18.5605333,20.3388987 16.5981227,20.3388987 C14.635712,20.3388987 13.0392427,18.7424293 13.0392427,16.7790133 C15.6440613,16.759912 18.4620107,16.5990587 20.1288533,16.491488 C20.136896,16.588 20.158008,16.6825013 20.158008,16.7790133 L20.158008,16.7790133 Z" id="Shape"></path>
                            </g>
                        </g>
                    </g>
                </g>
            </g>
        </g>
    </g>
</svg>