<?xml version="1.0" encoding="UTF-8" standalone="no"?>
<svg width="53px" height="53px" viewBox="0 0 53 53" version="1.1" xmlns="http://www.w3.org/2000/svg" xmlns:xlink="http://www.w3.org/1999/xlink">
    <!-- Generator: Sketch 3.6.1 (26313) - http://www.bohemiancoding.com/sketch -->
    <title>engine oil change</title>
    <desc>Created with Sketch.</desc>
    <defs></defs>
    <g id="Page-1" stroke="none" stroke-width="1" fill="none" fill-rule="evenodd">
        <g id="28-getstarted-copy" transform="translate(-503.000000, -1053.000000)">
            <g id="engine-oil-change" transform="translate(503.000000, 1053.000000)">
                <circle id="Oval-3" fill="#BCC4CE" cx="26.5" cy="26.5" r="26.5"></circle>
                <g id="vehicle" transform="translate(10.000000, 14.000000)" fill="#FFFFFF">
                    <g id="Capa_1">
                        <g id="XMLID_125_">
                            <path d="M32.4266443,11.8660221 C32.2689664,11.4239007 31.8542349,11.1245168 31.3849664,11.1135721 L23.4652483,10.9240915 L18.2340403,8.97547409 L18.9617315,7.0257166 L19.0050872,7.04190568 C19.1360671,7.09058691 19.2701275,7.11384446 19.4021342,7.11384446 C19.8626174,7.11384446 20.2961745,6.83121969 20.4670872,6.37461936 C20.6855772,5.78736636 20.3872215,5.13376095 19.7992953,4.91486641 L15.4090738,3.27999784 C14.8222886,3.0611033 14.1677315,3.35980314 13.9469597,3.94717015 C13.7285839,4.53465116 14.0269396,5.18814256 14.6146376,5.40692309 L14.7046577,5.44032731 L13.9781074,7.38985679 L8.73377852,5.4371351 L6.18263758,0.702742672 C5.89979866,0.176825744 5.25425503,-0.0409287182 4.71071141,0.208291833 L0.66414094,2.05544251 C0.354718121,2.1968119 0.12504698,2.46837793 0.0375369128,2.79637772 C-0.0488322148,3.12392147 0.0154026846,3.47358269 0.212899329,3.74959502 L5.31084564,10.8508986 L3.17112752,16.5876456 C3.0657047,16.8698144 3.07688591,17.1818531 3.20227517,17.4554713 C3.32652349,17.7293175 3.55608054,17.9422836 3.83777852,18.0473986 L18.9163221,23.6635256 C19.046047,23.7118648 19.1803356,23.7350083 19.3133691,23.7350083 C19.5808054,23.7350083 19.8447047,23.640268 20.0542953,23.4607061 L32.0982819,13.1084766 C32.4541409,12.8020242 32.5851208,12.3083714 32.4266443,11.8660221 L32.4266443,11.8660221 Z M2.86284564,3.54723158 L4.6864094,2.7147483 L6.84814765,6.72701677 L6.26683893,8.28755241 L2.86284564,3.54723158 L2.86284564,3.54723158 Z" id="XMLID_127_"></path>
                            <path d="M32.1969732,17.6566946 C32.1313691,17.512133 31.9861275,17.4191029 31.826396,17.4183048 C31.6667785,17.4183048 31.5213087,17.511563 31.4559329,17.6566946 C30.8571678,18.9641335 29.7433826,21.5078704 29.7433826,22.3479922 C29.7433826,23.4973025 30.6762148,24.4288584 31.826396,24.4288584 C32.9756644,24.4288584 33.9083826,23.4973025 33.9083826,22.3479922 C33.9083826,21.5079844 32.7959664,18.9645895 32.1969732,17.6566946 L32.1969732,17.6566946 Z" id="XMLID_126_"></path>
                        </g>
                    </g>
                </g>
            </g>
        </g>
    </g>
</svg>