<?xml version="1.0" encoding="UTF-8" standalone="no"?>
<svg width="53px" height="53px" viewBox="0 0 53 53" version="1.1" xmlns="http://www.w3.org/2000/svg" xmlns:xlink="http://www.w3.org/1999/xlink">
    <!-- Generator: Sketch 3.6.1 (26313) - http://www.bohemiancoding.com/sketch -->
    <title>express service</title>
    <desc>Created with Sketch.</desc>
    <defs></defs>
    <g id="Page-1" stroke="none" stroke-width="1" fill="none" fill-rule="evenodd">
        <g id="28-getstarted-copy" transform="translate(-938.000000, -1053.000000)">
            <g id="express-service" transform="translate(938.000000, 1053.000000)">
                <circle id="Oval-3" fill="#BCC4CE" cx="26.5" cy="26.5" r="26.5"></circle>
                <g id="transport" transform="translate(5.000000, 6.000000)" fill="#FFFFFF">
                    <g id="Capa_1">
                        <g id="Group">
                            <path d="M19.9780674,6.01959569 C15.8121917,6.01959569 11.8957383,7.62887332 8.95001554,10.551035 C2.86941451,16.5833396 2.86941451,26.3988059 8.95001554,32.4313315 C11.8957383,35.3534933 15.8121917,36.9627709 19.9780674,36.9627709 C24.143943,36.9627709 28.0603964,35.3536038 31.0060078,32.4313315 C37.0866088,26.3988059 37.0866088,16.5833396 31.0060078,10.551035 C28.0603964,7.6287628 24.1438316,6.01959569 19.9780674,6.01959569 L19.9780674,6.01959569 Z M28.6429016,30.0870377 C26.3284767,32.3829272 23.2511917,33.647407 19.9780674,33.647407 C16.7048316,33.647407 13.6275466,32.3830377 11.3132332,30.0870377 C6.53544301,25.3471725 6.53544301,17.634973 11.3131218,12.8953288 C13.6275466,10.5994394 16.7048316,9.33495957 19.9780674,9.33495957 C23.2511917,9.33495957 26.3284767,10.5993288 28.6429016,12.8953288 C33.4206917,17.634973 33.4205803,25.3471725 28.6429016,30.0870377 L28.6429016,30.0870377 Z" id="Shape"></path>
                            <path d="M26.4253938,14.3217089 C23.9056606,16.1846119 20.8723782,18.4483423 19.868785,19.2860243 C19.3355181,19.3118841 18.8098264,19.5242884 18.4026632,19.9283208 C17.5325259,20.791531 17.5325259,22.1910566 18.4026632,23.0541563 C19.2728005,23.9173666 20.683557,23.9173666 21.5534715,23.0541563 C21.9607461,22.6502345 22.1748549,22.1286173 22.2009223,21.5997062 C23.0451036,20.6042129 25.3271114,17.5949677 27.2050751,15.0950728 C27.3701684,14.8751536 27.3477772,14.5681509 27.1521606,14.3743127 C26.956544,14.1799218 26.6470777,14.1578194 26.4253938,14.3217089 L26.4253938,14.3217089 Z" id="Shape"></path>
                            <path d="M42.7467902,19.0538383 C42.616899,18.1794663 42.4633912,17.3150404 42.2440466,16.4581294 C41.5940337,13.9199973 40.4862824,11.5079596 38.9753782,9.35993531 C37.5134896,7.28153369 35.6940104,5.45421563 33.6031632,3.99622911 C31.4953834,2.52608625 29.1260389,1.43245822 26.6331528,0.784636119 C25.2733057,0.431328841 23.8725751,0.200137466 22.4681684,0.126315364 C21.5789819,0.0796792453 20.7016036,0.0848733154 19.8137539,0.130625337 C18.7360803,0.186212938 17.669101,0.355628032 16.6133731,0.570021563 C15.7249663,0.750377358 14.8391218,1.0031186 13.9879223,1.31310512 C13.3169663,1.55722642 12.6455648,1.81151482 12.0050207,2.1283531 C11.5134171,2.3715903 11.0274948,2.62112668 10.5452487,2.88292992 C10.1299534,3.10804313 9.72758031,3.36962534 9.33656995,3.63275472 C8.77935233,4.0079434 8.23773057,4.39981941 7.71560363,4.82230728 C6.14788601,6.09043396 4.74693264,7.58212668 3.61790415,9.24953369 C2.94282642,10.2464636 2.34773316,11.2815202 1.84487824,12.3753693 C0.735678756,14.7878491 0.116189119,17.4217951 0.0143704663,20.0704394 C-0.0372072539,21.4086307 0.0518005181,22.7440593 0.253989637,24.067221 C0.46442228,25.4425445 0.83961399,26.7831671 1.32553627,28.0866577 C2.03581606,29.9907817 3.07683938,31.7689218 4.32428497,33.374221 C5.98502073,35.5113046 8.14103627,37.3086739 10.5206295,38.6092911 C12.818456,39.8650404 15.3792953,40.6705633 17.9893731,40.9427547 L16.5905363,39.8518895 C14.5332202,39.350496 12.557114,38.5013208 10.7869845,37.3522156 C8.51578238,35.8775418 6.55103886,33.9106469 5.11443782,31.6239299 C3.99810881,29.8471159 3.18077461,27.8887305 2.72682383,25.8429299 C2.22341192,23.5740054 2.17517617,21.2355687 2.54045337,18.9445418 C2.85437565,16.9754367 3.5150829,15.0405903 4.48425389,13.2943881 C5.03656995,12.3075148 5.65260622,11.357442 6.38193523,10.4888167 C7.07104922,9.66815364 7.81318912,8.89744205 8.63453368,8.20497305 C9.65127202,7.34761995 10.7566839,6.61956604 11.930272,5.99218868 C13.6768964,5.05869272 15.6063264,4.46314286 17.5650544,4.17393261 C20.0811114,3.80228032 22.6829456,3.98805121 25.1205777,4.7085903 C27.5534197,5.42780323 29.8207228,6.68101078 31.7099378,8.36411051 C33.6183135,10.0647817 35.1465959,12.1989919 36.1130933,14.5577628 C36.6192902,15.7930674 36.977215,17.078434 37.1750596,18.3973962 L42.9250285,21.3106065 C42.8858161,20.558903 42.8575207,19.7993531 42.7467902,19.0538383 L42.7467902,19.0538383 Z" id="Shape"></path>
                        </g>
                    </g>
                </g>
            </g>
        </g>
    </g>
</svg>