<?xml version="1.0" encoding="UTF-8" standalone="no"?>
<svg width="53px" height="53px" viewBox="0 0 53 53" version="1.1" xmlns="http://www.w3.org/2000/svg" xmlns:xlink="http://www.w3.org/1999/xlink">
    <!-- Generator: Sketch 3.6.1 (26313) - http://www.bohemiancoding.com/sketch -->
    <title>free wifi</title>
    <desc>Created with Sketch.</desc>
    <defs></defs>
    <g id="Page-1" stroke="none" stroke-width="1" fill="none" fill-rule="evenodd">
        <g id="28-getstarted-copy" transform="translate(-643.000000, -1053.000000)">
            <g id="free-wifi" transform="translate(643.000000, 1053.000000)">
                <circle id="Oval-3" fill="#BCC4CE" cx="26.5" cy="26.5" r="26.5"></circle>
                <g id="icon-(1)" transform="translate(10.000000, 13.000000)" fill="#FFFFFF">
                    <g id="Capa_1">
                        <g id="Group">
                            <ellipse id="Oval" cx="16.3931429" cy="21.6401429" rx="3.81228571" ry="3.81228571"></ellipse>
                            <path d="M25.5042857,12.4551429 C25.4477143,12.397 25.388,12.3451429 25.3298571,12.2917143 L25.1585714,12.1298571 C25.1302857,12.1 25.0988571,12.078 25.0627143,12.0497143 C20.1331429,7.57114286 12.5887143,7.74871429 7.88385714,12.4535714 L7.33228571,13.0067143 L6.56857143,13.7704286 C5.63828571,14.7007143 5.643,16.2171429 6.57485714,17.149 C7.50828571,18.084 9.02471429,18.0855714 9.95342857,17.1552857 L11.2702857,15.8384286 C14.2622857,12.848 19.129,12.848 22.1194286,15.8368571 L23.0701429,16.7577143 C23.991,17.6785714 25.4932857,17.677 26.4188571,16.7498571 C26.8667143,16.3035714 27.1134286,15.708 27.115,15.0747143 C27.1165714,14.4445714 26.873,13.849 26.4251429,13.4042857 L25.5042857,12.4551429 L25.5042857,12.4551429 Z" id="Shape"></path>
                            <path d="M31.999,7.74242857 L31.207,6.95042857 C31.2038571,6.94728571 31.2022857,6.94257143 31.196,6.941 L30.5705714,6.31242857 C30.4605714,6.204 30.3411429,6.10971429 30.2154286,6.028 C22.1807143,-1.02614286 9.95971429,-0.809285714 2.18114286,6.67385714 C2.14342857,6.70842857 2.101,6.732 2.06328571,6.76971429 L0.633285714,8.20128571 C-0.215285714,9.04828571 -0.210571429,10.4264286 0.642714286,11.2797143 C1.49442857,12.1314286 2.87257143,12.1377143 3.72114286,11.2875714 L5.15114286,9.85914286 C5.16057143,9.84657143 5.16842857,9.83557143 5.17785714,9.82771429 C11.4682857,3.751 21.4468571,3.71328571 27.7875714,9.70357143 L28.9127143,10.8302857 C29.7597143,11.6772857 31.141,11.6741429 31.9927143,10.8224286 C32.8428571,9.96914286 32.846,8.58942857 31.999,7.74242857 L31.999,7.74242857 Z" id="Shape"></path>
                        </g>
                    </g>
                </g>
            </g>
        </g>
    </g>
</svg>