<?xml version="1.0" encoding="UTF-8" standalone="no"?>
<svg width="53px" height="53px" viewBox="0 0 53 53" version="1.1" xmlns="http://www.w3.org/2000/svg" xmlns:xlink="http://www.w3.org/1999/xlink">
    <!-- Generator: Sketch 3.6.1 (26313) - http://www.bohemiancoding.com/sketch -->
    <title>general store</title>
    <desc>Created with Sketch.</desc>
    <defs></defs>
    <g id="Page-1" stroke="none" stroke-width="1" fill="none" fill-rule="evenodd">
        <g id="28-getstarted-copy" transform="translate(-573.000000, -1053.000000)">
            <g id="general-store" transform="translate(573.000000, 1053.000000)">
                <circle id="Oval-3" fill="#BCC4CE" cx="26.5" cy="26.5" r="26.5"></circle>
                <g id="commerce" transform="translate(15.000000, 9.000000)" fill="#FFFFFF">
                    <g id="Group">
                        <path d="M9.48586175,5.10098701 L9.48586175,4.74255315 C9.48586175,3.34374603 10.6136406,2.20584127 12,2.20584127 C13.3863594,2.20584127 14.5141382,3.34374603 14.5141382,4.74255315 L14.5141382,5.10098701 L16.7003502,5.10098701 L16.7003502,4.74255315 C16.7003502,2.12750361 14.5917788,0 12,0 C9.4082212,0 7.29964977,2.12750361 7.29964977,4.74255315 L7.29964977,5.10098701 L9.48586175,5.10098701 L9.48586175,5.10098701 Z" id="Shape"></path>
                        <path d="M15.0136037,16.5676344 C13.8944516,16.5676344 12.9838894,17.5231977 12.9838894,18.6977047 C12.9838894,19.2459567 12.5434839,19.6904281 12.0001106,19.6904281 C11.4567373,19.6904281 11.0162212,19.2460683 11.0162212,18.6977047 C11.0162212,17.5231977 10.105659,16.5676344 8.98639631,16.5676344 C7.86724424,16.5676344 6.95668203,17.5231977 6.95668203,18.6977047 C6.95668203,20.4288331 9.85758525,23.0381914 11.9996682,24.5298432 C14.1418618,23.035848 17.043318,20.4247042 17.043318,18.6977047 C17.043318,17.5230861 16.1327558,16.5676344 15.0136037,16.5676344 L15.0136037,16.5676344 Z" id="Shape"></path>
                        <path d="M1.17821198,6.58996056 C0.574562212,6.58996056 0.0850506912,7.08386724 0.0850506912,7.69293699 L0.0850506912,29.0620452 C0.0850506912,31.3123001 1.89931797,33.1428571 4.12954839,33.1428571 L19.8702304,33.1428571 C22.1004608,33.1428571 23.9147281,31.3123001 23.9147281,29.0620452 L23.9147281,7.69293699 C23.9147281,7.08386724 23.4252166,6.58996056 22.8215668,6.58996056 L1.17821198,6.58996056 L1.17821198,6.58996056 Z M12.5315392,26.558253 C12.3697327,26.663038 12.1849217,26.7154863 12.0001106,26.7154863 C11.8152995,26.7154863 11.6305991,26.663038 11.468682,26.558253 C10.8054194,26.128735 4.98912442,22.2595017 4.98912442,18.6977047 C4.98912442,16.4284791 6.78226728,14.5824108 8.98639631,14.5824108 C10.1875023,14.5824108 11.2666175,15.1306628 12.0001106,15.9967292 C12.7334931,15.1306628 13.8126083,14.5824108 15.0136037,14.5824108 C17.2177327,14.5824108 19.0108756,16.4284791 19.0108756,18.6977047 C19.0108756,22.2592785 13.1948018,26.128735 12.5315392,26.558253 L12.5315392,26.558253 Z" id="Shape"></path>
                    </g>
                </g>
            </g>
        </g>
    </g>
</svg>