<?xml version="1.0" encoding="UTF-8" standalone="no"?>
<svg width="53px" height="53px" viewBox="0 0 53 53" version="1.1" xmlns="http://www.w3.org/2000/svg" xmlns:xlink="http://www.w3.org/1999/xlink">
    <!-- Generator: Sketch 3.6.1 (26313) - http://www.bohemiancoding.com/sketch -->
    <title>home pickup</title>
    <desc>Created with Sketch.</desc>
    <defs></defs>
    <g id="Page-1" stroke="none" stroke-width="1" fill="none" fill-rule="evenodd">
        <g id="28-getstarted-copy" transform="translate(-87.000000, -1153.000000)">
            <g id="home-pickup" transform="translate(87.000000, 1153.000000)">
                <circle id="Oval-3" fill="#BCC4CE" cx="26.5" cy="26.5" r="26.5"></circle>
                <g id="favorite" transform="translate(9.000000, 9.000000)">
                    <g id="Group">
                        <path d="M22.8366727,17.57808 L17.468201,10.2164712 C17.2103822,9.92780644 16.7887091,9.92780644 16.5308903,10.2164712 L11.1626017,17.5779488 C10.9048744,17.8666573 11.0186113,18.102778 11.4156605,18.102778 L13.6614716,18.102778 C14.0583835,18.102778 14.3832545,18.4132742 14.3832545,18.7927647 L14.3867787,21.0466952 L14.3867787,26.8842168 L14.3858175,26.8969919 C14.3859549,27.27657 14.7208951,27.5853599 15.1177154,27.5854474 L18.9069152,27.5853599 C19.3039186,27.5853599 19.6287438,27.2749074 19.6287438,26.8955919 L19.6159742,18.792721 C19.6159742,18.4132304 19.940662,18.1027342 20.3377112,18.1027342 L22.5834308,18.1027342 C22.9803427,18.102778 23.0942626,17.8666573 22.8366727,17.57808 L22.8366727,17.57808 Z M34.5712795,14.3979355 L18.2987542,0.398602151 C17.8393939,0.00331182796 17.1610774,0.00307526882 16.7013636,0.398602151 L0.428602694,14.3979355 C0.0386531987,14.7334946 -0.101936027,15.2772258 0.0762457912,15.7606344 C0.254427609,16.2441613 0.713787879,16.5650538 1.22723906,16.5650538 L4.64910774,16.5650538 L4.64910774,31.6659247 C4.64910774,32.3461505 5.19873737,32.8978065 5.87658249,32.8978065 L29.1231818,32.8978065 C29.8010269,32.8978065 30.3504209,32.3461505 30.3504209,31.6659247 L30.3504209,16.5650538 L33.7725253,16.5650538 C34.2859764,16.5650538 34.7454545,16.2441613 34.9235185,15.7606344 C35.1018182,15.2771075 34.961229,14.7334946 34.5712795,14.3979355 L34.5712795,14.3979355 Z" id="Shape" fill="#FFFFFF"></path>
                        <g id="arrows" transform="translate(13.000000, 7.000000)">
                            <g id="Capa_1">
                                <g id="Layer_5_60_"></g>
                            </g>
                        </g>
                    </g>
                </g>
            </g>
        </g>
    </g>
</svg>