<?xml version="1.0" encoding="UTF-8" standalone="no"?>
<svg width="53px" height="53px" viewBox="0 0 53 53" version="1.1" xmlns="http://www.w3.org/2000/svg" xmlns:xlink="http://www.w3.org/1999/xlink">
    <!-- Generator: Sketch 3.6.1 (26313) - http://www.bohemiancoding.com/sketch -->
    <title>home dropoff</title>
    <desc>Created with Sketch.</desc>
    <defs></defs>
    <g id="Page-1" stroke="none" stroke-width="1" fill="none" fill-rule="evenodd">
        <g id="28-getstarted-copy" transform="translate(-154.000000, -1153.000000)">
            <g id="home-dropoff" transform="translate(154.000000, 1153.000000)">
                <circle id="Oval-3" fill="#BCC4CE" cx="26.5" cy="26.5" r="26.5"></circle>
                <g id="favorite" transform="translate(9.000000, 9.000000)">
                    <g id="Group">
                        <path d="M22.8366727,20.00734 L17.468201,27.3689488 C17.2103822,27.6576136 16.7887091,27.6576136 16.5308903,27.3689488 L11.1626017,20.0074713 C10.9048744,19.7187627 11.0186113,19.4826421 11.4156605,19.4826421 L13.6614716,19.4826421 C14.0583835,19.4826421 14.3832545,19.1721459 14.3832545,18.7926553 L14.3867787,16.5387248 L14.3867787,10.7012032 L14.3858175,10.6884281 C14.3859549,10.3088501 14.7208951,10.0000601 15.1177154,9.99997264 L18.9069152,10.0000601 C19.3039186,10.0000601 19.6287438,10.3105126 19.6287438,10.6898281 L19.6159742,18.7926991 C19.6159742,19.1721896 19.940662,19.4826858 20.3377112,19.4826858 L22.5834308,19.4826858 C22.9803427,19.4826421 23.0942626,19.7187627 22.8366727,20.00734 L22.8366727,20.00734 Z M34.5712795,14.3979355 L18.2987542,0.398602151 C17.8393939,0.00331182796 17.1610774,0.00307526882 16.7013636,0.398602151 L0.428602694,14.3979355 C0.0386531987,14.7334946 -0.101936027,15.2772258 0.0762457912,15.7606344 C0.254427609,16.2441613 0.713787879,16.5650538 1.22723906,16.5650538 L4.64910774,16.5650538 L4.64910774,31.6659247 C4.64910774,32.3461505 5.19873737,32.8978065 5.87658249,32.8978065 L29.1231818,32.8978065 C29.8010269,32.8978065 30.3504209,32.3461505 30.3504209,31.6659247 L30.3504209,16.5650538 L33.7725253,16.5650538 C34.2859764,16.5650538 34.7454545,16.2441613 34.9235185,15.7606344 C35.1018182,15.2771075 34.961229,14.7334946 34.5712795,14.3979355 L34.5712795,14.3979355 Z" id="Shape" fill="#FFFFFF"></path>
                        <g id="arrows" transform="translate(13.000000, 7.000000)">
                            <g id="Capa_1">
                                <g id="Layer_5_60_"></g>
                            </g>
                        </g>
                    </g>
                </g>
            </g>
        </g>
    </g>
</svg>