<?xml version="1.0" encoding="UTF-8" standalone="no"?>
<svg width="53px" height="53px" viewBox="0 0 53 53" version="1.1" xmlns="http://www.w3.org/2000/svg" xmlns:xlink="http://www.w3.org/1999/xlink">
    <!-- Generator: Sketch 3.6.1 (26313) - http://www.bohemiancoding.com/sketch -->
    <title>door step insurance</title>
    <desc>Created with Sketch.</desc>
    <defs></defs>
    <g id="Page-1" stroke="none" stroke-width="1" fill="none" fill-rule="evenodd">
        <g id="28-getstarted-copy" transform="translate(-87.000000, -1053.000000)">
            <g id="door-step-insurance" transform="translate(87.000000, 1053.000000)">
                <circle id="Oval-3" fill="#BCC4CE" cx="26.5" cy="26.5" r="26.5"></circle>
                <g id="transport-(1)" transform="translate(9.000000, 10.000000)" fill="#FFFFFF">
                    <g id="Capa_1">
                        <g id="Group">
                            <path d="M27.2694781,9.84567509 C28.190202,10.2381011 29.0144108,10.6905704 29.5980976,10.6905704 C29.9064983,10.6905704 30.1477273,10.5642888 30.3008081,10.2359567 C30.6536364,9.47933935 27.2750168,7.690787 27.9143266,7.690787 C27.976431,7.690787 28.0763636,7.70770397 28.221431,7.74392058 C30.0661785,8.20615884 32.309596,10.4314549 32.80867,13.1264946 C33.0705219,14.5385848 33.6392424,15.0183357 34.1224074,15.0183357 C34.5616162,15.0183357 34.9302357,14.6226931 34.9347138,14.1705812 C34.9480303,12.7893466 34.478064,8.23034296 33.3879966,6.43511913 C32.2974579,4.63989531 27.3042424,2.08412274 26.4627104,1.23684477 C26.2624916,1.03538989 25.7727273,0.523234657 25.3390572,0.046700361 L20.0364983,0.046700361 C20.8568182,3.38244043 22.1852862,5.56592058 23.1239226,6.93667148 C24.0471212,8.28490614 25.8094949,9.22427437 27.2694781,9.84567509 L27.2694781,9.84567509 Z" id="Shape"></path>
                            <path d="M0.812306397,15.0159531 C1.29558923,15.0159531 1.86430976,14.538704 2.12616162,13.1266137 C2.62535354,10.431574 4.86877104,8.20627798 6.71363636,7.74403971 C6.85882155,7.70770397 6.95863636,7.69090614 7.02085859,7.69090614 C7.65993266,7.69102527 4.28131313,9.47933935 4.63402357,10.2360758 C4.78710438,10.5644079 5.02833333,10.6906895 5.33673401,10.6906895 C5.92053872,10.6906895 6.74474747,10.2382202 7.66558923,9.84579422 C9.12557239,9.22427437 10.8879461,8.28490614 11.8109091,6.93679061 C12.7495455,5.56603971 14.0780135,3.38255957 14.8983333,0.0468194946 L9.59565657,0.0468194946 C9.16198653,0.523353791 8.67245791,1.03550903 8.47223906,1.2369639 C7.63047138,2.08412274 2.63725589,4.62988809 1.54695286,6.42523105 C0.456885522,8.22033574 -0.0130808081,12.7844621 0.000235690235,14.1656968 C0.0045959596,14.6176895 0.373215488,15.0159531 0.812306397,15.0159531 L0.812306397,15.0159531 Z" id="Shape"></path>
                            <path d="M29.296532,21.8043032 C28.8444781,21.8043032 28.4052694,21.8610108 27.984798,21.9657292 L27.1861616,20.2110108 C27.8551684,20.0084838 28.5436195,19.8980469 29.2769697,19.8980469 C29.5812458,19.8980469 29.9199327,19.9190144 30.1556229,19.9554693 L30.1556229,16.3472708 C30.1556229,15.3230794 29.3039562,14.5809964 28.2910774,14.5809964 L26.0909091,14.5809964 L26.0539057,11.5071119 C26.0534343,11.46613 26.0495455,11.4256245 26.0440067,11.3855957 C26.0113636,11.1520939 25.8945791,10.9371769 25.7127441,10.7849242 C25.4996801,10.6064621 25.2199158,10.5314079 24.9473401,10.5802527 L24.5800168,10.6458953 L20.8942929,11.3033935 C20.3815488,11.3948881 20.0392088,11.8891733 20.1298316,12.4076426 C20.2203367,12.9259928 20.708569,13.2717184 21.222138,13.1804621 L24.1821717,12.652343 L24.2039731,14.4548339 C23.0880976,14.5695596 21.5978283,14.9636534 20.263468,16.1157942 C17.7204882,18.3119025 18.6369697,19.2867726 14.0278114,19.2867726 C12.090202,19.2867726 9.6456229,16.4650939 7.20363636,16.1025704 C5.46188552,15.8436931 3.63752525,15.9927292 2.2810101,16.4797473 C1.99052189,16.5839892 1.72077441,16.7032419 1.47872054,16.8379819 C0.666296296,17.2900939 0.156969697,17.9093502 0.156969697,18.6713285 C0.156969697,19.8363357 1.2273569,20.7120866 2.66247475,21.3630325 C3.88806397,20.4432022 5.4043771,19.8980469 7.04454545,19.8980469 C7.77400673,19.8980469 8.47848485,20.0074116 9.14430976,20.2080325 L8.34826599,21.9638231 C7.93003367,21.860296 7.49377104,21.8041841 7.04454545,21.8041841 C4.02193603,21.8041841 1.56274411,24.2901444 1.56274411,27.3461588 C1.56274411,30.4014585 4.02181818,32.8874188 7.04454545,32.8874188 C10.0672727,32.8874188 12.5263468,30.4015776 12.5263468,27.3461588 C12.5263468,25.4222708 11.5511785,23.7248556 10.074697,22.7308051 L10.8676768,20.9816859 C12.9862963,22.2872708 14.4050337,24.6430181 14.4112795,27.3282888 L21.9300337,27.3282888 C21.9363973,24.6470686 23.3510101,22.2945379 25.4644444,20.9877617 L26.2597811,22.7353321 C24.7871886,23.7299783 23.8150842,25.42513 23.8150842,27.3461588 C23.8150842,30.4014585 26.2741582,32.8874188 29.2968855,32.8874188 C32.3196128,32.8874188 34.7786869,30.4015776 34.7786869,27.3461588 C34.7783333,24.2902635 32.3191414,21.8043032 29.296532,21.8043032 L29.296532,21.8043032 Z M10.5694108,27.346278 C10.5694108,29.3110289 8.98792929,30.9095632 7.04419192,30.9095632 C5.10045455,30.9095632 3.51909091,29.3110289 3.51909091,27.346278 C3.51909091,25.3811697 5.10045455,23.782278 7.04419192,23.782278 C7.20186869,23.782278 7.35683502,23.7939531 7.50909091,23.8143249 L6.63479798,25.7428592 L6.16082492,26.7883755 C5.94387205,27.266935 6.15175084,27.8325812 6.62501684,28.051787 C6.75228956,28.1107581 6.88580808,28.1386354 7.01720539,28.1386354 C7.37439394,28.1386354 7.71626263,27.932296 7.87476431,27.5824007 L8.40247475,26.4184657 L9.24329966,24.5636751 C10.0508923,25.2175993 10.5694108,26.2215379 10.5694108,27.346278 L10.5694108,27.346278 Z M29.296532,30.9095632 C27.3527946,30.9095632 25.771431,29.3110289 25.771431,27.346278 C25.771431,26.223444 26.2881818,25.220935 27.0932997,24.56713 L27.9369529,26.4207292 L28.4663131,27.5839495 C28.6252862,27.93313 28.9665657,28.1388736 29.3234007,28.1388736 C29.4552694,28.1388736 29.5892593,28.1107581 29.7168855,28.0514296 C30.1899158,27.8313899 30.3968519,27.2653863 30.1793098,26.7873032 L29.7036869,25.7425018 L28.8265657,23.8150397 C28.9804714,23.7941913 29.1372054,23.7825162 29.2966498,23.7825162 C31.2403872,23.7825162 32.8218687,25.3814079 32.8218687,27.3465162 C32.8217508,29.3110289 31.2402694,30.9095632 29.296532,30.9095632 L29.296532,30.9095632 Z" id="Shape"></path>
                        </g>
                    </g>
                </g>
            </g>
        </g>
    </g>
</svg>