<?xml version="1.0" encoding="UTF-8" standalone="no"?>
<svg width="53px" height="53px" viewBox="0 0 53 53" version="1.1" xmlns="http://www.w3.org/2000/svg" xmlns:xlink="http://www.w3.org/1999/xlink">
    <!-- Generator: Sketch 3.6.1 (26313) - http://www.bohemiancoding.com/sketch -->
    <title>nitrogen filling</title>
    <desc>Created with Sketch.</desc>
    <defs></defs>
    <g id="Page-1" stroke="none" stroke-width="1" fill="none" fill-rule="evenodd">
        <g id="28-getstarted-copy" transform="translate(-787.000000, -1053.000000)">
            <g id="nitrogen-filling" transform="translate(787.000000, 1053.000000)">
                <circle id="Oval-3" fill="#BCC4CE" cx="26.5" cy="26.5" r="26.5"></circle>
                <g id="interface" transform="translate(6.000000, 6.000000)" fill="#FFFFFF">
                    <g id="Capa_1">
                        <g id="Group">
                            <path d="M20.9454609,0 C9.39594783,0 0,9.39594783 0,20.9454609 C0,32.4949739 9.39594783,41.8909217 20.9454609,41.8909217 C32.4949739,41.8909217 41.8909217,32.4949739 41.8909217,20.9454609 C41.8909217,9.39594783 32.4949739,0 20.9454609,0 L20.9454609,0 Z M25.2874087,20.9454609 C25.3877217,21.6138087 25.3456,22.3034609 25.1514261,22.9692522 C24.5673217,24.9742957 22.7014261,26.3746609 20.6144522,26.3746609 L20.6142087,26.3746609 C20.1669391,26.3746609 19.7211304,26.3107478 19.2898087,26.1847478 C16.9941739,25.5154261 15.5919826,23.2476696 15.9384522,20.9454609 L4.79554783,20.9454609 C4.79554783,12.0402435 12.0402435,4.79554783 20.9454609,4.79554783 C29.8506783,4.79554783 37.0953739,12.0402435 37.0953739,20.9454609 L25.2874087,20.9454609 Z M25.8288468,38.2505774 L27.6595703,38.2505774 C27.8419421,38.2505774 27.981057,38.2879865 28.0769192,38.3628057 C28.1727813,38.4376249 28.2207116,38.5393308 28.2207116,38.6679263 C28.2207116,38.7824932 28.1827181,38.8795229 28.1067298,38.9590183 C28.0307415,39.0385138 27.9155918,39.0782609 27.7612772,39.0782609 L25.1800272,39.0782609 C25.0046696,39.0782609 24.8678928,39.029746 24.7696926,38.9327148 C24.6714924,38.8356837 24.622393,38.721703 24.622393,38.5907694 C24.622393,38.5065977 24.6539569,38.3949551 24.7170856,38.2558381 C24.7802143,38.1167212 24.8491872,38.0074166 24.9240065,37.9279212 C25.2349738,37.6052633 25.5155417,37.3287871 25.7657184,37.0984842 C26.0158952,36.8681813 26.1947572,36.7167916 26.3023098,36.6443105 C26.494034,36.5087006 26.653607,36.3725083 26.7810335,36.2357294 C26.9084599,36.0989506 27.0054896,35.9586666 27.0721255,35.8148735 C27.1387614,35.6710803 27.1720788,35.5302119 27.1720788,35.3922639 C27.1720788,35.2426255 27.1364233,35.1087713 27.0651112,34.9906972 C26.9937992,34.8726231 26.8967695,34.780854 26.7740192,34.7153872 C26.6512689,34.6499204 26.5174147,34.6171875 26.3724524,34.6171875 C26.0661613,34.6171875 25.8253406,34.7516263 25.649983,35.0205078 C25.626602,35.0555793 25.5874394,35.15144 25.5324941,35.3080927 C25.4775487,35.4647455 25.41559,35.5851558 25.346616,35.6693274 C25.277642,35.7534991 25.1765207,35.7955842 25.043249,35.7955842 C24.926344,35.7955842 24.8293142,35.7570062 24.7521569,35.6798488 C24.6749996,35.6026915 24.6364215,35.4974786 24.6364215,35.3642069 C24.6364215,35.2028779 24.6726615,35.0345372 24.7451427,34.8591797 C24.8176238,34.6838222 24.9257593,34.5248337 25.0695525,34.3822096 C25.2133457,34.2395855 25.3957148,34.1244357 25.6166653,34.036757 C25.8376157,33.9490782 26.0965565,33.9052395 26.3934952,33.9052395 C26.7512246,33.9052395 27.0563421,33.961353 27.308857,34.0735819 C27.472524,34.1484011 27.6163151,34.251276 27.7402344,34.3822096 C27.8641537,34.5131432 27.9605989,34.6645329 28.0295729,34.8363833 C28.0985468,35.0082337 28.1330333,35.1865112 28.1330333,35.3712211 C28.1330333,35.6611456 28.0611378,35.9247625 27.9173446,36.1620797 C27.7735514,36.3993969 27.6268378,36.585273 27.4771994,36.7197138 C27.327561,36.8541546 27.0768034,37.065165 26.7249193,37.3527514 C26.3730352,37.6403377 26.13163,37.863623 26.0006963,38.0226138 C25.9445819,38.0857425 25.8872993,38.1617296 25.8288468,38.2505774 Z M18.0961532,28.9539997 L21.8637058,34.6548149 L21.8637058,28.9012143 C21.8637058,28.5273164 21.9439827,28.2468972 22.1045389,28.0599482 C22.2650951,27.8729992 22.4817327,27.7795262 22.7544582,27.7795262 C23.0359814,27.7795262 23.2581174,27.8729992 23.420873,28.0599482 C23.5836285,28.2468972 23.6650051,28.5273164 23.6650051,28.9012143 L23.6650051,36.5088995 C23.6650051,37.3578677 23.3131064,37.7823454 22.6092986,37.7823454 C22.4333466,37.7823454 22.2749922,37.7570527 22.1342306,37.7064665 C21.9934691,37.6558804 21.8615071,37.5756035 21.7383407,37.4656335 C21.6151743,37.3556635 21.5008073,37.2270006 21.3952361,37.0796408 C21.2896649,36.932281 21.1840953,36.7816244 21.0785241,36.6276664 L17.4033458,30.9928329 L17.4033458,36.6606573 C17.4033458,37.0301564 17.3175705,37.309476 17.1460173,37.4986243 C16.9744642,37.6877727 16.7545275,37.7823454 16.4862007,37.7823454 C16.2090764,37.7823454 15.9869404,37.686673 15.819786,37.4953252 C15.6526316,37.3039775 15.5690557,37.0257576 15.5690557,36.6606573 L15.5690557,29.1981318 C15.5690557,28.8814183 15.6042456,28.6328898 15.6746264,28.4525391 C15.7582035,28.2545931 15.8967636,28.0929397 16.0903108,27.9675739 C16.283858,27.8422081 16.4927978,27.7795262 16.7171365,27.7795262 C16.8930885,27.7795262 17.0437451,27.8081179 17.1691109,27.8653023 C17.2944767,27.9224867 17.404445,27.9994645 17.4990192,28.0962381 C17.5935934,28.1930117 17.6903655,28.3183756 17.7893385,28.4723336 C17.8883115,28.6262915 17.990582,28.7868453 18.0961532,28.9539997 Z" id="Shape"></path>
                            <path d="M17.8037391,20.6363652 C17.3497739,22.1948696 18.2445565,23.8265391 19.8028174,24.2812348 C21.3613217,24.7350783 22.9928696,23.8405391 23.447687,22.2820348 C23.6989565,21.4196348 23.5369217,20.535687 23.0779652,19.840313 L24.2052696,9.18168696 L19.4272522,18.7757043 C18.6669913,19.1162087 18.0553739,19.7745739 17.8037391,20.6363652 L17.8037391,20.6363652 Z" id="Shape"></path>
                        </g>
                    </g>
                </g>
            </g>
        </g>
    </g>
</svg>