<?xml version="1.0" encoding="UTF-8" standalone="no"?>
<svg width="53px" height="53px" viewBox="0 0 53 53" version="1.1" xmlns="http://www.w3.org/2000/svg" xmlns:xlink="http://www.w3.org/1999/xlink">
    <!-- Generator: Sketch 3.6.1 (26313) - http://www.bohemiancoding.com/sketch -->
    <title>plug n play</title>
    <desc>Created with Sketch.</desc>
    <defs></defs>
    <g id="Page-1" stroke="none" stroke-width="1" fill="none" fill-rule="evenodd">
        <g id="28-getstarted-copy" transform="translate(-713.000000, -1053.000000)">
            <g id="plug-n-play" transform="translate(713.000000, 1053.000000)">
                <circle id="Oval-3" fill="#BCC4CE" cx="26.5" cy="26.5" r="26.5"></circle>
                <g id="technology" transform="translate(8.000000, 8.000000)" fill="#FFFFFF">
                    <g id="Capa_1">
                        <g id="Group">
                            <path d="M15.6143462,7.82653846 L15.1006154,7.82653846 C14.4984615,7.82653846 14.0110385,8.27376923 14.0110385,8.82623077 L14.0110385,13.0603077 L16.7046538,13.0603077 L16.7046538,8.82623077 C16.7039231,8.2745 16.2165,7.82653846 15.6143462,7.82653846 L15.6143462,7.82653846 Z" id="Shape"></path>
                            <path d="M22.8358077,7.82653846 L22.3213462,7.82653846 C21.7206538,7.82653846 21.2325,8.27376923 21.2325,8.82623077 L21.2325,13.0603077 L23.9268462,13.0603077 L23.9268462,8.82623077 C23.9253846,8.2745 23.4379615,7.82653846 22.8358077,7.82653846 L22.8358077,7.82653846 Z" id="Shape"></path>
                            <path d="M18.9685769,0.421653846 C8.50907692,0.421653846 0,8.93073077 0,19.3902308 C0,24.4398462 1.96138462,29.1920385 5.52315385,32.7713462 C7.63215385,34.8905769 10.2424615,36.5011923 13.0712692,37.4234231 C13.2598077,37.4855385 13.4512692,37.5147692 13.6390769,37.5147692 C14.4078462,37.5147692 15.1232692,37.0251538 15.3753846,36.2541923 C15.6888846,35.2946923 15.1649231,34.2628462 14.2061538,33.9508077 C11.9239615,33.2046923 9.81715385,31.9053846 8.11373077,30.1931923 C5.23815385,27.3037308 3.65457692,23.4671923 3.65457692,19.3902308 C3.65457692,10.9454615 10.5245385,4.0755 18.9693077,4.0755 C27.4140769,4.0755 34.2840385,10.9454615 34.2840385,19.3902308 C34.2840385,23.4825385 32.6916923,27.3256538 29.8015,30.2173077 C28.6914615,31.2126154 25.9386538,33.2163846 24.2849231,33.2163846 C23.4357692,33.2163846 22.8014615,32.9489231 22.2855385,32.376 C20.9781923,30.9195769 20.691,27.9709231 20.7034231,25.916 C23.8742308,25.7559615 26.3983077,23.142 26.3983077,19.9324615 L26.3983077,14.2470769 L11.5388462,14.2470769 L11.5388462,19.9324615 C11.5388462,23.0798846 13.9635385,25.6558462 17.0466538,25.9079615 C17.0276538,28.3560385 17.3711154,32.3679615 19.5597692,34.8123846 C20.767,36.1606538 22.4024615,36.8716923 24.2849231,36.8716923 C27.8189231,36.8716923 31.8425385,33.3018846 32.2883077,32.8963077 L32.3467692,32.8407692 C35.9523846,29.2548846 37.9356923,24.4793077 37.9356923,19.3931538 C37.9371538,8.93073077 29.4280769,0.421653846 18.9685769,0.421653846 L18.9685769,0.421653846 Z" id="Shape"></path>
                        </g>
                    </g>
                </g>
            </g>
        </g>
    </g>
</svg>