<?xml version="1.0" encoding="UTF-8" standalone="no"?>
<svg width="53px" height="53px" viewBox="0 0 53 53" version="1.1" xmlns="http://www.w3.org/2000/svg" xmlns:xlink="http://www.w3.org/1999/xlink">
    <!-- Generator: Sketch 3.6.1 (26313) - http://www.bohemiancoding.com/sketch -->
    <title>Premium Fuel</title>
    <desc>Created with Sketch.</desc>
    <defs></defs>
    <g id="Page-1" stroke="none" stroke-width="1" fill="none" fill-rule="evenodd">
        <g id="28-getstarted-copy" transform="translate(-225.000000, -1053.000000)">
            <g id="Premium-Fuel" transform="translate(225.000000, 1053.000000)">
                <circle id="Oval-3" fill="#BCC4CE" cx="26.5" cy="26.5" r="26.5"></circle>
                <g id="Group-3" transform="translate(14.000000, 11.000000)">
                    <g id="transport-(2)" fill="#FFFFFF">
                        <g id="Capa_1">
                            <path d="M25.5494378,8.49511111 L25.1948353,8.49511111 L24.2943896,5.95273203 C24.2086627,5.71084967 24.0153333,5.52256209 23.7714137,5.44381699 L22.6111245,5.06854902 C22.1779478,4.9284183 21.7142289,5.16637908 21.5746225,5.59973856 C21.4348594,6.03320261 21.6724096,6.49798693 22.105012,6.63780392 L22.8782771,6.88794771 L23.4474578,8.49505882 L23.2028594,8.49505882 C23.0409598,8.49505882 22.893992,8.59011765 22.8274779,8.73814379 L22.159988,10.2226405 C22.1329438,10.2828235 22.1206747,10.3487582 22.1243815,10.4146405 L22.3754538,14.9498562 C22.3876185,15.1683137 22.5679478,15.3392941 22.786494,15.3392941 L23.0431004,15.3392941 L23.0431004,25.1709281 C23.0431004,26.2680261 22.4210843,27.2216993 21.5119719,27.6986144 L21.5119719,21.5660654 C21.5119719,20.9623529 21.2945221,20.4087843 20.93449,19.9787712 L20.93449,3.07278431 C20.9345422,1.37845752 19.5582651,0 17.86649,0 L3.68469076,0 C1.99291566,0 0.616638554,1.37845752 0.616638554,3.07278431 L0.616638554,19.9785098 C0.256502008,20.4084706 0.039,20.9621438 0.039,21.5659608 L0.039,29.5261176 C0.039,30.8902484 1.14713253,32 2.50926104,32 L19.0418153,32 C20.2728474,32 21.2961406,31.0935425 21.4817952,29.9121046 C23.5648755,29.3444183 25.1015904,27.4345621 25.1015904,25.1709281 L25.1015904,15.3393987 L25.5493855,15.3393987 C25.7767028,15.3393987 25.9610522,15.1548235 25.9610522,14.9271111 L25.9610522,8.90750327 C25.9611044,8.67979085 25.7768072,8.49511111 25.5494378,8.49511111 L25.5494378,8.49511111 Z M17.6412088,8.82332026 L3.91007631,8.82332026 L3.91007631,3.29840523 L17.6412088,3.29840523 L17.6412088,8.82332026 L17.6412088,8.82332026 Z" id="Shape"></path>
                        </g>
                    </g>
                    <g id="signs" transform="translate(6.000000, 15.000000)" fill="#BCC4CE">
                        <g id="Capa_1">
                            <g id="Layer_5_21_">
                                <g id="Group">
                                    <path d="M9.92666667,10.1696604 C9.92666667,10.1696604 8.63512579,7.88649057 8.40345912,7.4770027 C8.66704403,7.3942965 8.94783019,7.32126146 9.06449686,7.1140593 C9.25893082,6.76880863 8.91283019,6.20244744 9.00371069,5.83238814 C9.09732704,5.45152561 9.64996855,5.12196226 9.64996855,4.7348248 C9.64996855,4.3576496 9.07861635,3.91701348 8.98493711,3.53838275 C8.89342767,3.16838814 9.23849057,2.6014124 9.04342767,2.25658221 C8.84836478,1.91171968 8.1986478,1.94005391 7.93119497,1.67534232 C7.65600629,1.40293261 7.65685535,0.736431267 7.32493711,0.553876011 C6.99166667,0.370641509 6.45003145,0.740959569 6.08,0.653239892 C5.71418239,0.566522911 5.38735849,0 5.00525157,0 C4.61748428,0 4.00072327,0.642630728 3.90399371,0.665757412 C3.53415094,0.754188679 2.9918239,0.38477628 2.65889937,0.568787062 C2.3272956,0.751956873 2.32933962,1.41852291 2.05465409,1.69138544 C1.78764151,1.95658221 1.13789308,1.92947709 0.943427673,2.27472776 C0.748993711,2.61991375 1.09509434,3.18614555 1.00424528,3.55639892 C0.913144654,3.9275903 0.341257862,4.30369811 0.341257862,4.73298113 C0.341257862,5.12015094 0.895283019,5.44867925 0.989465409,5.82934771 C1.08100629,6.19934232 0.735943396,6.76625337 0.931006289,7.11121294 C1.03720126,7.29897574 1.27814465,7.37605391 1.51877358,7.45015633 C1.54685535,7.45879245 1.59996855,7.49110512 1.56399371,7.54502426 C1.39937107,7.8372938 0.0743710692,10.1893908 0.0743710692,10.1893908 C-0.0310377358,10.3764744 0.0545597484,10.536841 0.264528302,10.5459299 L1.2922956,10.5900162 C1.50226415,10.5991051 1.76566038,10.7560431 1.87773585,10.9388895 L2.42616352,11.8340054 C2.53823899,12.0168518 2.71606918,12.0134232 2.82144654,11.826372 C2.82144654,11.826372 4.3559434,9.10143396 4.35657233,9.10065768 C4.38735849,9.06365499 4.41830189,9.07125606 4.43311321,9.08419407 C4.60100629,9.2312345 4.83506289,9.37791914 5.03040881,9.37791914 C5.22198113,9.37791914 5.39937107,9.23983827 5.57484277,9.08584367 C5.5891195,9.07332615 5.62386792,9.04767655 5.64927673,9.10091644 C5.64968553,9.10175741 7.18248428,11.8117844 7.18248428,11.8117844 C7.28814465,11.9986092 7.46600629,12.001779 7.57773585,11.8187062 L8.12462264,10.9225229 C8.23638365,10.7395472 8.49949686,10.5819946 8.70946541,10.5725822 L9.73713836,10.5265229 C9.94701258,10.5170458 10.032327,10.3564528 9.92666667,10.1696604 L9.92666667,10.1696604 Z M6.70377358,7.71852291 C5.56742138,8.39851213 4.20342767,8.32563881 3.16160377,7.64972507 C1.63503145,6.64395687 1.13273585,4.56339623 2.05044025,2.93421024 C2.97861635,1.28623181 5.01896226,0.704733154 6.63559748,1.61036119 C6.64408805,1.6151159 6.65248428,1.62003235 6.66091195,1.6248841 C6.67289308,1.63170889 6.68484277,1.63863073 6.69676101,1.64561725 C7.19550314,1.94138005 7.62798742,2.37063073 7.93767296,2.91813477 C8.88415094,4.59153639 8.33066038,6.7450027 6.70377358,7.71852291 L6.70377358,7.71852291 Z" id="Shape"></path>
                                    <path d="M6.44389937,2.13810243 C6.43918239,2.13528841 6.43440252,2.13266846 6.42968553,2.12988679 C5.56610063,1.61579515 4.46540881,1.57821024 3.54292453,2.13024259 C2.17399371,2.9494124 1.7081761,4.76134771 2.50459119,6.16935849 C2.74761006,6.59902965 3.08062893,6.94201617 3.46484277,7.18816173 C3.49751572,7.20944474 3.53056604,7.23037197 3.56433962,7.25049057 C4.93474843,8.06710512 6.69540881,7.58471159 7.48930818,6.17521294 C8.2831761,4.7656496 7.81430818,2.95471698 6.44389937,2.13810243 L6.44389937,2.13810243 Z M6.78672956,4.44239353 L6.30688679,4.92346092 C6.15827044,5.07244205 6.06537736,5.36652291 6.10050314,5.57692722 L6.21377358,6.25620485 C6.24886792,6.46660916 6.1272956,6.55746631 5.94358491,6.45813477 L5.3504717,6.13740162 C5.16676101,6.03807008 4.86616352,6.03807008 4.68245283,6.13740162 L4.08937107,6.45813477 C3.90566038,6.55746631 3.7840566,6.46660916 3.81915094,6.25620485 L3.93242138,5.57692722 C3.96751572,5.36652291 3.87462264,5.07244205 3.72600629,4.92346092 L3.24619497,4.44239353 C3.09754717,4.2934124 3.14402516,4.14637197 3.34940252,4.1156442 L4.01248428,4.01653908 C4.21786164,3.98584367 4.46106918,3.80409704 4.55292453,3.61267925 L4.84946541,2.99466307 C4.94132075,2.80324528 5.09163522,2.80324528 5.18345912,2.99466307 L5.48003145,3.61267925 C5.57188679,3.80409704 5.81506289,3.98584367 6.0204717,4.01653908 L6.68355346,4.1156442 C6.88889937,4.14637197 6.93534591,4.2934124 6.78672956,4.44239353 L6.78672956,4.44239353 Z" id="Shape"></path>
                                </g>
                            </g>
                        </g>
                    </g>
                </g>
            </g>
        </g>
    </g>
</svg>