<?xml version="1.0" encoding="UTF-8" standalone="no"?>
<svg width="185px" height="185px" viewBox="0 0 185 185" version="1.1" xmlns="http://www.w3.org/2000/svg" xmlns:xlink="http://www.w3.org/1999/xlink">
    <!-- Generator: Sketch 3.6.1 (26313) - http://www.bohemiancoding.com/sketch -->
    <title>bajaj</title>
    <desc>Created with Sketch.</desc>
    <defs></defs>
    <g id="Page-1" stroke="none" stroke-width="1" fill="none" fill-rule="evenodd">
        <g id="28-getstarted-copy" transform="translate(-317.000000, -463.000000)">
            <g id="bajaj" transform="translate(312.000000, 463.000000)">
                <path d="M97.5,5 C49.252,5 10,44.252 10,92.5 C10,140.748 49.252,180 97.5,180 C145.748,180 185,140.748 185,92.5 C185,44.252 145.748,5 97.5,5 M5,92.5 C5,41.495 46.495,0 97.5,0 C148.505,0 190,41.495 190,92.5 C190,143.505 148.505,185 97.5,185 C46.495,185 5,143.505 5,92.5 Z" id="Fill-1" fill="#BCC4CE"></path>
                <g id="Bajaj_Auto_Logo" transform="translate(0.000000, 59.000000)">
                    <g id="svg2">
                        <g id="#ffffffff" transform="translate(0.000000, 40.000000)"></g>
                        <g id="#0a51a1ff" transform="translate(49.506112, 0.528090)" fill="#575D63">
                            <path d="M46.8225923,0.376053522 C47.6726227,-0.0664519983 48.7140213,-0.156759247 49.577403,0.312838448 C55.652228,3.15751679 61.7626564,5.92543397 67.8107789,8.81978131 C69.1548061,9.27131755 69.3906784,11.3845072 68.0733537,12.0076272 C63.2134937,14.4368922 58.2156707,16.5816894 53.3246577,18.9432239 C58.028753,21.1331747 62.7328482,23.3276409 67.4458443,25.4995302 C68.2291185,25.8426977 69.0969506,26.5019407 68.9545371,27.4862897 C68.932285,28.574492 67.833031,29.0531205 67.0186039,29.4595031 C61.2152546,32.1506591 55.4163557,34.8418151 49.6174568,37.5420019 C48.7229222,38.0025688 47.632569,37.9438691 46.755836,37.4787868 C42.941825,35.6681264 39.096661,33.9297119 35.2871004,32.1190516 C39.4882981,30.1774457 43.6761445,28.2087477 47.8817925,26.2806879 C48.3045826,25.9465511 49.270324,25.8878514 49.1501626,25.160878 C48.27788,24.2803823 46.9917083,23.9778531 45.9236072,23.3998867 C45.4207096,23.241849 44.8733078,22.7270977 44.3437077,23.1063881 C39.5550544,25.3008543 34.7975541,27.5630508 30,29.7349402 C30.0267025,27.0979685 29.9821983,24.4609968 30.0311529,21.8240252 C32.1184005,20.8848298 34.1967472,19.9230576 36.2572923,18.9206471 C34.1744951,17.9543595 32.1005988,16.9790413 30.0133513,16.0217844 C30.0044504,13.3848127 30.0133513,10.7478411 30.0044504,8.1108694 C34.9088146,10.4091889 39.8398814,12.6488087 44.7353447,14.9742203 C46.186182,14.3240081 47.6637219,13.7099188 49.070055,12.9603687 C49.3771341,12.2379107 48.6294633,11.930866 48.1265657,11.7096133 C43.8408101,9.72736916 39.5550544,7.74512504 35.28265,5.74030411 C39.127814,3.94770522 42.9774283,2.16865242 46.8225923,0.376053522 L46.8225923,0.376053522 Z" id="path6"></path>
                            <path d="M0.662493888,49.0224719 C5.28625917,49.0301124 9.90625917,49.007191 14.5262592,49.0301124 C16.585868,49.1408989 18.8563325,49.16 20.5808313,50.4779775 C21.8723227,51.4024719 22.1810758,53.2705618 21.5936919,54.6916854 C21.0514914,55.8797753 19.8503667,56.521573 18.7057213,56.9761798 C19.880489,57.4498876 21.1230318,58.1298876 21.6313447,59.3791011 C22.1735452,60.9148315 21.8497311,62.8822472 20.4490465,63.8373034 C18.7320782,65.0559551 16.533154,65.0674157 14.5224939,65.1629213 C9.89872861,65.1438202 5.27496333,65.2049438 0.651198044,65.1285393 C0.688850856,59.7611236 0.658728606,54.3898876 0.662493888,49.0224719 L0.662493888,49.0224719 Z M5.85105134,52.5523596 C5.83599022,54.4051685 5.84352078,56.2579775 5.84728606,58.1069663 C6.64929095,56.9991011 7.05594132,55.1883146 8.61100244,54.9667416 C10.6819071,54.8674157 12.7641076,55.0240449 14.8387775,54.9132584 C15.5353545,54.8635955 16.2884108,54.3937079 16.2394621,53.5991011 C16.0737897,52.968764 15.4826406,52.56 14.8538386,52.5714607 C11.8529095,52.525618 8.85198044,52.5752809 5.85105134,52.5523596 L5.85105134,52.5523596 Z M5.84728606,58.3820225 C5.8397555,60.5251685 5.83599022,62.6721348 5.85481663,64.8152809 C6.63046455,63.8182022 6.93168704,62.2404494 8.2194132,61.7934831 C10.2940831,61.5986517 12.3875795,61.8316854 14.4660147,61.6903371 C15.4449878,61.7017978 16.4540831,60.7391011 16.1754523,59.7076404 C16.0060147,58.7755056 14.9442054,58.3438202 14.1007824,58.3858427 C11.3483619,58.3705618 8.5997066,58.3858427 5.84728606,58.3820225 L5.84728606,58.3820225 Z" id="path8"></path>
                            <path d="M30.7470905,49.0224719 C32.9460147,49.041573 35.1449389,48.9804494 37.3438631,49.0568539 C40.45022,54.4586517 43.6996577,59.7764045 46.851198,65.1514607 C44.8292421,65.1705618 42.8110513,65.1552809 40.7890954,65.1629213 C40.2732518,64.2575281 39.7611736,63.3444944 39.2603912,62.4276404 L39.0457702,62.2901124 C36.1502689,62.301573 33.2547677,62.301573 30.3592665,62.2901124 C31.1913936,61.1555056 31.5453301,59.4364045 32.9799022,58.9168539 C34.3956479,58.7793258 35.8189242,58.8977528 37.2384352,58.8557303 C36.1502689,56.9494382 35.1637653,54.9820225 33.981467,53.1330337 C31.7411247,57.1519101 29.4970171,61.1669663 27.2340831,65.1705618 C25.223423,65.1476404 23.2127628,65.1782022 21.2021027,65.1514607 C24.353643,59.7573034 27.580489,54.4089888 30.7470905,49.0224719 L30.7470905,49.0224719 Z" id="path10"></path>
                            <path d="M57.898533,49.0224719 L63.0720293,49.0224719 C63.0833252,52.7089888 63.0644988,56.3955056 63.0833252,60.0858427 C63.0870905,61.4076404 62.906357,62.9051685 61.8897311,63.848764 C60.6208313,65.1132584 58.7193643,65.1705618 57.0475795,65.1667416 C54.4231785,65.1208989 51.7950122,65.2278652 49.1706112,65.1208989 C47.6080196,64.7579775 47.2013692,62.9013483 46.3692421,61.7323596 C49.5433741,61.6979775 52.7212714,61.7667416 55.8954034,61.7017978 C56.7990709,61.7170787 57.9663081,61.1631461 57.8910024,60.0896629 C57.9098289,56.4031461 57.8947677,52.712809 57.898533,49.0224719 L57.898533,49.0224719 Z" id="path12"></path>
                            <path d="M71.9129095,49.0453933 C74.1080685,48.9957303 76.2994621,49.0301124 78.494621,49.0224719 C81.6499267,54.4204494 84.8880685,59.7649438 88.0396088,65.1591011 C86.0138875,65.1552809 83.984401,65.1782022 81.962445,65.1438202 C81.4390709,64.188764 80.904401,63.2451685 80.3734963,62.2977528 C77.436577,62.2939326 74.4996577,62.3053933 71.5627384,62.2939326 C72.3496822,61.1746067 72.722445,59.6006742 74.0064059,58.9474157 C75.4711002,58.7525843 76.9583863,58.9092135 78.4343765,58.8519101 C77.3725672,56.9265169 76.2881663,55.0125843 75.2225917,53.0910112 C72.937066,57.1022472 70.7155501,61.1478652 68.4337897,65.1629213 C66.4118337,65.1591011 64.393643,65.1667416 62.3754523,65.1591011 C65.5533496,59.7878652 68.7613692,54.4319101 71.9129095,49.0453933 L71.9129095,49.0453933 Z" id="path14"></path>
                            <path d="M99.1283619,49.0262921 C100.822738,49.0186517 102.517115,49.0224719 104.211491,49.0262921 C104.207726,52.9764045 104.211491,56.9265169 104.215257,60.8804494 C104.237848,62.1716854 103.706944,63.5355056 102.615012,64.2651685 C101.17291,65.2278652 99.3693399,65.1667416 97.7126161,65.1667416 C95.3254279,65.1323596 92.9382396,65.2125843 90.5548166,65.1323596 C88.8001956,64.987191 88.4424939,62.9051685 87.546357,61.7094382 C90.6903667,61.7247191 93.8381418,61.7514607 96.9859169,61.705618 C97.9197066,61.7285393 99.1283619,61.1860674 99.117066,60.0896629 C99.1547188,56.3993258 99.117066,52.712809 99.1283619,49.0262921 L99.1283619,49.0262921 Z" id="path16"></path>
                        </g>
                    </g>
                </g>
            </g>
        </g>
    </g>
</svg>