<?xml version="1.0" encoding="UTF-8" standalone="no"?>
<svg width="185px" height="185px" viewBox="0 0 185 185" version="1.1" xmlns="http://www.w3.org/2000/svg" xmlns:xlink="http://www.w3.org/1999/xlink">
    <!-- Generator: Sketch 3.6.1 (26313) - http://www.bohemiancoding.com/sketch -->
    <title>hero</title>
    <desc>Created with Sketch.</desc>
    <defs></defs>
    <g id="Page-1" stroke="none" stroke-width="1" fill="none" fill-rule="evenodd">
        <g id="28-getstarted-copy" transform="translate(-311.000000, -203.000000)">
            <g id="hero" transform="translate(311.000000, 203.000000)">
                <path d="M92.5,5 C44.252,5 5,44.252 5,92.5 C5,140.748 44.252,180 92.5,180 C140.748,180 180,140.748 180,92.5 C180,44.252 140.748,5 92.5,5 M0,92.5 C0,41.495 41.495,0 92.5,0 C143.505,0 185,41.495 185,92.5 C185,143.505 143.505,185 92.5,185 C41.495,185 0,143.505 0,92.5 Z" id="Fill-1" fill="#BCC4CE"></path>
                <g id="Hero_MotoCorp" transform="translate(55.000000, 50.000000)" fill="#575D63">
                    <g id="Layer_1">
                        <g id="Layer_x0020_1">
                            <g id="_229987144">
                                <path d="M4.88832237,84.0493421 L0.305921053,84.0493421 L0.305921053,65.1261513 L4.88832237,65.1261513 L4.88832237,72.0740132 L14.053125,72.0740132 L14.053125,65.1261513 L18.6355263,65.1261513 L18.6355263,84.0493421 L14.053125,84.0493421 L14.053125,76.0648026 L4.88832237,76.0648026 L4.88832237,84.0493421 Z" id="Shape"></path>
                                <path d="M43.1768092,74.2909539 L43.1768092,83.9013158 L48.7944079,83.9013158 L48.7944079,74.2909539 C48.7944079,72.9606908 49.3860197,71.6304276 50.4192434,70.7442434 C51.4549342,69.7085526 52.7847039,69.2654605 54.4120066,69.2654605 L54.4120066,64.0909539 C51.3064145,64.0909539 48.6458882,65.1261513 46.4289474,67.0480263 C44.2120066,68.9699013 43.1768092,71.4824013 43.1768092,74.2909539 L43.1768092,74.2909539 Z" id="Shape"></path>
                                <path d="M69.9350329,74.2909539 C69.9350329,75.6231908 69.4919408,76.8029605 68.6047697,77.6921053 C67.7161184,78.5787829 66.534375,79.1703947 65.3506579,79.1703947 C64.0203947,79.1703947 62.9871711,78.7253289 62.0980263,77.6921053 C61.2113487,76.8029605 60.7682566,75.6236842 60.7682566,74.2909539 C60.7682566,72.9606908 61.2113487,71.7789474 62.0980263,70.8922697 C62.9871711,70.0050987 64.1684211,69.5600329 65.3506579,69.5600329 C66.6828947,69.5600329 67.7161184,70.0050987 68.6047697,71.0388158 C69.4919408,71.9254934 69.9350329,73.1067434 69.9350329,74.4394737 L69.9350329,74.2909539 L69.9350329,74.2909539 Z M65.3506579,64.6805921 C62.6901316,64.6805921 60.4731908,65.5692434 58.6998355,67.4891447 C56.9240132,69.4115132 55.8912829,71.6304276 55.8912829,74.2904605 C55.8912829,76.9504934 56.7779605,79.3179276 58.6998355,81.0917763 C60.4736842,83.0141447 62.690625,83.9003289 65.3506579,83.9003289 C68.0131579,83.9003289 70.2300987,83.0136513 72.0034539,81.0917763 C73.7768092,79.1699013 74.8120066,76.9504934 74.8120066,74.2904605 C74.8120066,71.6304276 73.9253289,69.2644737 72.0034539,67.4891447 C70.2300987,65.5692434 68.0131579,64.6805921 65.3506579,64.6805921 L65.3506579,64.6805921 Z" id="Shape"></path>
                                <path d="M20.8544408,44.5771382 L33.5664474,52.7072368 L33.5664474,16.1930921 L20.8544408,7.47088816 L20.8544408,44.5771382 Z" id="Shape"></path>
                                <path d="M41.4034539,25.0628289 L54.2634868,17.5233553 L54.2634868,8.80065789 L41.4034539,0.226480263 L41.4034539,25.0628289 Z" id="Shape"></path>
                                <path d="M42.2901316,35.5588816 L42.2901316,37.0376645 L54.5605263,45.1672697 L54.5605263,27.4282895 L42.2901316,35.5588816 Z" id="Shape"></path>
                                <path d="M40.0731908,75.1776316 L28.2458882,75.1776316 L28.2458882,76.2133224 C28.2458882,77.8381579 28.5409539,79.021875 29.1325658,79.6120066 C29.7241776,80.2060855 30.4628289,80.5011513 31.3495066,80.5011513 C33.2713816,80.5011513 34.3065789,79.4654605 34.6016447,77.2485197 L40.2192434,77.5435855 C39.1840461,81.8309211 36.2289474,84.0503289 31.3495066,84.0503289 C28.2453947,84.0503289 26.0284539,83.1616776 24.4016447,81.534375 C22.7743421,79.7605263 22.0361842,77.5435855 22.0361842,74.7350329 C22.0361842,71.4828947 22.9228618,69.1174342 24.5501645,67.3440789 C26.175,65.7167763 28.5404605,64.8300987 31.3495066,64.8300987 C33.8634868,64.8300987 36.0804276,65.5702303 37.7072368,67.0490132 C39.4810855,68.5253289 40.2192434,71.3348684 40.2192434,75.3271382 L40.0731908,75.1776316 L40.0731908,75.1776316 Z M34.1585526,72.2205592 L34.1585526,71.7789474 C34.1585526,69.4115132 33.1233553,68.2297697 31.2009868,68.2297697 C29.2810855,68.2297697 28.2458882,69.5600329 28.2458882,72.3690789 L34.0100329,72.3690789 L34.1585526,72.2205592 L34.1585526,72.2205592 Z" id="Shape"></path>
                            </g>
                        </g>
                    </g>
                </g>
            </g>
        </g>
    </g>
</svg>