<?xml version="1.0" encoding="UTF-8" standalone="no"?>
<svg width="185px" height="185px" viewBox="0 0 185 185" version="1.1" xmlns="http://www.w3.org/2000/svg" xmlns:xlink="http://www.w3.org/1999/xlink">
    <!-- Generator: Sketch 3.6.1 (26313) - http://www.bohemiancoding.com/sketch -->
    <title>hero honda</title>
    <desc>Created with Sketch.</desc>
    <defs></defs>
    <g id="Page-1" stroke="none" stroke-width="1" fill="none" fill-rule="evenodd">
        <g id="28-getstarted-copy" transform="translate(-582.000000, -733.000000)">
            <g id="hero-honda" transform="translate(582.000000, 733.000000)">
                <g id="yamaha" fill="#BCC4CE">
                    <path d="M92.5,5 C44.252,5 5,44.252 5,92.5 C5,140.748 44.252,180 92.5,180 C140.748,180 180,140.748 180,92.5 C180,44.252 140.748,5 92.5,5 M0,92.5 C0,41.495 41.495,0 92.5,0 C143.505,0 185,41.495 185,92.5 C185,143.505 143.505,185 92.5,185 C41.495,185 0,143.505 0,92.5 Z" id="Fill-1"></path>
                </g>
                <g id="Hero_Honda_Logo" transform="translate(28.000000, 78.000000)">
                    <g id="svg11702">
                        <g id="layer1" transform="translate(0.413421, 0.049774)">
                            <g id="g2828" transform="translate(0.148271, 0.222716)">
                                <path d="M3.92109952,20.9917538 L1.72966,20.9917538 L0.0639243055,0.696623688 L2.38628591,0.696623688 L5.38743013,9.17204539 C5.38743013,9.17204539 6.06822695,11.0272998 8.66049214,11.135959 L14.8521125,11.135959 C14.8521125,11.135959 16.8421331,11.0272998 17.6095399,9.20021565 L20.6932662,0.672475277 L22.9028322,0.672475277 L21.0195649,20.9454766 L18.9953032,20.9519202 C18.942933,16.8369558 15.589304,13.5168132 11.4561865,13.5168132 C7.31702592,13.5168132 3.95534059,16.8510409 3.92109952,20.9821057" id="path2926" fill="#575D63"></path>
                                <path d="M113.031826,20.2150434 L114.588795,17.5126486 L116.115552,20.2150434 L113.031826,20.2150434 L113.031826,20.2150434 Z M123.872197,24.2213485 L118.60106,14.7921425 L109.263274,14.7921425 L109.263274,17.2933149 L111.672244,17.2933149 L107.698245,24.2213485 L105.387969,24.2213485 L105.387969,26.7285624 L113.084192,26.7285624 L113.084192,24.2213485 L110.713489,24.2213485 L111.555421,22.7504275 L117.624181,22.7504275 L118.379501,24.2213485 L116.08735,24.2213485 L116.08735,26.7285624 L126.021341,26.7285624 L126.021341,24.2213485 L123.872197,24.2213485 L123.872197,24.2213485 Z" id="path2928" fill="#575D63"></path>
                                <path d="M46.0196993,3.17767391 L46.0196993,0.670464351 L36.7383097,0.670464351 L36.7383097,3.17767391 L38.7968125,3.17767391 L38.7968125,5.43939915 L32.3312593,5.43939915 L32.3312593,3.17767391 L34.4441452,3.17767391 L34.4441452,0.670464351 L25.1647685,0.670464351 L25.1647685,3.17767391 L27.3481495,3.17767391 L27.3481495,9.9890003 L25.1647685,9.9890003 L25.1647685,12.500236 L34.4441452,12.500236 L34.4441452,9.9890003 L32.3312593,9.9890003 L32.3312593,7.94660871 L38.7968125,7.94660871 L38.7968125,9.9890003 L36.7383097,9.9890003 L36.7383097,12.500236 L46.0196993,12.500236 L46.0196993,9.9890003 L43.771862,9.9890003 L43.771862,3.17767391 L46.0196993,3.17767391 L46.0196993,3.17767391 Z" id="path2930" fill="#575D63"></path>
                                <path d="M46.0196993,17.2430115 L46.0196993,14.7297648 L36.7383097,14.7297648 L36.7383097,17.2430115 L38.7968125,17.2430115 L38.7968125,19.5047324 L32.3312593,19.5047324 L32.3312593,17.2430115 L34.4441452,17.2430115 L34.4441452,14.7297648 L25.1647685,14.7297648 L25.1647685,17.2430115 L27.3481495,17.2430115 L27.3481495,24.0563488 L25.1647685,24.0563488 L25.1647685,26.5615474 L34.4441452,26.5615474 L34.4441452,24.0563488 L32.3312593,24.0563488 L32.3312593,22.0139572 L38.7968125,22.0139572 L38.7968125,24.0563488 L36.7383097,24.0563488 L36.7383097,26.5615474 L46.0196993,26.5615474 L46.0196993,24.0563488 L43.771862,24.0563488 L43.771862,17.2430115 L46.0196993,17.2430115 L46.0196993,17.2430115 Z" id="path2932" fill="#575D63"></path>
                                <path d="M47.0892326,0.670464351 L47.0892326,3.17767391 L48.9805603,3.17767391 L48.9805603,9.9890003 L47.0892326,9.9890003 L47.0892326,12.500236 L65.4244105,12.500236 L65.4244105,11.5726067 L65.4244105,9.9890003 L65.4244105,8.91850438 L62.9469589,8.91850438 L62.9469589,9.9890003 L54.050277,9.9890003 L54.050277,8.00294923 L58.5399085,8.00294923 L58.5399085,9.03722686 L60.7535048,9.03722686 L60.7535048,4.29244047 L58.5399085,4.29244047 L58.5399085,5.46555848 L54.050277,5.46555848 L54.050277,3.17767391 L62.9469589,3.17767391 L62.9469589,4.24816983 L65.4244105,4.24816983 L65.4244105,3.17767391 L65.4244105,1.59406753 L65.4244105,0.670464351 L47.0892326,0.670464351 L47.0892326,0.670464351 Z" id="path2934" fill="#575D63"></path>
                                <path d="M79.3585853,5.52189901 L78.3474609,5.52189901 L73.6302237,5.52189901 L73.6302237,3.17767391 L80.8893688,3.17767391 C82.3597261,3.19376132 82.4141092,3.92621841 82.4141092,4.35682903 C82.4724402,5.48366547 81.1632973,5.52189901 81.1632973,5.52189901 L79.3585853,5.52189901 L79.3585853,5.52189901 Z M84.351764,10.041319 L83.2641015,7.97477897 L83.2359208,7.81179018 C86.5371795,6.69300177 85.9107671,3.64048529 85.9107671,3.64048529 C85.4716763,-0.0398466068 80.5328807,0.722783024 80.5328807,0.722783024 L66.4275006,0.722783024 L66.4275006,3.17767391 L68.6088686,3.17767391 L68.6088686,10.041319 L66.3711045,10.041319 L66.3711045,12.500236 L75.8096005,12.500236 L75.8096005,10.041319 L73.6302453,10.041319 L73.6302453,7.97477897 L78.3474825,7.97477897 L79.358607,7.97477897 L79.6063504,7.97477897 L80.663802,10.041319 L78.1057778,10.041319 L78.1057778,12.500236 L86.8393104,12.500236 L86.8393104,10.041319 L84.3517856,10.041319 L84.351764,10.041319 Z" id="path2936" fill="#575D63"></path>
                                <path d="M86.0195117,14.6774462 L79.0322866,14.6774462 L79.0322866,17.1886819 L81.1632973,17.1886819 L81.1632973,22.7584755 L74.5587669,14.6774462 L74.5023709,14.7197837 L74.5023709,14.6774462 L65.6077019,14.6774462 L65.6077019,17.1886819 L67.7346912,17.1886819 L67.7346912,24.1147046 L65.6641023,24.1147046 L65.6641023,26.6239251 L72.6452844,26.6239251 L72.6452844,24.1147046 L70.5203167,24.1147046 L70.5203167,18.4865552 L77.1208169,26.5615474 L81.1632973,26.5615474 L81.1632973,26.6238472 L83.944897,26.6238472 L83.944897,17.1885997 L86.0195117,17.1885997 L86.0195117,14.677364 L86.0195117,14.6774462 Z" id="path2938" fill="#575D63"></path>
                                <path d="M97.5346396,24.1931783 L96.0864373,24.1931783 L94.3119362,24.1931783 L94.3119362,17.2430115 L97.5628376,17.2430115 C97.5628376,17.2430115 100.318252,17.106182 100.833885,20.2432136 C100.833885,20.2432136 101.323334,23.9517158 97.5346396,24.1931783 M100.559957,14.7619569 L96.0864373,14.7619569 L95.1317132,14.7619569 L87.2743537,14.7619569 L87.2743537,17.2671599 L89.3167446,17.2671599 L89.3167446,24.1388487 L87.2743537,24.1388487 L87.2743537,26.6460626 L95.8648789,26.6460626 L96.0864373,26.6460626 L100.588155,26.6460626 C100.588155,26.6460626 105.52695,26.1852664 105.557161,20.269373 C105.557161,20.269373 105.500765,15.7700752 100.559957,14.7619569" id="path2940" fill="#575D63"></path>
                                <path d="M1.99150459,24.2877523 L2.08233059,25.1872114" id="path2942" fill="#E2001A"></path>
                                <path d="M18.0546738,20.9032168 C18.0546738,17.2410006 15.0777009,14.2750058 11.4179153,14.2750058 C7.75209092,14.2750058 4.77914472,17.2410006 4.77914472,20.9032168 L18.0546738,20.9032168 L18.0546738,20.9032168 Z" id="path2944" fill="#575D63"></path>
                                <path d="M2.21709392,26.6460626 L20.4777466,26.6460626 L20.4922482,26.6430354 L20.5346274,26.1661432 L20.5315972,26.1278275 L2.14203456,26.1278275 L2.14848019,26.1460339 L2.1968207,26.6470745 L2.21889774,26.6470745 L2.21709392,26.6460626 Z" id="path2946" fill="#575D63"></path>
                                <path d="M2.00157562,24.2756781 L20.6932662,24.2756781 L20.7077678,24.2756781 L20.6292947,25.1610521 L20.6163948,25.1771395 L2.05562803,25.1771395" id="path2948" fill="#575D63"></path>
                                <path d="M20.7778602,23.2414048 L1.89079517,23.2414048 L1.90690708,23.2510486 L1.79814083,21.9209789 L1.81264242,21.9064916 L20.9393949,21.9064916 L20.9313433,21.8952045 L20.8064651,23.2433855 L20.7782844,23.2416556 L20.7778602,23.2414048 Z" id="path2950" fill="#575D63"></path>
                                <path d="M55.7361539,24.4849485 C53.609169,24.4849485 51.8850209,22.7604865 51.8850209,20.6396169 C51.8850209,18.5107036 53.609169,16.7902634 55.7361539,16.7902634 C57.8631388,16.7902634 59.5893042,18.5107036 59.5893042,20.6396169 C59.5893042,22.7604865 57.8631388,24.4849485 55.7361539,24.4849485 M55.7391841,14.305187 C48.7861957,14.2588276 46.5786425,17.1464265 46.5786425,20.6537063 C46.5786425,24.1509229 49.1487527,27.2034437 55.7391841,27.0424658 C60.9096111,26.9157775 64.6419047,25.9317254 64.9037515,20.6537063 C65.0648879,17.3194743 62.651884,14.3655537 55.7391841,14.305187" id="path2952" fill="#575D63"></path>
                                <path d="M96.1206783,10.5282744 C93.9916805,10.5282744 92.2655195,8.80380808 92.2655195,6.67891663 C92.2655195,4.55201426 93.9916805,2.82755224 96.1206783,2.82755224 C98.2516934,2.82755224 99.9738243,4.55201426 99.9738243,6.67891663 C99.9738243,8.80380808 98.2516934,10.5282744 96.1206783,10.5282744 M96.1237085,0.352534788 C89.1687072,0.296194264 86.9631669,3.19176337 86.9631669,6.69300177 C86.9631669,10.1922336 89.5352901,13.2528024 96.1237085,13.0878027 C101.284062,12.9630431 105.028442,11.9670033 105.288276,6.69300177 C105.445382,3.36078494 103.032383,0.408875313 96.1237085,0.352534788" id="path2954" fill="#575D63"></path>
                            </g>
                        </g>
                    </g>
                </g>
            </g>
        </g>
    </g>
</svg>