<?xml version="1.0" encoding="UTF-8" standalone="no"?>
<svg width="185px" height="185px" viewBox="0 0 185 185" version="1.1" xmlns="http://www.w3.org/2000/svg" xmlns:xlink="http://www.w3.org/1999/xlink">
    <!-- Generator: Sketch 3.6.1 (26313) - http://www.bohemiancoding.com/sketch -->
    <title>ktm</title>
    <desc>Created with Sketch.</desc>
    <defs></defs>
    <g id="Page-1" stroke="none" stroke-width="1" fill="none" fill-rule="evenodd">
        <g id="28-getstarted-copy" transform="translate(-77.000000, -203.000000)">
            <g id="ktm" transform="translate(77.000000, 203.000000)">
                <path d="M92.5,5 C44.252,5 5,44.252 5,92.5 C5,140.748 44.252,180 92.5,180 C140.748,180 180,140.748 180,92.5 C180,44.252 140.748,5 92.5,5 M0,92.5 C0,41.495 41.495,0 92.5,0 C143.505,0 185,41.495 185,92.5 C185,143.505 143.505,185 92.5,185 C41.495,185 0,143.505 0,92.5 Z" id="Fill-1" fill="#BCC4CE"></path>
                <path d="M23,113.798023 L42.2851395,113.798023 L47.1329478,101.992823 L56.0501155,113.798023 L97.5929264,113.798023 L110.437917,101.874723 L108.297115,113.798023 L124.574416,113.798023 L138.003331,101.998118 L136.163186,113.798023 L153.714449,113.798023 L161.003873,80.8802654 L143.364198,80.8802654 L129.068442,93.4311008 L131.828436,80.8802654 L114.914222,80.8802654 L96.4605203,99.3046207 L104.174611,76.7501225 L132.39462,76.7501225 L133.686284,71 L59.6948469,71 L57.5187576,76.7501225 L84.7302143,76.7501225 L73.2652983,105.703427 L64.2242767,93.8682727 L79.846983,80.8802654 L66.772025,80.8802654 L50.7423731,93.6514523 L56.1386827,80.8802654 L37.0303855,80.8802654 L23,113.798023" id="path10993" fill="#575C63"></path>
            </g>
        </g>
    </g>
</svg>