<?xml version="1.0" encoding="UTF-8" standalone="no"?>
<svg width="185px" height="185px" viewBox="0 0 185 185" version="1.1" xmlns="http://www.w3.org/2000/svg" xmlns:xlink="http://www.w3.org/1999/xlink">
    <!-- Generator: Sketch 3.6.1 (26313) - http://www.bohemiancoding.com/sketch -->
    <title>mahindra</title>
    <desc>Created with Sketch.</desc>
    <defs></defs>
    <g id="Page-1" stroke="none" stroke-width="1" fill="none" fill-rule="evenodd">
        <g id="28-getstarted-copy" transform="translate(-77.000000, -463.000000)">
            <g id="mahindra" transform="translate(77.000000, 463.000000)">
                <path d="M92.5,5 C44.252,5 5,44.252 5,92.5 C5,140.748 44.252,180 92.5,180 C140.748,180 180,140.748 180,92.5 C180,44.252 140.748,5 92.5,5 M0,92.5 C0,41.495 41.495,0 92.5,0 C143.505,0 185,41.495 185,92.5 C185,143.505 143.505,185 92.5,185 C41.495,185 0,143.505 0,92.5 Z" id="Fill-1" fill="#BCC4CE"></path>
                <g id="Mahindra_&amp;_Mahindra_Logo" transform="translate(25.000000, 62.000000)" fill="#575D63">
                    <g id="Group">
                        <g id="#db3f28ff" transform="translate(29.018182, 0.000000)">
                            <path d="M25.494,1.48663366 C31.4121818,0.259207921 37.4907273,0.080049505 43.5158182,0.274455446 C48.4336364,0.625148515 53.3972727,0.884356436 58.1967273,2.10415842 C63.378,3.41544554 68.3683636,5.75212871 72.4232727,9.26287129 C73.8283636,10.4407426 75.0463636,11.8816337 75.7221818,13.6007921 C77.0967273,16.8065842 76.2834545,20.6451485 74.1338182,23.3134653 C72.5301818,25.280396 70.5790909,26.9995545 68.3645455,28.2460396 C64.2790909,30.3921287 59.8538182,31.8177723 55.3445455,32.7593069 C48.2121818,34.3907921 40.866,35.1417327 33.5503636,34.939703 C33.9398182,33.5864851 34.8027273,32.4581683 35.5205455,31.2688614 C37.5174545,27.9563366 39.7892727,24.8191584 41.8625455,21.5561881 C46.0663636,15.4419307 50.8772727,9.78509901 55.3827273,3.89574257 C51.7401818,6.38871287 48.7390909,9.67074257 45.5967273,12.735495 C42.9010909,15.6363366 40.0221818,18.3808911 37.5556364,21.4837624 C34.2147273,25.8102475 30.8661818,30.1367327 27.6741818,34.5699505 C24.9556364,34.3564851 22.2332727,33.9028713 19.5910909,33.2357921 C21.4238182,30.2205941 24.0621818,27.8267327 26.4714545,25.280396 C28.5409091,23.1571782 30.7478182,21.1711881 32.8821818,19.1127723 C37.7732727,14.7748515 43.0805455,10.940099 48.4069091,7.15871287 C49.9570909,6.04945545 51.6218182,5.08123762 53.0689091,3.83475248 C48.6627273,5.73688119 44.5009091,8.1650495 40.3123636,10.5017327 C34.7110909,13.5969802 29.5756364,17.4660396 24.6998182,21.5866832 C20.8930909,24.6361881 17.346,27.9868317 13.8485455,31.3755941 C13.3827273,31.859703 12.6878182,31.4632673 12.1532727,31.345099 C7.96854545,29.869901 4.18472727,27.1672772 1.57690909,23.5688614 C-0.213818182,21.205495 -0.336,17.8739109 0.748363636,15.1903465 C2.58490909,11.2641089 6.11672727,8.40519802 9.88527273,6.41158416 C14.7878182,3.96435644 20.1447273,2.57683168 25.494,1.48663366 L25.494,1.48663366 Z M31.3014545,2.27188119 C25.7536364,3.08 20.2325455,4.28074257 14.9558182,6.19430693 C11.2750909,7.56658416 7.67836364,9.96806931 6.07854545,13.6846535 C5.20036364,15.5181683 5.45236364,17.7328713 6.44509091,19.4672772 C7.14763636,20.9157921 8.62909091,22.0936634 10.3129091,21.9068812 C12.0998182,21.6209901 13.6690909,20.6184653 15.2650909,19.8217822 C17.8729091,18.2894059 20.6487273,17.0772277 23.3290909,15.6782673 C31.9658182,11.4318317 40.6674545,7.26925743 49.7012727,3.9109901 C50.61,3.58316832 51.5836364,3.35445545 52.3587273,2.74455446 C45.402,1.67341584 38.3078182,1.7839604 31.3014545,2.27188119 L31.3014545,2.27188119 Z M49.5103636,17.0314851 C48.2198182,19.6693069 46.6810909,22.1851485 45.5356364,24.8915842 C45.1881818,25.9665347 44.6192727,27.2625743 45.3485455,28.3070297 C46.1121818,28.9626733 47.1812727,28.8368812 48.1052727,28.714901 C51.6256364,28.1926733 55.0352727,27.1253465 58.3685455,25.8979208 C61.6865455,24.6666832 64.7716364,22.779802 67.3298182,20.3325743 C68.8570909,18.9221782 69.7314545,16.909505 69.9681818,14.8663366 C70.0483636,12.4457921 68.6203636,10.2463366 66.7303636,8.83594059 C63.8438182,6.58311881 60.4570909,4.9249505 56.9214545,3.9910396 C54.0883636,8.11930693 51.9081818,12.6440099 49.5103636,17.0314851 L49.5103636,17.0314851 Z" id="Shape"></path>
                        </g>
                        <g id="#6f6f71ff" transform="translate(0.000000, 43.455446)">
                            <path d="M0.286363636,3.37732673 C0.473454545,2.06222772 1.00036364,0.163910891 2.66509091,0.22490099 C4.20381818,0.278267327 5.95254545,-0.16009901 7.34236364,0.644207921 C7.79672727,1.62767327 7.46836364,2.81316832 7.64018182,3.87287129 C8.49927273,2.75980198 8.62145455,0.99490099 9.98836364,0.358316832 C11.7103636,0.0914851485 13.5049091,0.110544554 15.2269091,0.365940594 C16.8267273,0.762376238 17.2925455,2.48534653 17.724,3.85 C18.27,2.99613861 18.6365455,2.0469802 19.1176364,1.15881188 C19.6750909,0.0648019802 21.1145455,0.25539604 22.1416364,0.205841584 C23.5696364,0.331633663 25.2954545,-0.0343069307 26.4218182,1.0749505 C27.6245455,2.13084158 27.6627273,3.86524752 27.678,5.34425743 C27.6245455,9.02272277 27.7314545,12.7011881 27.6245455,16.3796535 C27.6283636,18.0683168 25.536,17.4660396 24.444,17.6528218 C23.4436364,17.5460891 21.714,18.030198 21.3818182,16.715099 C21.0610909,13.2386634 21.4887273,9.72029703 21.1870909,6.24386139 C20.8396364,4.71148515 18.8350909,5.25658416 17.682,5.06217822 C17.64,8.5919802 17.6972727,12.1217822 17.6629091,15.6515842 C17.6361818,16.2691089 17.6438182,17.0657921 17.0405455,17.4317327 C15.3796364,17.9120297 13.6003636,17.8091089 11.9127273,17.5194059 C11.4583636,17.1610891 11.2674545,16.5816832 11.2903636,16.0175248 C11.214,13.1738614 11.3896364,10.3225743 11.2254545,7.48272277 C11.1147273,6.71653465 11.172,5.69876238 10.3816364,5.27564356 C9.49963636,5.01643564 8.56036364,5.13079208 7.65545455,5.0659901 C7.38436364,8.83212871 7.64781818,12.6135149 7.52563636,16.3834653 C7.49890909,16.8294554 7.48363636,17.5422772 6.83836364,17.485099 C5.11254545,17.6604455 3.37145455,17.6070792 1.65327273,17.3936139 C1.13018182,13.2767822 1.54636364,9.09514851 1.48527273,4.95544554 C1.49290909,4.21212871 0.721636364,3.85762376 0.286363636,3.37732673 L0.286363636,3.37732673 Z" id="Shape"></path>
                            <path d="M45.9938182,3.43450495 C46.5054545,2.34430693 46.7116364,0.625148515 48.1434545,0.400247525 C49.8501818,0.16009901 51.6103636,0.175346535 53.2941818,0.556534653 C53.6454545,2.8970297 53.4965455,5.27564356 53.5538182,7.63519802 C54.0807273,6.82707921 54.3823636,5.76737624 55.2490909,5.2489604 C56.6312727,4.88683168 58.0936364,5.03930693 59.5063636,5.08886139 C60.9687273,5.1269802 61.9194545,6.6250495 61.8545455,7.98207921 C61.8278182,11.1497525 61.9538182,14.3250495 61.7552727,17.4889109 C60.0561818,17.6070792 58.3494545,17.6375743 56.6503636,17.4736634 C56.4861818,14.8434653 56.784,12.1980198 56.49,9.58306931 C56.3792727,8.43188119 54.7794545,8.35183168 53.9890909,8.87024752 C53.4698182,9.45727723 53.4812727,10.2882673 53.4507273,11.0277723 C53.4125455,13.1776733 53.55,15.3313861 53.3629091,17.4736634 C51.534,17.7595545 49.6478182,17.9196535 47.8227273,17.5041584 C47.2118182,17.1229703 47.3989091,16.2614851 47.3263636,15.655396 C47.3874545,12.2094554 47.5210909,8.76351485 47.4218182,5.31757426 C47.544,4.37222772 46.5932727,3.94529703 45.9938182,3.43450495 L45.9938182,3.43450495 Z" id="Shape"></path>
                            <path d="M65.0274545,0.526039604 C66.7494545,0.156287129 68.5249091,0.228712871 70.2621818,0.48029703 C70.4950909,1.56287129 70.4569091,2.67594059 70.224,3.75851485 C68.4638182,4.01391089 66.6730909,3.97960396 64.9129091,3.73564356 C64.6647273,2.66831683 64.7372727,1.57430693 65.0274545,0.526039604 L65.0274545,0.526039604 Z" id="Shape"></path>
                            <path d="M97.8370909,3.42306931 C98.2418182,2.28331683 98.616,0.571782178 100.066909,0.442178218 C101.540727,0.327821782 103.045091,0.266831683 104.503636,0.526039604 C105.710182,0.922475248 105.305455,2.45866337 105.400909,3.42688119 C105.225273,8.11549505 105.305455,12.8079208 105.255818,17.5003465 C103.270364,17.5194059 101.281091,17.5727723 99.2956364,17.5117822 C99.1887273,16.5016337 99.1543636,15.4914851 99.1429091,14.4775248 C98.7725455,15.3161386 98.4556364,16.1890594 97.9363636,16.9476238 C97.3827273,17.7519307 96.2869091,17.5079703 95.4545455,17.614703 C93.9692727,17.5842079 92.1365455,17.8662871 91.0865455,16.555 C89.3836364,14.63 90.0785455,11.8625743 89.922,9.52970297 C89.7234545,7.7800495 90.7276364,5.94272277 92.442,5.38237624 C94.6718182,4.69242574 97.0543636,5.2680198 99.3452727,4.98594059 C98.8565455,4.45608911 98.2418182,4.02534653 97.8370909,3.42306931 L97.8370909,3.42306931 Z M98.0318182,8.2870297 C97.2605455,8.57292079 96.1074545,8.63009901 95.8707273,9.59069307 C95.5538182,10.6999505 95.508,12.0264851 96.18,13.0175743 C96.8672727,13.955297 98.1654545,13.4940594 99.1543636,13.604604 C99.1658182,10.8219307 99.2001818,8.03544554 99.1429091,5.25277228 C98.6618182,6.2209901 98.3830909,7.26925743 98.0318182,8.2870297 L98.0318182,8.2870297 Z" id="Shape"></path>
                            <path d="M30.1827273,8.22985149 C30.4958182,7.06341584 30.8127273,5.42430693 32.1185455,5.02405941 C35.2838182,4.79534653 38.4643636,5.06217822 41.6334545,5.0659901 C43.0843636,4.96688119 44.5887273,6.11044554 44.5390909,7.63138614 C44.5734545,10.8486139 44.562,14.0810891 44.4092727,17.2906931 C42.8590909,17.9310891 40.9996364,17.5041584 39.3349091,17.4736634 C39.0638182,15.8879208 39.1669091,14.275495 39.1745455,12.6783168 C38.5254545,12.3924257 37.8343636,12.0874752 37.1089091,12.2780693 C36.3567273,12.3238119 35.9214545,13.3530198 36.3872727,13.9400495 C37.2081818,14.3707921 38.1703636,14.3250495 39.0638182,14.4965842 C38.7278182,15.6020297 38.0863636,16.6083663 37.2730909,17.420297 C35.5090909,17.6337624 33.6076364,17.9463366 31.8970909,17.325 C29.1327273,15.5524752 29.862,10.1853465 33.2563636,9.59450495 C35.1463636,9.4229703 37.0554545,9.61356436 38.9492727,9.43440594 C38.9721818,9.18282178 39.0141818,8.67965347 39.0370909,8.43188119 C36.0856364,8.34420792 33.1303636,8.44331683 30.1827273,8.22985149 L30.1827273,8.22985149 Z" id="Shape"></path>
                            <path d="M65.058,5.1460396 C66.5203636,5.00118812 68.0896364,4.85252475 69.5023636,5.33663366 C71.1747273,6.23242574 70.5218182,8.38232673 70.6401818,9.91089109 C70.4416364,12.4534158 71.0678182,15.1141089 70.2698182,17.5689604 C68.7807273,17.5422772 67.2725455,17.7214356 65.7949091,17.4660396 C65.2450909,17.2487624 65.5123636,16.4787624 65.394,16.0213366 C65.3176364,13.8714356 65.5581818,11.7024752 65.2794545,9.5640099 C65.1992727,8.82450495 64.4089091,8.58435644 63.8858182,8.21079208 C64.1187273,7.16252475 64.1225455,5.8550495 65.058,5.1460396 L65.058,5.1460396 Z" id="Shape"></path>
                            <path d="M73.0609091,5.48529703 C73.4427273,4.89826733 74.2254545,5.10792079 74.8172727,5.03168317 C75.9169091,5.07742574 77.1425455,4.88683168 78.1238182,5.48910891 C78.9714545,6.03039604 78.9561818,7.13584158 79.1929091,8.0049505 C79.7350909,7.10534653 80.0749091,5.99990099 80.9454545,5.35569307 C82.4001818,4.83346535 84.0038182,5.09267327 85.5196364,5.1269802 C87.0125455,5.08123762 87.7074545,6.75084158 87.696,8.01638614 C87.7456364,11.1726238 87.738,14.3288614 87.6807273,17.485099 C85.974,17.5422772 84.2672727,17.5384653 82.5605455,17.4965347 C82.3161818,14.8777723 82.6292727,12.2399505 82.3963636,9.625 C81.9190909,8.21841584 80.094,8.66440594 78.9561818,8.62247525 C78.8874545,11.0887624 78.9561818,13.5550495 78.9447273,16.0213366 C78.8301818,16.4825743 79.0898182,17.2563861 78.5361818,17.4774752 C77.1998182,17.580396 75.852,17.5346535 74.5156364,17.5117822 C73.8245455,17.6413861 73.7558182,16.8637624 73.7138182,16.3872772 C73.5725455,14.1192079 73.8321818,11.8358911 73.6145455,9.57163366 C73.5649091,8.83975248 72.7516364,8.61485149 72.2590909,8.23747525 C72.4309091,7.30356436 72.4958182,6.28579208 73.0609091,5.48529703 L73.0609091,5.48529703 Z" id="Shape"></path>
                            <path d="M120.089455,8.41663366 C120.314727,7.16252475 120.620182,5.17653465 122.258182,5.15747525 C125.255455,5.08123762 128.260364,5.09267327 131.257636,5.15366337 C132.689455,5.11935644 133.884545,6.06089109 134.4,7.35311881 L134.4,17.9158416 L129.36,17.9158416 C128.661273,16.2309901 128.997273,14.3822277 128.856,12.6135149 C127.916727,12.4038614 126.756,12.2018317 126.045818,13.0404455 C125.583818,14.694802 127.786909,14.214505 128.630727,14.9235149 C128.535273,16.1280693 127.546364,17.0810396 126.748364,17.9158416 L122.288727,17.9158416 C119.028,16.5168812 119.325818,10.6961386 122.815636,9.81940594 C124.789636,9.53732673 126.798,9.8079703 128.783455,9.59450495 C128.749091,9.32767327 128.680364,8.79019802 128.646,8.51955446 C125.793818,8.52717822 122.934,8.68346535 120.089455,8.41663366 L120.089455,8.41663366 Z" id="Shape"></path>
                            <path d="M106.622727,7.66569307 C106.764,6.81564356 106.920545,5.76356436 107.741455,5.29470297 C109.077818,5.04311881 110.479091,5.06217822 111.815455,5.30613861 C112.762364,5.45861386 113.067818,6.48782178 113.537455,7.17777228 C114.045273,6.48782178 114.381273,5.44717822 115.339636,5.28326733 C116.752364,5.01643564 118.195636,5.22608911 119.612182,5.35188119 C119.222727,6.41920792 118.978364,7.78767327 117.905455,8.38613861 C116.424,8.72539604 114.885273,8.49668317 113.380909,8.47 C113.239636,10.8600495 113.228182,13.2577228 113.251091,15.6515842 C113.293091,16.4406436 113.037273,17.195396 112.735636,17.9158416 L111.307636,17.9158416 C110.246182,17.8510396 109.192364,17.7252475 108.15,17.5422772 C107.787273,14.8167822 108.062182,12.064604 107.882727,9.32767327 C107.439818,8.81306931 106.473818,8.47762376 106.622727,7.66569307 L106.622727,7.66569307 Z" id="Shape"></path>
                        </g>
                    </g>
                </g>
            </g>
        </g>
    </g>
</svg>