<?xml version="1.0" encoding="UTF-8" standalone="no"?>
<svg width="185px" height="185px" viewBox="0 0 185 185" version="1.1" xmlns="http://www.w3.org/2000/svg" xmlns:xlink="http://www.w3.org/1999/xlink">
    <!-- Generator: Sketch 3.6.1 (26313) - http://www.bohemiancoding.com/sketch -->
    <title>yamaha</title>
    <desc>Created with Sketch.</desc>
    <defs></defs>
    <g id="Page-1" stroke="none" stroke-width="1" fill="none" fill-rule="evenodd">
        <g id="28-getstarted-copy" transform="translate(-322.000000, -733.000000)">
            <g id="yamaha" transform="translate(322.000000, 733.000000)">
                <path d="M92.5,5 C44.252,5 5,44.252 5,92.5 C5,140.748 44.252,180 92.5,180 C140.748,180 180,140.748 180,92.5 C180,44.252 140.748,5 92.5,5 M0,92.5 C0,41.495 41.495,0 92.5,0 C143.505,0 185,41.495 185,92.5 C185,143.505 143.505,185 92.5,185 C41.495,185 0,143.505 0,92.5 Z" id="Fill-1" fill="#BCC4CE"></path>
                <g id="YamahaCorp" transform="translate(39.000000, 50.000000)" fill="#575D63">
                    <g id="svg5398">
                        <path d="M54.9449997,0 C48.9374605,-4.42706866e-15 42.9621054,2.46012215 38.7142563,6.69594116 C34.466851,10.9322031 32,16.8917016 32,22.8824109 C32,28.8731202 34.4668511,34.8326186 38.7142563,39.0688806 C42.9621049,43.3051426 48.9374605,45.7648224 54.9449997,45.7648224 C60.9525384,45.7648224 66.927894,43.3055853 71.1757431,39.0688806 C75.4231479,34.8330613 77.8899994,28.8731202 77.8899994,22.8824109 C77.8899994,16.891702 75.4231483,10.9322031 71.1757431,6.69594116 C66.927894,2.46012233 60.9525389,0 54.9449997,0 L54.9449997,0 Z M54.9449997,0.968421283 C60.6963979,0.968421283 66.414947,3.33203332 70.4821216,7.38767064 C74.5492958,11.4433078 76.9189293,17.1467008 76.9189293,22.8824109 C76.9184854,28.618121 74.5488523,34.3215135 70.4821216,38.3771511 C66.4149466,42.4327883 60.6963983,44.7964011 54.9449997,44.7964011 C49.1936011,44.7964011 43.4741645,42.4327887 39.4078778,38.3771511 C35.3411468,34.3215131 32.9710701,28.618121 32.9710701,22.8824109 C32.9710702,17.1467012 35.3411472,11.4433082 39.4078778,7.38767064 C43.4741641,3.33247567 49.1936011,0.968421283 54.9449997,0.968421283 L54.9449997,0.968421283 Z M54.9449997,3.4448128 C49.8426084,3.44481285 44.77784,5.54634211 41.1696764,9.1446635 C37.5615132,12.7425417 35.4542351,17.7939382 35.4542351,22.8824109 C35.4542351,27.9713258 37.5615128,33.0222796 41.1696764,36.6201583 C44.7778396,40.2184779 49.8430528,42.3200091 54.9449997,42.3200091 C60.0473896,42.3200096 65.1255879,40.2184797 68.7341954,36.6201583 C72.3419129,33.0222782 74.4357642,27.9713263 74.4357642,22.8824109 C74.4357651,17.7939386 72.3419151,12.7425422 68.7341954,9.1446635 C65.1255861,5.54634167 60.0473905,3.4448128 54.9449997,3.4448128 L54.9449997,3.4448128 Z M54.9449997,4.45473766 C55.0146939,4.45473766 55.0823922,4.46934699 55.1392137,4.51007602 C55.1960356,4.55036234 55.2409819,4.61057048 55.2640656,4.67609109 L56.9010124,9.2830094 C56.9405206,9.39589965 56.9383015,9.52893306 56.9010124,9.64270873 C56.8637233,9.75648483 56.7914757,9.85122366 56.6929259,9.91940052 C56.4083737,10.1146347 56.1759837,10.3995161 56.0547941,10.7218067 C55.934048,11.0445396 55.9136283,11.4122081 55.9993044,11.7455663 C56.0854236,12.0793677 56.2779738,12.3788585 56.5403292,12.6033109 C57.0108807,13.0057314 57.3908756,13.5079824 57.6501236,14.0697774 C57.9093716,14.6315728 58.0524241,15.2502552 58.0524241,15.868274 L58.0524241,17.5145902 L66.1677958,12.8384989 L67.1804832,14.5816572 L58.0524241,19.8249666 L58.0524241,21.0977488 L59.1483461,21.7203054 L68.2764052,16.4769959 L69.2752202,18.2063196 L61.1598485,22.8824109 L62.5887088,23.7124863 C63.125404,24.0214948 63.5899653,24.4390789 63.948207,24.9437647 C64.3064477,25.4484501 64.5554865,26.0380254 64.6695733,26.6454192 C64.7330518,26.98409 64.9082901,27.2895577 65.1551084,27.530833 C65.4014805,27.771665 65.7163314,27.9445425 66.0568164,28.001209 C66.3977443,28.057875 66.7574296,28.0102845 67.0695038,27.8628631 C67.1778184,27.8110664 67.2986763,27.7965678 67.4163145,27.8213593 C67.533507,27.84615 67.6429345,27.9100114 67.721508,28.001209 L70.912167,31.708879 C70.9574443,31.7615602 70.9887428,31.833501 70.9954015,31.9025632 C71.0020581,31.9716237 70.9888537,32.0360394 70.9537842,32.0962475 C70.9187152,32.1568988 70.8642238,32.2053747 70.8011875,32.2345934 C70.7377055,32.263368 70.6619083,32.2755438 70.5931011,32.2622626 L65.7793677,31.3630143 C65.6612847,31.3408776 65.5545234,31.286426 65.4741743,31.1969992 C65.3942678,31.1080133 65.3308998,30.9840572 65.3215775,30.864969 C65.2940551,30.5223135 65.1667612,30.1898411 64.9470219,29.9242169 C64.7272831,29.6585911 64.4194257,29.4633591 64.0869313,29.3708334 C63.7539907,29.2787481 63.3996356,29.2838415 63.0742438,29.3985025 C62.4896046,29.6039181 61.8601287,29.6907997 61.243083,29.6336906 C60.6260382,29.5765805 60.0184249,29.3750391 59.4812844,29.0664724 L58.0524241,28.2502316 L58.0524241,37.6024141 L56.0409217,37.6024141 L56.0409217,27.0881261 L54.9449997,26.4655696 L53.8490777,27.0881261 L53.8490777,37.6024141 L51.8375753,37.6024141 L51.8375753,28.2502316 L50.408715,29.0664724 C49.8720175,29.3750386 49.263962,29.5765814 48.6469163,29.6336906 C48.0294267,29.6907984 47.3999513,29.6039185 46.8157555,29.3985025 C46.4899199,29.283841 46.1355625,29.2787503 45.8030681,29.3708334 C45.4701298,29.46336 45.1622728,29.6585928 44.9429775,29.9242169 C44.7236812,30.1898393 44.5955008,30.5218712 44.5684218,30.864969 C44.5590987,30.984499 44.5096027,31.1080151 44.4296975,31.1969992 C44.3497919,31.2859815 44.2287138,31.3413216 44.1106316,31.3630143 L39.2968983,32.2622626 C39.228535,32.2755424 39.1522921,32.263812 39.0888119,32.2345934 C39.0257756,32.2058161 38.9708407,32.1568983 38.9362151,32.0962475 C38.9015896,32.0355967 38.888383,31.9716255 38.8945979,31.9025632 C38.9012566,31.8334988 38.9325528,31.7615611 38.9778324,31.708879 L42.1684914,28.001209 C42.2466205,27.9100109 42.3564906,27.8457082 42.4736849,27.8213593 C42.5913226,27.7961237 42.7121797,27.8110664 42.8204956,27.8628631 C43.1325689,28.010284 43.4922542,28.0578755 43.833183,28.001209 C44.1736675,27.9440994 44.4880727,27.7721082 44.734891,27.530833 C44.9812649,27.2899995 45.1569458,26.98409 45.2204261,26.6454192 C45.3340686,26.0375823 45.5831069,25.4484505 45.9417924,24.9437647 C46.3000336,24.439078 46.764594,24.0076611 47.3012906,23.6986517 L48.7301509,22.8824109 L40.6147792,18.2063196 L41.6135942,16.4769959 L50.7416533,21.7203054 L51.8375753,21.0977488 L51.8375753,19.8249666 L42.7095162,14.5816572 L43.7222036,12.8384989 L51.8375753,17.5145902 L51.8375753,15.868274 C51.8375749,15.2502561 51.9806278,14.6315724 52.2398758,14.0697774 C52.4986798,13.5079828 52.8786735,13.0057314 53.3496702,12.6033109 C53.6115813,12.3788585 53.8045749,12.0793673 53.890695,11.7455663 C53.9768146,11.4122085 53.9559509,11.04454 53.8352053,10.7218067 C53.7144601,10.399073 53.4816248,10.1150769 53.1970735,9.91940052 C53.0985233,9.85166637 53.02672,9.75648439 52.988987,9.64270873 C52.9521418,9.5289335 52.9629069,9.39589965 53.0028595,9.2830094 L54.6259338,4.67609109 C54.6490171,4.61057048 54.6939642,4.55036234 54.7507857,4.51007602 C54.8076067,4.46978969 54.8753046,4.45473766 54.9449997,4.45473766 L54.9449997,4.45473766 Z M54.9449997,14.4986496 C54.6582279,14.4986501 54.371014,14.6140855 54.1681436,14.8168452 C53.9652727,15.0196045 53.8490777,15.3055936 53.8490777,15.5915822 L53.8490777,18.6766957 L54.9449997,19.2992522 L56.0409217,18.6766957 L56.0409217,15.5915822 C56.0409204,15.305594 55.9247262,15.0191622 55.7218558,14.8168452 C55.5189854,14.6145277 55.2317706,14.4986496 54.9449997,14.4986496 L54.9449997,14.4986496 Z M54.9449997,21.429779 L53.6826085,22.1630122 L53.6826085,23.6156441 L54.9449997,24.3350428 L56.2073909,23.6156441 L56.2073909,22.1630122 L54.9449997,21.429779 L54.9449997,21.429779 Z M50.7416533,24.0445164 L48.0642743,25.5801558 C47.8156799,25.7231502 47.6251286,25.9675243 47.5509944,26.2442161 C47.4764144,26.5209079 47.5181444,26.825933 47.6619738,27.0742915 C47.8049144,27.3222073 48.0508458,27.512682 48.3278504,27.5861713 C48.6052982,27.6609879 48.9116023,27.6193743 49.1601963,27.4754946 L51.8375753,25.9398552 L51.8375753,24.6670729 L50.7416533,24.0445164 L50.7416533,24.0445164 Z M59.1483461,24.0445164 L58.0524241,24.6670729 L58.0524241,25.9398552 L60.7298031,27.4754946 C60.9783949,27.6193726 61.2847003,27.6609888 61.5621489,27.5861713 C61.8395953,27.5122388 62.0841962,27.3222073 62.2280256,27.0742915 C62.3718527,26.8263739 62.4135832,26.5209079 62.339005,26.2442161 C62.2648681,25.9670799 62.0743191,25.7231502 61.8257251,25.5801558 L59.1483461,24.0445164 L59.1483461,24.0445164 Z" id="path5411"></path>
                        <path d="M0.613648796,57.653846 L5.7815919,73.9038458 L5.7815919,84.1538458 L10.949535,84.1538458 L10.949535,73.3749997 L16.3103118,57.653846 L11.9522702,57.653846 L8.44269694,67.9807689 L5.26094092,57.653846 L0.613648796,57.653846 L0.613648796,57.653846 Z M19.6366931,57.653846 L14.7772839,84.1538458 L19.0871171,84.1538458 L20.1187774,77.9903843 L25.4795542,77.9903843 L26.4726477,84.1538458 L31.2259984,84.1538458 L26.8390317,57.653846 L19.6366931,57.653846 L19.6366931,57.653846 Z M33.4243025,57.653846 L33.4243025,84.1538458 L37.5991521,84.1538458 L37.5991521,64.1730766 L41.1472921,81.5480766 L45.0425328,81.5480766 L48.1953638,63.8942305 L48.1953638,84.1538458 L53.083698,84.1538458 L53.083698,57.653846 L45.5149754,57.653846 L43.2781045,70.2596151 L40.6941329,57.653846 L33.4243025,57.653846 L33.4243025,57.653846 Z M60.0642779,57.653846 L55.2048687,84.1538458 L59.5147019,84.1538458 L60.5463621,77.9903843 L65.9071389,77.9903843 L66.9098742,84.1538458 L71.6535832,84.1538458 L67.2666165,57.653846 L60.0642779,57.653846 L60.0642779,57.653846 Z M73.861529,57.653846 L73.861529,84.1538458 L78.5088211,84.1538458 L78.5088211,72.5192305 L83.6092724,72.5192305 L83.6092724,84.1538458 L88.3626231,84.1538458 L88.3626231,57.653846 L83.6092724,57.653846 L83.6092724,67.807692 L78.5088211,67.807692 L78.5088211,57.653846 L73.861529,57.653846 L73.861529,57.653846 Z M95.3528446,57.653846 L90.4934354,84.1538458 L94.8032686,84.1538458 L95.8349289,77.9903843 L101.186064,77.9903843 L102.188799,84.1538458 L106.932508,84.1538458 L102.545542,57.653846 L95.3528446,57.653846 L95.3528446,57.653846 Z M22.8377325,61.7211535 L24.7564278,73.5673074 L20.8611871,73.5673074 L22.8377325,61.7211535 L22.8377325,61.7211535 Z M63.2653173,61.7211535 L65.1936543,73.5673074 L61.2887719,73.5673074 L63.2653173,61.7211535 L63.2653173,61.7211535 Z M98.553884,61.7211535 L100.472579,73.5673074 L96.5676969,73.5673074 L98.553884,61.7211535 L98.553884,61.7211535 Z" id="polygon5425"></path>
                    </g>
                </g>
            </g>
        </g>
    </g>
</svg>