<?xml version="1.0" encoding="UTF-8" standalone="no"?>
<svg width="35px" height="42px" viewBox="0 0 35 42" version="1.1" xmlns="http://www.w3.org/2000/svg" xmlns:xlink="http://www.w3.org/1999/xlink">
    <!-- Generator: Sketch 3.6.1 (26313) - http://www.bohemiancoding.com/sketch -->
    <title>air pressure</title>
    <desc>Created with Sketch.</desc>
    <defs></defs>
    <g id="Page-1" stroke="none" stroke-width="1" fill="none" fill-rule="evenodd">
        <g id="28-getstarted-copy" transform="translate(-365.000000, -1378.000000)" fill="#FFFFFF">
            <g id="air-pressure" transform="translate(365.000000, 1378.000000)">
                <g id="Capa_1">
                    <path d="M4.9280797,10.9305 L4.31097723,10.6618289 L4.41883302,10.4178421 L5.03602846,10.6852237 L4.9280797,10.9305 L4.9280797,10.9305 Z M3.34957306,9.954 L2.2798482,9.48960526 L2.17152751,9.73460526 L3.24171727,10.1979868 L3.34957306,9.954 L3.34957306,9.954 Z M1.21040228,9.02539474 L0.593020873,8.757 L0.484607211,9.00218421 L1.10198861,9.27057895 L1.21040228,9.02539474 L1.21040228,9.02539474 Z M4.54574953,11.5615132 L4.66448387,11.8027368 L5.26940607,11.5083684 L5.15067173,11.2684342 L4.54574953,11.5615132 L4.54574953,11.5615132 Z M2.4482334,12.5798289 L2.56696774,12.8197632 L3.61642315,12.3109737 L3.49703795,12.0710395 L2.4482334,12.5798289 L2.4482334,12.5798289 Z M0.794227704,13.3819737 L0.913055028,13.6218158 L1.51834915,13.3274474 L1.39896395,13.0876053 L0.794227704,13.3819737 L0.794227704,13.3819737 Z M4.84644402,11.0040921 L4.17327514,11.0325526 L4.18433966,11.2999342 L4.85797343,11.2704605 L4.84644402,11.0040921 L4.84644402,11.0040921 Z M3.00610816,11.08275 L1.83977799,11.1321184 L1.85074953,11.3984868 L3.01717268,11.3488421 L3.00610816,11.08275 L3.00610816,11.08275 Z M2.99760217e-15,11.2083816 L0.0110645161,11.4757632 L0.684140417,11.4475789 L0.672611006,11.1801974 L2.99760217e-15,11.2083816 L2.99760217e-15,11.2083816 Z M34.4200361,12.9112237 L34.4200361,37.7420658 C34.4200361,40.0932368 32.4963909,41.9988947 30.1233776,41.9988947 L22.5320968,41.9988947 C20.1584326,41.9988947 18.2346945,40.0933289 18.2346945,37.7420658 L18.2346945,15.7044079 C17.4496717,15.8979211 17.0813814,16.1708289 16.9130892,16.3624079 C16.7063966,16.5982895 16.7229469,16.7988947 16.7259222,16.821 L16.7436812,16.9026974 L16.7373586,16.9543684 L16.7373586,35.9549474 C16.7373586,38.8264211 14.3787571,41.1633158 11.479575,41.1633158 C8.58020683,41.1633158 6.22179127,38.82725 6.22179127,35.9549474 L6.22179127,17.8038553 L6.08771537,17.8038553 L6.08771537,11.5955 L5.45731689,11.0888289 L6.08771537,10.3209474 L6.08771537,9.75717105 L7.90238899,9.75717105 L7.90238899,17.8043158 L7.7843055,17.8043158 L7.7843055,35.9553158 C7.7843055,37.9735263 9.44137951,39.6153947 11.4790171,39.6153947 C13.5161898,39.6153947 15.1738216,37.9735263 15.1738216,35.9553158 L15.1738216,17.0079737 C15.1432315,16.7456579 15.1349564,16.0939211 15.6537799,15.4415395 C16.165351,14.7994737 17.0353567,14.3629868 18.2340436,14.1271053 L18.2340436,12.9116842 C18.2340436,10.5617105 20.1576888,8.65586842 22.531167,8.65586842 L24.3935389,8.65586842 L24.3935389,7.63865789 C23.0772334,6.96628947 22.1724535,5.60828947 22.1724535,4.04415789 C22.1726395,1.81465789 24.0047932,0 26.255167,0 C28.5061917,0 30.3377875,1.81465789 30.3377875,4.04415789 C30.3377875,5.04580263 29.9652201,5.96261842 29.3526736,6.66897368 L31.9943036,6.66897368 L31.9943036,5.77767105 C31.9943036,5.48256579 32.2353055,5.24364474 32.5331176,5.24364474 C32.8305579,5.24364474 33.0719317,5.48256579 33.0719317,5.77767105 L33.0719317,8.22103947 C33.0719317,8.51614474 32.8305579,8.75497368 32.5331176,8.75497368 C32.2353055,8.75497368 31.9943036,8.51614474 31.9943036,8.22103947 L31.9943036,7.47010526 L28.4119108,7.47010526 C28.3615161,7.50160526 28.3115863,7.53356579 28.2603548,7.56285526 L28.2603548,8.6555 L30.1223548,8.6555 C32.4962979,8.65540789 34.4200361,10.5613421 34.4200361,12.9112237 L34.4200361,12.9112237 Z M28.0864839,6.66842105 C28.9264573,6.09202632 29.4788463,5.131 29.4788463,4.04360526 C29.4788463,2.28255263 28.0331139,0.850960526 26.2562827,0.850960526 C24.4792657,0.850960526 23.0326964,2.28209211 23.0326964,4.04360526 C23.0326964,5.131 23.5852713,6.09202632 24.4267324,6.66842105 L28.0156338,6.66842105 L28.0209336,6.66842105 L28.0864839,6.66842105 L28.0864839,6.66842105 Z M31.7256869,13.2461184 L31.186408,13.2461184 L31.186408,35.8666184 L31.7256869,35.8666184 L31.7256869,13.2461184 L31.7256869,13.2461184 Z M26.3274118,3.67085526 C26.2714383,3.67085526 26.2169526,3.68172368 26.165814,3.69940789 L24.3940968,3.26365789 L25.809518,4.33622368 C25.8690247,4.56611842 26.0782277,4.73513158 26.3274118,4.73513158 C26.624666,4.73513158 26.8647381,4.49722368 26.8647381,4.20414474 C26.8647381,3.91005263 26.624666,3.67085526 26.3274118,3.67085526 L26.3274118,3.67085526 Z" id="Shape"></path>
                </g>
            </g>
        </g>
    </g>
</svg>