<?xml version="1.0" encoding="UTF-8" standalone="no"?>
<svg width="47px" height="40px" viewBox="0 0 47 40" version="1.1" xmlns="http://www.w3.org/2000/svg" xmlns:xlink="http://www.w3.org/1999/xlink">
    <!-- Generator: Sketch 3.6.1 (26313) - http://www.bohemiancoding.com/sketch -->
    <title>atm</title>
    <desc>Created with Sketch.</desc>
    <defs></defs>
    <g id="Page-1" stroke="none" stroke-width="1" fill="none" fill-rule="evenodd">
        <g id="28-getstarted-copy" transform="translate(-90.000000, -1380.000000)" fill="#FFFFFF">
            <g id="atm" transform="translate(90.000000, 1380.000000)">
                <g id="Capa_1">
                    <path d="M42.802777,0.0134044318 L4.09377469,0.0134044318 C1.83638795,0.0134044318 0,1.85012067 0,4.1080166 L0,9.13640593 C0,11.3940277 1.83638795,13.230744 4.09377469,13.230744 L8.17809335,13.230744 L8.17809335,39.007681 C8.17809335,39.422556 8.51563242,39.7601303 8.93046424,39.7601303 L27.5844656,39.7601303 L27.5844656,2.75443033 L30.3253432,2.75443033 L30.3253432,39.7601303 L37.9660875,39.7601303 C38.3809193,39.7601303 38.7184584,39.422556 38.7184584,39.007681 L38.7184584,13.2306069 L42.802777,13.2306069 C45.0601638,13.2306069 46.8965517,11.3938907 46.8965517,9.13626887 L46.8965517,4.1080166 C46.8965517,1.85012067 45.0601638,0.0134044318 42.802777,0.0134044318 L42.802777,0.0134044318 Z M8.17809335,10.489444 L4.09377469,10.489444 C3.34784487,10.489444 2.74087754,9.88241343 2.74087754,9.13626887 L2.74087754,4.1080166 C2.74087754,3.36173498 3.34784487,2.75456739 4.09377469,2.75456739 L8.17809335,2.75456739 L8.17809335,10.489444 L8.17809335,10.489444 Z M44.1556742,9.13626887 C44.1556742,9.88241343 43.5487069,10.489444 42.802777,10.489444 L38.7184584,10.489444 L38.7184584,2.75456739 L42.802777,2.75456739 C43.5487069,2.75456739 44.1556742,3.36173498 44.1556742,4.1080166 L44.1556742,9.13626887 L44.1556742,9.13626887 Z" id="Shape"></path>
                </g>
            </g>
        </g>
    </g>
</svg>