<?xml version="1.0" encoding="UTF-8" standalone="no"?>
<svg width="55px" height="30px" viewBox="0 0 55 30" version="1.1" xmlns="http://www.w3.org/2000/svg" xmlns:xlink="http://www.w3.org/1999/xlink">
    <!-- Generator: Sketch 3.6.1 (26313) - http://www.bohemiancoding.com/sketch -->
    <title>bike performance testing</title>
    <desc>Created with Sketch.</desc>
    <defs></defs>
    <g id="Page-1" stroke="none" stroke-width="1" fill="none" fill-rule="evenodd">
        <g id="28-getstarted-copy" transform="translate(-789.000000, -1386.000000)" fill="#FFFFFF">
            <g id="bike-performance-testing" transform="translate(789.000000, 1386.000000)">
                <g id="Capa_1">
                    <path d="M54.6866667,5.36714286 C54.1914286,1.64666667 42.7669048,1.9902381 43.2838095,3.96809524 C43.8007143,5.94595238 39.4085714,7.46880952 39.4085714,7.46880952 L33.0942857,8.69761905 C29.2530952,5.64571429 27.5166667,4.68928571 26.1857143,3.835 C21.0135714,0.52 15.5907143,7.35119048 15.5907143,7.35119048 C15.5907143,7.35119048 10.5702381,6.73833333 16.5161905,0.792380952 C-4.17547619,11.4152381 5.67357143,13.1857143 5.67357143,13.1857143 L11.4895238,13.1857143 L10.5609524,14.6869048 C9.64166667,14.2814286 8.6202381,14.052381 7.54309524,14.052381 C3.37690476,14.052381 0,17.432381 0,21.5954762 C0,25.7616667 3.37690476,29.1416667 7.54309524,29.1416667 C11.7092857,29.1416667 15.0861905,25.7616667 15.0861905,21.5954762 C15.0861905,19.2585714 14.0214286,17.172381 12.35,15.7888095 L13.1485714,14.495 L21.1930952,23.4588095 L21.1930952,23.4588095 L21.892619,23.4588095 L36.4804762,23.4588095 L38.2880952,23.4588095 C39.117619,26.7211905 42.0704762,29.1416667 45.5897619,29.1416667 C49.7559524,29.1416667 53.1297619,25.7616667 53.1297619,21.5954762 C53.1297619,17.432381 49.7559524,14.052381 45.5897619,14.052381 C41.782619,14.052381 38.6440476,16.8752381 38.1271429,20.54 L38.0559524,20.54 C38.0559524,20.54 37.3966667,18.1164286 36.2235714,15.1140476 C40.1421429,13.8047619 55.1169048,8.60166667 54.6866667,5.36714286 L54.6866667,5.36714286 Z M7.54619048,26.337381 C4.93071429,26.337381 2.80738095,24.2109524 2.80738095,21.5954762 C2.80738095,18.98 4.93380952,16.8566667 7.54619048,16.8566667 C8.08166667,16.8566667 8.59238095,16.9464286 9.07214286,17.1135714 L7.43785714,19.7630952 C7.42547619,19.7816667 7.40380952,19.7940476 7.39142857,19.8157143 L6.70738095,20.9392857 C6.70428571,20.9516667 6.70738095,20.9578571 6.70119048,20.9640476 L6.65166667,21.0445238 L6.66714286,21.0569048 C6.45047619,21.5335714 6.60214286,22.1092857 7.06333333,22.3909524 C7.52142857,22.6695238 8.09404762,22.542619 8.41904762,22.1340476 L8.44071429,22.1495238 L8.50261905,22.0504762 C8.50571429,22.0442857 8.51190476,22.0411905 8.515,22.0380952 L8.82142857,21.5366667 L10.8642857,18.2154762 C11.7433333,19.0759524 12.2880952,20.2738095 12.2880952,21.5985714 C12.285,24.2109524 10.1585714,26.337381 7.54619048,26.337381 L7.54619048,26.337381 Z M45.5928571,16.8535714 C48.2052381,16.8535714 50.3316667,18.98 50.3316667,21.592381 C50.3316667,24.2109524 48.2021429,26.3342857 45.5928571,26.3342857 C43.6366667,26.3342857 41.9528571,25.142619 41.2316667,23.452619 L46.9857143,23.452619 L46.9857143,23.4278571 L47.1188095,23.4278571 C47.9204762,23.4402381 48.5797619,22.8088095 48.5890476,22.0040476 C48.6045238,21.2054762 47.9638095,20.5492857 47.1652381,20.5338095 L45.3607143,20.5121429 C45.2678571,20.5090476 45.1780952,20.5183333 45.0883333,20.5338095 L40.9747619,20.5338095 C41.4514286,18.4321429 43.3364286,16.8535714 45.5928571,16.8535714 L45.5928571,16.8535714 Z" id="Shape"></path>
                </g>
            </g>
        </g>
    </g>
</svg>