<?xml version="1.0" encoding="UTF-8" standalone="no"?>
<svg width="42px" height="42px" viewBox="0 0 42 42" version="1.1" xmlns="http://www.w3.org/2000/svg" xmlns:xlink="http://www.w3.org/1999/xlink">
    <!-- Generator: Sketch 3.6.1 (26313) - http://www.bohemiancoding.com/sketch -->
    <title>card payment</title>
    <desc>Created with Sketch.</desc>
    <defs></defs>
    <g id="Page-1" stroke="none" stroke-width="1" fill="none" fill-rule="evenodd">
        <g id="28-getstarted-copy" transform="translate(-227.000000, -1378.000000)" fill="#FFFFFF">
            <g id="card-payment" transform="translate(227.000000, 1378.000000)">
                <g id="Capa_1">
                    <g id="Layer_1_32_">
                        <g id="Group">
                            <path d="M4.23104348,12.0120725 L37.5717391,3.50326425 L37.2923478,2.2084456 C36.9198261,0.636238342 35.2434783,-0.288632124 33.6602609,0.0812435233 L6.09365217,7.11025907 C4.51043478,7.48020725 3.57913043,9.14497409 3.95165217,10.7172539 L4.23104348,12.0120725 L4.23104348,12.0120725 Z" id="Shape"></path>
                            <path d="M39.7137391,23.3879793 C41.2969565,23.0180311 42.2282609,21.3532642 41.8556661,19.7809845 L39.1548835,9.23746114 L15.8722748,15.1566321 L31.6113183,15.1566321 C34.7778261,15.1566321 37.3854783,17.7462694 37.3854783,20.890829 L37.3854783,24.0354611 L39.7137391,23.3879793 L39.7137391,23.3879793 Z" id="Shape"></path>
                            <path d="M34.4984348,20.890829 C34.4984348,19.2260622 33.1946087,17.9312435 31.5182609,17.9312435 L3.02034783,17.9312435 C1.344,17.9312435 0.040173913,19.2260622 0.040173913,20.890829 L0.040173913,39.0182902 C0.040173913,40.683057 1.344,41.9778756 3.02034783,41.9778756 L31.5182609,41.9778756 C33.1946087,41.9778756 34.4984348,40.683057 34.4984348,39.0182902 L34.4984348,20.890829 L34.4984348,20.890829 Z M3.29973913,23.0180311 C3.29973913,22.2781347 3.95165217,21.6307254 4.69669565,21.6307254 L20.5288696,21.6307254 C21.273913,21.6307254 21.9258261,22.2781347 21.9258261,23.0180311 C21.9258261,23.7579275 21.273913,24.4053368 20.5288696,24.4053368 L4.69669565,24.4053368 C3.95165217,24.4053368 3.29973913,23.758 3.29973913,23.0180311 L3.29973913,23.0180311 Z M21.273913,39.2958238 C18.6662609,39.2958238 16.5242609,37.1686218 16.5242609,34.5789845 C16.5242609,31.9893472 18.6662609,29.9546321 21.273913,29.9546321 C23.8815652,29.9546321 26.0234922,32.0818342 26.0234922,34.6714715 C26.0234922,37.2610363 23.8815652,39.2958238 21.273913,39.2958238 L21.273913,39.2958238 Z M31.5182609,34.6714715 C31.5182609,37.2610363 29.3762609,39.3882383 26.7686087,39.3882383 C26.4892174,39.3882383 26.1166957,39.3882383 25.8373043,39.2958238 C27.048,38.0934922 27.699913,36.5212124 27.699913,34.6714715 C27.699913,32.8217306 26.9548696,31.2493782 25.8373043,30.0471192 C26.1166957,29.9546321 26.396087,29.9546321 26.7686087,29.9546321 C29.4693913,29.9545596 31.5182609,32.0818342 31.5182609,34.6714715 L31.5182609,34.6714715 Z" id="Shape"></path>
                        </g>
                    </g>
                </g>
            </g>
        </g>
    </g>
</svg>