<?xml version="1.0" encoding="UTF-8" standalone="no"?>
<svg width="49px" height="35px" viewBox="0 0 49 35" version="1.1" xmlns="http://www.w3.org/2000/svg" xmlns:xlink="http://www.w3.org/1999/xlink">
    <!-- Generator: Sketch 3.6.1 (26313) - http://www.bohemiancoding.com/sketch -->
    <title>eatery</title>
    <desc>Created with Sketch.</desc>
    <defs></defs>
    <g id="Page-1" stroke="none" stroke-width="1" fill="none" fill-rule="evenodd">
        <g id="28-getstarted-copy" transform="translate(-294.000000, -1381.000000)" fill="#FFFFFF">
            <g id="eatery" transform="translate(294.000000, 1381.000000)">
                <g id="Capa_1">
                    <g id="Group">
                        <path d="M25.1478031,0.0445454545 C15.4148084,0.0445454545 7.52658005,7.85234545 7.52658005,17.4825636 C7.52658005,27.1127818 15.4148084,34.9205818 25.1478031,34.9205818 C34.8775827,34.9205818 42.7690262,27.1143091 42.7690262,17.4825636 C42.7674829,7.85221818 34.8775827,0.0445454545 25.1478031,0.0445454545 L25.1478031,0.0445454545 Z M24.9534751,28.6550727 C18.8433937,28.6550727 13.8922073,23.7559636 13.8922073,17.7094909 C13.8922073,11.6628909 18.8433937,6.76314545 24.9534751,6.76314545 C31.0612415,6.76314545 36.0147428,11.6628909 36.0147428,17.7094909 C36.0147428,23.7559636 31.0612415,28.6550727 24.9534751,28.6550727 L24.9534751,28.6550727 Z" id="Shape"></path>
                        <path d="M5.64760367,3.14236364 L4.90874541,3.14236364 L5.1291811,10.8044364 L4.24152231,10.8044364 L4.24152231,3.14236364 L3.59153281,3.14236364 L3.59153281,10.8517818 L2.85717585,10.8517818 L2.85717585,3.14236364 L2.13915223,3.14389091 L2.13915223,10.8533091 L1.26718373,10.8533091 L1.51668504,3.14236364 L0.839816273,3.14236364 L0.0217349081,9.66432727 C0.0217349081,9.66432727 0.000128608922,9.90983636 0.000128608922,10.0037636 C0.000128608922,11.0078182 0.473023622,11.907 1.20892388,12.4910545 C3.63564567,15.2031091 1.97851969,17.9712909 1.98006299,18.6292909 C1.98147769,19.3553818 1.98147769,30.5569091 1.98147769,30.5569091 C1.983021,30.5656909 1.97851969,30.5715455 1.98006299,30.5819818 C1.98147769,31.2681091 2.54182677,31.8226364 3.23451444,31.8226364 C3.92784514,31.8226364 4.49115223,31.2650545 4.49115223,30.5819818 C4.48960892,30.5715455 4.48819423,30.5656909 4.48665092,30.5569091 L4.48960892,30.5569091 C4.48960892,30.5569091 4.48960892,19.4958909 4.49115223,18.6543636 C4.49115223,17.8884364 3.09098688,14.7084 5.43025459,12.3416364 C5.4317979,12.3387091 5.43694226,12.3313273 5.44144357,12.3276364 C6.01220997,11.7916909 6.38954856,11.053 6.44485039,10.2234364 C6.44935171,10.1657818 6.4478084,10.0171273 6.4478084,10.0171273 L5.64760367,3.14236364 L5.64760367,3.14236364 Z" id="Shape"></path>
                        <path d="M48.9625748,21.6371273 C48.9639895,20.8976727 48.9400682,3.14389091 48.9400682,3.14389091 L48.5305774,3.14236364 C48.5305774,3.14236364 45.1924042,5.0064 45.1924042,18.8392909 C47.7566089,19.5357273 46.6777087,22.3098909 46.4835092,22.6632 C46.4835092,23.3671455 46.538811,30.6010727 46.538811,30.6010727 L46.547685,30.5966182 C46.544727,30.6070545 46.541769,30.6130364 46.541769,30.6218182 C46.538811,31.2858 47.0842415,31.8255636 47.7521076,31.8195818 C48.4199738,31.8225091 48.9654042,31.2827455 48.9624462,30.6218182 C48.9652756,30.6130364 48.9652756,30.6070545 48.9624462,30.6010727 L48.9638609,30.5950909 C48.9639895,30.5952182 48.9639895,22.449 48.9625748,21.6371273 L48.9625748,21.6371273 Z" id="Shape"></path>
                    </g>
                </g>
            </g>
        </g>
    </g>
</svg>