<?xml version="1.0" encoding="UTF-8" standalone="no"?>
<svg width="52px" height="27px" viewBox="0 0 52 27" version="1.1" xmlns="http://www.w3.org/2000/svg" xmlns:xlink="http://www.w3.org/1999/xlink">
    <!-- Generator: Sketch 3.6.1 (26313) - http://www.bohemiancoding.com/sketch -->
    <title>emission test</title>
    <desc>Created with Sketch.</desc>
    <defs></defs>
    <g id="Page-1" stroke="none" stroke-width="1" fill="none" fill-rule="evenodd">
        <g id="28-getstarted-copy" transform="translate(-1012.000000, -1389.000000)" fill="#FFFFFF">
            <g id="emission-test" transform="translate(1012.000000, 1387.000000)">
                <g id="Group-2" transform="translate(27.680000, 0.000000)">
                    <path d="M23.8671389,6.84309244 C23.8671389,5.51945695 22.7941194,4.44746002 21.4714135,4.44746002 C20.2713198,4.44746002 19.2865179,5.33195974 19.1112912,6.48306433 C18.5912816,6.18885081 18.0001588,6.00748886 17.3601398,6.00748886 C15.4748493,6.00748886 13.9466122,7.47158457 13.8097774,9.32136493 C13.2525844,8.9622664 12.5920216,8.74799716 11.8791232,8.74799716 C9.90394185,8.74799716 8.30217466,10.3498573 8.30217466,12.3249457 C8.30217466,12.5801166 8.33061995,12.8281298 8.38128231,13.0680556 C7.98044544,12.9445138 7.56352676,12.8591779 7.12253183,12.8591779 C4.74642069,12.8591779 2.82022848,14.7854631 2.82022848,17.1615742 C2.82022848,19.5376854 4.74651365,21.4638776 7.12253183,21.4638776 C7.60786794,21.4638776 8.06652497,21.3660853 8.50129168,21.2177236 C9.27461309,22.3608337 10.5831893,23.1119381 12.0667133,23.1119381 C14.4427315,23.1119381 16.3691096,21.1856529 16.3691096,18.8096347 C16.3691096,18.262946 16.2570947,17.7456322 16.0713637,17.2646652 C18.0082461,17.2201381 19.5666017,15.6432837 19.5666017,13.6956181 C19.5666017,13.2920855 19.4847053,12.9106769 19.3621861,12.5489755 C20.3125004,11.9062608 20.9373671,10.818275 20.9373671,9.58443736 C20.9373671,9.43951513 20.9116177,9.30175069 20.8946992,9.16222005 C21.0804302,9.20851336 21.2714598,9.24049107 21.4715064,9.24049107 C22.7941194,9.23872486 23.8671389,8.16579834 23.8671389,6.84309244 L23.8671389,6.84309244 Z" id="Shape" transform="translate(13.343684, 13.779699) scale(-1, 1) rotate(-300.000000) translate(-13.343684, -13.779699) "></path>
                </g>
                <g id="transport-(3)" transform="translate(0.000000, 2.320000)">
                    <g id="Capa_1">
                        <g id="Group">
                            <path d="M2.20524,5.07964 L21.08076,5.07964 C21.29884,5.07964 21.50068,4.95204 21.59464,4.75252 C22.16652,3.5438 22.6804,2.29448 22.13056,1.48248 C21.60392,0.69716 20.31864,0.37584 17.68892,0.37584 C16.0162,0.37584 13.90152,0.50924 11.66736,0.65076 C8.89032,0.82592 5.74556,1.02544 2.65184,1.02544 C2.44652,1.02544 2.25744,1.13448 2.15652,1.31196 C2.1078,1.3978 1.67512,2.20748 1.62176,4.13772 C1.61596,4.3036 1.62408,4.44512 1.638,4.57272 C1.67048,4.8604 1.91408,5.07964 2.20524,5.07964 L2.20524,5.07964 Z" id="Shape"></path>
                            <path d="M27.37956,12.9978 C27.56864,12.92936 27.709,12.77044 27.7496,12.57208 L28.10804,10.82976 C28.1498,10.6314 28.08136,10.42492 27.9294,10.2892 L26.03512,8.59908 C25.93304,8.5086 25.80196,8.4564 25.6674,8.45408 L23.36364,8.40768 C22.90428,8.01444 21.55868,6.85908 20.952,6.35216 C20.84992,6.26632 20.72,6.21992 20.5866,6.21992 L3.14832,6.21992 C2.96272,6.21992 2.78988,6.30924 2.68316,6.4612 C2.57644,6.612 2.54976,6.80572 2.61124,6.98088 C2.75624,7.3892 3.05204,7.7372 3.46036,8.22092 C3.89652,8.73596 4.49508,9.44124 5.19224,10.556 C5.68988,11.35408 5.78268,12.17072 5.46832,12.98852 C4.973,14.26916 1.6042,15.26676 0.80264,15.49412 C0.16348,15.6774 -0.633710298,20.45776 1.25927455,20.45776 C4.2696097,20.45776 12.29028,20.45776 12.29028,20.45776 C12.81808,23.77536 15.69024,26.32272 19.154,26.32272 C22.99128,26.32272 26.114,23.20232 26.114,19.36272 C26.114,19.1574 26.10008,18.95556 26.08384,18.7572 C28.10456,18.47184 28.434,18.1366 28.59176,17.97304 C28.80868,17.75264 28.8458,17.51484 28.84,17.3594 C28.79476,16.09732 27.67072,14.1288 27.03852,13.11612 L27.37956,12.9978 Z M23.25924,19.3604 C23.25924,21.62588 21.416,23.46796 19.15168,23.46796 C16.88736,23.46796 15.04528,21.62588 15.04528,19.3604 C18.05084,19.33836 21.30232,19.15276 23.2256,19.02864 C23.23488,19.14 23.25924,19.24904 23.25924,19.3604 L23.25924,19.3604 Z" id="Shape"></path>
                        </g>
                    </g>
                </g>
            </g>
        </g>
    </g>
</svg>