<?xml version="1.0" encoding="UTF-8" standalone="no"?>
<svg width="48px" height="34px" viewBox="0 0 48 34" version="1.1" xmlns="http://www.w3.org/2000/svg" xmlns:xlink="http://www.w3.org/1999/xlink">
    <!-- Generator: Sketch 3.6.1 (26313) - http://www.bohemiancoding.com/sketch -->
    <title>engine oil change</title>
    <desc>Created with Sketch.</desc>
    <defs></defs>
    <g id="Page-1" stroke="none" stroke-width="1" fill="none" fill-rule="evenodd">
        <g id="28-getstarted-copy" transform="translate(-435.000000, -1383.000000)" fill="#FFFFFF">
            <g id="engine-oil-change" transform="translate(435.000000, 1383.000000)">
                <g id="Capa_1">
                    <g id="XMLID_125_">
                        <path d="M44.9909323,16.4637263 C44.7721593,15.850297 44.1967326,15.4349114 43.5456376,15.419726 L32.5572819,15.1568277 L25.2991479,12.4531834 L26.3087963,9.74795718 L26.368951,9.770419 C26.5506814,9.83796266 26.7366859,9.87023176 26.919841,9.87023176 C27.5587467,9.87023176 28.1602933,9.47809893 28.3974292,8.84458057 C28.700577,8.02978581 28.286618,7.1229292 27.4708893,6.81922002 L21.3795973,4.55089214 C20.5654516,4.24718297 19.6572746,4.66161944 19.3509608,5.47657239 C19.0479713,6.29168352 19.4619303,7.19838195 20.2773424,7.50193294 L20.4022425,7.54828022 L19.3941771,10.25319 L12.1178385,7.54385113 L8.57821199,0.975032991 C8.18578203,0.245340066 7.29011088,-0.0567872881 6.53596148,0.28899826 L0.921474322,2.85186077 C0.492160053,3.04800628 0.173498687,3.42479547 0.0520812664,3.87988469 C-0.0677531369,4.33434117 0.0213707324,4.81948494 0.295391013,5.20244322 L7.36862854,15.055275 L4.39983805,23.014828 C4.25356726,23.4063281 4.26908083,23.8392719 4.44305442,24.2189084 C4.615445,24.5988612 4.93394806,24.8943449 5.32479501,25.0401886 L26.2457922,32.8323852 C26.4257813,32.8994543 26.6121024,32.9315653 26.7966822,32.9315653 C27.1677415,32.9315653 27.5338933,32.8001161 27.8246936,32.5509797 L44.5353399,18.1875922 C45.029083,17.7623993 45.2108134,17.0774719 44.9909323,16.4637263 L44.9909323,16.4637263 Z M3.9721068,4.92167042 L6.50224322,3.76662647 L9.50158594,9.3335207 L8.69503866,11.498714 L3.9721068,4.92167042 L3.9721068,4.92167042 Z" id="XMLID_127_"></path>
                        <path d="M44.6722709,24.4980993 C44.5812474,24.2975247 44.3797294,24.1684484 44.1581069,24.1673411 C43.9366428,24.1673411 43.7348081,24.2967338 43.6441013,24.4980993 C42.8133338,26.3121289 41.2679924,29.8414826 41.2679924,31.0071247 C41.2679924,32.6017561 42.5622673,33.8942601 44.1581069,33.8942601 C45.7526802,33.8942601 47.0467968,32.6017561 47.0467968,31.0071247 C47.0467968,29.8416408 45.503355,26.3127617 44.6722709,24.4980993 L44.6722709,24.4980993 Z" id="XMLID_126_"></path>
                    </g>
                </g>
            </g>
        </g>
    </g>
</svg>