<?xml version="1.0" encoding="UTF-8" standalone="no"?>
<svg width="44px" height="42px" viewBox="0 0 44 42" version="1.1" xmlns="http://www.w3.org/2000/svg" xmlns:xlink="http://www.w3.org/1999/xlink">
    <!-- Generator: Sketch 3.6.1 (26313) - http://www.bohemiancoding.com/sketch -->
    <title>express service</title>
    <desc>Created with Sketch.</desc>
    <defs></defs>
    <g id="Page-1" stroke="none" stroke-width="1" fill="none" fill-rule="evenodd">
        <g id="28-getstarted-copy" transform="translate(-865.000000, -1379.000000)" fill="#FFFFFF">
            <g id="express-service" transform="translate(865.000000, 1379.000000)">
                <g id="Capa_1">
                    <g id="Group">
                        <path d="M20.4653373,6.16641509 C16.1978549,6.16641509 12.1858783,7.8149434 9.16830861,10.8083774 C2.93940023,16.9878113 2.93940023,27.0426792 9.16830861,33.2223396 C12.1858783,36.2157736 16.1978549,37.8643019 20.4653373,37.8643019 C24.7328197,37.8643019 28.7447963,36.2158868 31.7622519,33.2223396 C37.9911602,27.0426792 37.9911602,16.9878113 31.7622519,10.8083774 C28.7447963,7.81483019 24.7327055,6.16641509 20.4653373,6.16641509 L20.4653373,6.16641509 Z M29.3415089,30.8208679 C26.9706347,33.1727547 23.8182939,34.4680755 20.4653373,34.4680755 C17.1122665,34.4680755 13.9599258,33.1728679 11.5891657,30.8208679 C6.69484405,25.9653962 6.69484405,18.0650943 11.5890516,13.2098491 C13.9599258,10.8579623 17.1122665,9.56264151 20.4653373,9.56264151 C23.8182939,9.56264151 26.9706347,10.8578491 29.3415089,13.2098491 C34.2358305,18.0650943 34.2357164,25.9653962 29.3415089,30.8208679 L29.3415089,30.8208679 Z" id="Shape"></path>
                        <path d="M27.0699156,14.6710189 C24.4887255,16.5793585 21.3814606,18.8983019 20.3533895,19.7564151 C19.8071161,19.7829057 19.2686027,20.0004906 18.8515087,20.4143774 C17.9601485,21.2986415 17.9601485,22.7323019 18.8515087,23.6164528 C19.7428688,24.500717 21.188034,24.500717 22.0791659,23.6164528 C22.4963741,23.2026792 22.715705,22.6683396 22.7424082,22.1265283 C23.6071793,21.1067547 25.9448458,18.0241132 27.8686135,15.4632453 C28.0377335,15.2379623 28.0147962,14.9234717 27.8144084,14.7249057 C27.6140207,14.5257736 27.2970064,14.5031321 27.0699156,14.6710189 L27.0699156,14.6710189 Z" id="Shape"></path>
                        <path d="M43.7893948,19.518566 C43.6563355,18.6228679 43.4990837,17.7373585 43.2743892,16.8595472 C42.6085223,14.2595094 41.4737527,11.7886415 39.9259972,9.58822642 C38.4284528,7.45913208 36.564596,5.58724528 34.4227526,4.09369811 C32.2635635,2.58769811 29.8364301,1.46739623 27.2827419,0.803773585 C25.8897278,0.441849057 24.4548331,0.205018868 23.0161725,0.129396226 C22.1052985,0.0816226415 21.2065208,0.0869433962 20.2970162,0.133811321 C19.1930579,0.190754717 18.1000547,0.364301887 17.0185773,0.583924528 C16.1085021,0.768679245 15.2010516,1.02758491 14.3290911,1.34513208 C13.6417704,1.59520755 12.9539932,1.85569811 12.2978261,2.18026415 C11.7942321,2.42943396 11.2964581,2.6850566 10.8024499,2.95324528 C10.3770254,3.18384906 9.96483837,3.45181132 9.56429117,3.72135849 C8.99348288,4.10569811 8.43865083,4.50713208 7.90378908,4.93992453 C6.29783445,6.23898113 4.86271149,7.7670566 3.70614571,9.47513208 C3.01460268,10.4963774 2.40499495,11.5566792 1.88987527,12.6772075 C0.753622141,15.1485283 0.119023,17.846717 0.0147209655,20.5599623 C-0.0381147479,21.9307925 0.0530639454,23.2987925 0.260184507,24.6542264 C0.475749652,26.0630943 0.86009238,27.4364151 1.35786642,28.7716981 C2.08547011,30.7222642 3.15188424,32.5437736 4.42975534,34.1882264 C6.13099684,36.377434 8.33959813,38.2186415 10.7772303,39.5509811 C13.1311012,40.8373585 15.7544001,41.6625283 18.4281383,41.9413585 L16.9951835,40.8238868 C14.887689,40.3102642 12.8633851,39.4403774 11.0500816,38.2632453 C8.72348439,36.7526038 6.7108203,34.7377358 5.23918021,32.3952453 C4.09562366,30.5750943 3.25835448,28.5689434 2.79333173,26.4732453 C2.27764148,24.1489811 2.22822924,21.7535094 2.60241565,19.4066038 C2.92399457,17.3894717 3.60081663,15.407434 4.59362593,13.6186415 C5.15941312,12.6076981 5.79047466,11.6344528 6.53759219,10.7446415 C7.24351384,9.90396226 8.00375471,9.11445283 8.84513206,8.40509434 C9.8866689,7.52683019 11.0190421,6.78101887 12.2212543,6.13833962 C14.0104792,5.18207547 15.9869685,4.572 17.9934704,4.27573585 C20.5708946,3.89501887 23.2361882,4.08532075 25.7332747,4.82343396 C28.2254543,5.56018868 30.5480575,6.84396226 32.4833509,8.56811321 C34.4382723,10.3102642 36.0038299,12.4965283 36.9939004,14.9128302 C37.5124436,16.1782642 37.8790983,17.4949811 38.0817684,18.8461132 L43.9719804,21.8303774 C43.9318116,21.0603396 43.9028261,20.2822642 43.7893948,19.518566 L43.7893948,19.518566 Z" id="Shape"></path>
                    </g>
                </g>
            </g>
        </g>
    </g>
</svg>