<?xml version="1.0" encoding="UTF-8" standalone="no"?>
<svg width="43px" height="33px" viewBox="0 0 43 33" version="1.1" xmlns="http://www.w3.org/2000/svg" xmlns:xlink="http://www.w3.org/1999/xlink">
    <!-- Generator: Sketch 3.6.1 (26313) - http://www.bohemiancoding.com/sketch -->
    <title>free wifi</title>
    <desc>Created with Sketch.</desc>
    <defs></defs>
    <g id="Page-1" stroke="none" stroke-width="1" fill="none" fill-rule="evenodd">
        <g id="28-getstarted-copy" transform="translate(-575.000000, -1384.000000)" fill="#FFFFFF">
            <g id="free-wifi" transform="translate(575.000000, 1383.000000)">
                <g id="Capa_1">
                    <g id="Group">
                        <ellipse id="Oval" cx="21.5263492" cy="28.4163492" rx="5.00603175" ry="5.00603175"></ellipse>
                        <path d="M33.4904762,16.3552381 C33.4161905,16.2788889 33.3377778,16.2107937 33.2614286,16.1406349 L33.0365079,15.9280952 C32.9993651,15.8888889 32.9580952,15.86 32.9106349,15.8228571 C26.4374603,9.94190476 16.5306349,10.1750794 10.3525397,16.3531746 L9.62825397,17.0795238 L8.62539683,18.082381 C7.40380952,19.3039683 7.41,21.2952381 8.63365079,22.5188889 C9.85936508,23.7466667 11.8506349,23.7487302 13.0701587,22.5271429 L14.7993651,20.7979365 C18.728254,16.8711111 25.1188889,16.8711111 29.0457143,20.795873 L30.294127,22.0050794 C31.5033333,23.2142857 33.4760317,23.2122222 34.6914286,21.9947619 C35.2795238,21.4087302 35.6034921,20.6266667 35.6055556,19.7950794 C35.607619,18.967619 35.2877778,18.1855556 34.6996825,17.6015873 L33.4904762,16.3552381 L33.4904762,16.3552381 Z" id="Shape"></path>
                        <path d="M42.0188889,10.1668254 L40.9788889,9.1268254 C40.9747619,9.12269841 40.9726984,9.11650794 40.9644444,9.11444444 L40.1431746,8.28904762 C39.9987302,8.14666667 39.8419048,8.02285714 39.6768254,7.91555556 C29.1261905,-1.34746032 13.0784127,-1.06269841 2.86412698,8.76365079 C2.81460317,8.80904762 2.75888889,8.84 2.70936508,8.88952381 L0.831587302,10.7693651 C-0.282698413,11.8815873 -0.276507937,13.6912698 0.843968254,14.811746 C1.96238095,15.9301587 3.77206349,15.9384127 4.88634921,14.8220635 L6.76412698,12.9463492 C6.77650794,12.9298413 6.7868254,12.9153968 6.79920635,12.9050794 C15.0593651,4.92555556 28.1625397,4.87603175 36.4887302,12.7420635 L37.9661905,14.2215873 C39.0784127,15.3338095 40.8922222,15.3296825 42.0106349,14.2112698 C43.1269841,13.0907937 43.1311111,11.2790476 42.0188889,10.1668254 L42.0188889,10.1668254 Z" id="Shape"></path>
                    </g>
                </g>
            </g>
        </g>
    </g>
</svg>