<?xml version="1.0" encoding="UTF-8" standalone="no"?>
<svg width="30px" height="41px" viewBox="0 0 30 41" version="1.1" xmlns="http://www.w3.org/2000/svg" xmlns:xlink="http://www.w3.org/1999/xlink">
    <!-- Generator: Sketch 3.6.1 (26313) - http://www.bohemiancoding.com/sketch -->
    <title>general store</title>
    <desc>Created with Sketch.</desc>
    <defs></defs>
    <g id="Page-1" stroke="none" stroke-width="1" fill="none" fill-rule="evenodd">
        <g id="28-getstarted-copy" transform="translate(-510.000000, -1378.000000)" fill="#FFFFFF">
            <g id="general-store" transform="translate(510.000000, 1378.000000)">
                <g id="Group">
                    <path d="M11.7178292,6.30121925 L11.7178292,5.85844801 C11.7178292,4.1305098 13.1109677,2.72486275 14.8235294,2.72486275 C16.5360911,2.72486275 17.9292296,4.1305098 17.9292296,5.85844801 L17.9292296,6.30121925 L20.6298444,6.30121925 L20.6298444,5.85844801 C20.6298444,2.62809269 18.0251385,0 14.8235294,0 C11.6219203,0 9.01721442,2.62809269 9.01721442,5.85844801 L9.01721442,6.30121925 L11.7178292,6.30121925 L11.7178292,6.30121925 Z" id="Shape"></path>
                    <path d="M18.5462163,20.4659014 C17.1637343,20.4659014 16.0389222,21.646303 16.0389222,23.0971646 C16.0389222,23.7744171 15.4948918,24.32347 14.823666,24.32347 C14.1524402,24.32347 13.6082732,23.774555 13.6082732,23.0971646 C13.6082732,21.646303 12.4834611,20.4659014 11.1008425,20.4659014 C9.71836053,20.4659014 8.59354839,21.646303 8.59354839,23.0971646 C8.59354839,25.2356173 12.1770171,28.4589424 14.8231195,30.301571 C17.4693586,28.4560475 21.0535104,25.2305169 21.0535104,23.0971646 C21.0535104,21.6461652 19.9286983,20.4659014 18.5462163,20.4659014 L18.5462163,20.4659014 Z" id="Shape"></path>
                    <path d="M1.45543833,8.14053951 C0.709753321,8.14053951 0.105062619,8.75065954 0.105062619,9.50303981 L0.105062619,35.9001735 C0.105062619,38.6799002 2.34621632,40.9411765 5.10120683,40.9411765 L24.5455787,40.9411765 C27.3005693,40.9411765 29.541723,38.6799002 29.541723,35.9001735 L29.541723,9.50303981 C29.541723,8.75065954 28.9370323,8.14053951 28.1913472,8.14053951 L1.45543833,8.14053951 L1.45543833,8.14053951 Z M15.4801366,32.8072537 C15.2802581,32.936694 15.051962,33.0014831 14.823666,33.0014831 C14.59537,33.0014831 14.3672106,32.936694 14.1671954,32.8072537 C13.347871,32.2766726 6.16303605,27.4970315 6.16303605,23.0971646 C6.16303605,20.2940036 8.37809488,18.0135663 11.1008425,18.0135663 C12.5845617,18.0135663 13.9175863,18.6908188 14.823666,19.7606655 C15.7296091,18.6908188 17.0626338,18.0135663 18.5462163,18.0135663 C21.2689639,18.0135663 23.4840228,20.2940036 23.4840228,23.0971646 C23.4840228,27.4967558 16.2994611,32.2766726 15.4801366,32.8072537 L15.4801366,32.8072537 Z" id="Shape"></path>
                </g>
            </g>
        </g>
    </g>
</svg>