<?xml version="1.0" encoding="UTF-8" standalone="no"?>
<svg width="43px" height="40px" viewBox="0 0 43 40" version="1.1" xmlns="http://www.w3.org/2000/svg" xmlns:xlink="http://www.w3.org/1999/xlink">
    <!-- Generator: Sketch 3.6.1 (26313) - http://www.bohemiancoding.com/sketch -->
    <title>home drop</title>
    <desc>Created with Sketch.</desc>
    <defs></defs>
    <g id="Page-1" stroke="none" stroke-width="1" fill="none" fill-rule="evenodd">
        <g id="28-getstarted-copy" transform="translate(-995.000000, -1379.000000)">
            <g id="home-drop" transform="translate(995.000000, 1379.000000)">
                <g id="Group">
                    <path d="M27.6808154,24.2513213 L21.173577,33.1744834 C20.8610694,33.5243801 20.3499504,33.5243801 20.0374427,33.1744834 L13.5304263,24.2514803 C13.2180296,23.9015306 13.3558925,23.6153238 13.8371643,23.6153238 L16.5593595,23.6153238 C17.0404649,23.6153238 17.4342478,23.2389647 17.4342478,22.7789762 L17.4385196,20.0469392 L17.4385196,12.9711554 L17.4373546,12.9556705 C17.437521,12.4955759 17.8435092,12.121285 18.3245035,12.121179 L22.917473,12.121285 C23.3986893,12.121285 23.7924167,12.497591 23.7924167,12.9573674 L23.7769384,22.7790292 C23.7769384,23.2390177 24.1704994,23.6153768 24.6517712,23.6153768 L27.3738555,23.6153768 C27.8549608,23.6153238 27.9930456,23.9015306 27.6808154,24.2513213 L27.6808154,24.2513213 Z M41.9045812,17.452043 L22.1803081,0.483154122 C21.6235078,0.00401433692 20.801306,0.00372759857 20.2440771,0.483154122 L0.519518416,17.452043 C0.046852362,17.8587814 -0.123558821,18.5178495 0.0924191409,19.1037993 C0.308397102,19.6898925 0.865197429,20.078853 1.48756249,20.078853 L5.63528211,20.078853 L5.63528211,38.3829391 C5.63528211,39.2074552 6.30149985,39.876129 7.12313029,39.876129 L35.3008264,39.876129 C36.1224569,39.876129 36.7883889,39.2074552 36.7883889,38.3829391 L36.7883889,20.078853 L40.9363942,20.078853 C41.5587593,20.078853 42.1157025,19.6898925 42.3315376,19.1037993 C42.5476584,18.5177061 42.3772472,17.8587814 41.9045812,17.452043 L41.9045812,17.452043 Z" id="Shape" fill="#FFFFFF"></path>
                    <g id="arrows" transform="translate(15.757576, 8.484848)">
                        <g id="Capa_1">
                            <g id="Layer_5_60_"></g>
                        </g>
                    </g>
                </g>
            </g>
        </g>
    </g>
</svg>