<?xml version="1.0" encoding="UTF-8" standalone="no"?>
<svg width="43px" height="40px" viewBox="0 0 43 40" version="1.1" xmlns="http://www.w3.org/2000/svg" xmlns:xlink="http://www.w3.org/1999/xlink">
    <!-- Generator: Sketch 3.6.1 (26313) - http://www.bohemiancoding.com/sketch -->
    <title>home pick up</title>
    <desc>Created with Sketch.</desc>
    <defs></defs>
    <g id="Page-1" stroke="none" stroke-width="1" fill="none" fill-rule="evenodd">
        <g id="28-getstarted-copy" transform="translate(-935.000000, -1379.000000)">
            <g id="home-pick-up" transform="translate(935.000000, 1379.000000)">
                <g id="Group">
                    <path d="M27.6808154,21.3067637 L21.173577,12.3836015 C20.8610694,12.0337048 20.3499504,12.0337048 20.0374427,12.3836015 L13.5304263,21.3066046 C13.2180296,21.6565543 13.3558925,21.9427612 13.8371643,21.9427612 L16.5593595,21.9427612 C17.0404649,21.9427612 17.4342478,22.3191202 17.4342478,22.7791087 L17.4385196,25.5111457 L17.4385196,32.5869295 L17.4373546,32.6024144 C17.437521,33.062509 17.8435092,33.4367999 18.3245035,33.436906 L22.917473,33.4367999 C23.3986893,33.4367999 23.7924167,33.0604939 23.7924167,32.6007175 L23.7769384,22.7790557 C23.7769384,22.3190672 24.1704994,21.9427081 24.6517712,21.9427081 L27.3738555,21.9427081 C27.8549608,21.9427612 27.9930456,21.6565543 27.6808154,21.3067637 L27.6808154,21.3067637 Z M41.9045812,17.452043 L22.1803081,0.483154122 C21.6235078,0.00401433692 20.801306,0.00372759857 20.2440771,0.483154122 L0.519518416,17.452043 C0.046852362,17.8587814 -0.123558821,18.5178495 0.0924191409,19.1037993 C0.308397102,19.6898925 0.865197429,20.078853 1.48756249,20.078853 L5.63528211,20.078853 L5.63528211,38.3829391 C5.63528211,39.2074552 6.30149985,39.876129 7.12313029,39.876129 L35.3008264,39.876129 C36.1224569,39.876129 36.7883889,39.2074552 36.7883889,38.3829391 L36.7883889,20.078853 L40.9363942,20.078853 C41.5587593,20.078853 42.1157025,19.6898925 42.3315376,19.1037993 C42.5476584,18.5177061 42.3772472,17.8587814 41.9045812,17.452043 L41.9045812,17.452043 Z" id="Shape" fill="#FFFFFF"></path>
                    <g id="arrows" transform="translate(15.757576, 8.484848)">
                        <g id="Capa_1">
                            <g id="Layer_5_60_"></g>
                        </g>
                    </g>
                </g>
            </g>
        </g>
    </g>
</svg>