<?xml version="1.0" encoding="UTF-8" standalone="no"?>
<svg width="48px" height="45px" viewBox="0 0 48 45" version="1.1" xmlns="http://www.w3.org/2000/svg" xmlns:xlink="http://www.w3.org/1999/xlink">
    <!-- Generator: Sketch 3.6.1 (26313) - http://www.bohemiancoding.com/sketch -->
    <title>insurance</title>
    <desc>Created with Sketch.</desc>
    <defs></defs>
    <g id="Page-1" stroke="none" stroke-width="1" fill="none" fill-rule="evenodd">
        <g id="28-getstarted-copy" transform="translate(-18.000000, -1377.000000)" fill="#FFFFFF">
            <g id="insurance" transform="translate(18.000000, 1377.000000)">
                <g id="Capa_1">
                    <g id="Group">
                        <path d="M37.185652,13.4259206 C38.4411846,13.9610469 39.5651056,14.5780505 40.3610422,14.5780505 C40.7815886,14.5780505 41.1105372,14.4058484 41.3192837,13.9581227 C41.8004132,12.9263718 37.1932048,10.4874368 38.0649908,10.4874368 C38.1496786,10.4874368 38.2859504,10.5105054 38.4837695,10.5598917 C40.9993343,11.1902166 44.0585399,14.2247112 44.7390955,17.8997653 C45.0961662,19.825343 45.8716942,20.4795487 46.5305556,20.4795487 C47.1294766,20.4795487 47.6321396,19.9400361 47.6382461,19.3235199 C47.656405,17.4400181 47.0155418,11.2231949 45.5290863,8.77516245 C44.0419881,6.32712996 37.2330579,2.84198556 36.0855142,1.6866065 C35.8124885,1.41189531 35.1446281,0.713501805 34.5532599,0.0636823105 L27.3224977,0.0636823105 C28.4411157,4.61241877 30.252663,7.5898917 31.5326217,9.45909747 C32.7915289,11.2975993 35.1947658,12.578556 37.185652,13.4259206 L37.185652,13.4259206 Z" id="Shape"></path>
                        <path d="M1.10769054,20.4762996 C1.76671258,20.4762996 2.54224059,19.8255054 2.89931129,17.8999278 C3.58002755,14.2248736 6.63923324,11.1903791 9.15495868,10.5600542 C9.35293848,10.5105054 9.48904959,10.4875993 9.57389807,10.4875993 C10.4453627,10.4877617 5.83815427,12.9263718 6.31912305,13.9582852 C6.52786961,14.4060108 6.85681818,14.578213 7.27736455,14.578213 C8.07346189,14.578213 9.19738292,13.9612094 10.4530762,13.426083 C12.4439624,12.578556 14.8471993,11.2975993 16.1057851,9.45925993 C17.3857438,7.59005415 19.1972911,4.61258123 20.3159091,0.0638447653 L13.0849862,0.0638447653 C12.493618,0.71366426 11.826079,1.41205776 11.5530533,1.68676895 C10.4051882,2.84198556 3.59625803,6.31348375 2.10948118,8.7616787 C0.623025712,11.2095487 -0.0178374656,17.4333574 0.000321395775,19.3168592 C0.00626721763,19.933213 0.508930211,20.4762996 1.10769054,20.4762996 L1.10769054,20.4762996 Z" id="Shape"></path>
                        <path d="M39.9498163,29.7331408 C39.3333792,29.7331408 38.7344582,29.8104693 38.1610882,29.9532671 L37.0720386,27.5604693 C37.9843205,27.284296 38.9231175,27.1337004 39.9231405,27.1337004 C40.3380624,27.1337004 40.7999082,27.1622924 41.1213039,27.2120036 L41.1213039,22.2917329 C41.1213039,20.8951083 39.9599403,19.8831769 38.578742,19.8831769 L35.5785124,19.8831769 L35.5280533,15.6915162 C35.5274105,15.6356318 35.5221074,15.5803971 35.5145546,15.5258123 C35.4700413,15.2074007 35.3107897,14.9143321 35.0628329,14.7067148 C34.7722911,14.4633574 34.3907943,14.3610108 34.0191001,14.4276173 L33.5182048,14.51713 L28.4922176,15.4137184 C27.7930211,15.5384838 27.3261938,16.212509 27.4497704,16.9195126 C27.5731864,17.6263538 28.2389578,18.0977978 28.9392792,17.9733574 L32.9756887,17.2531949 L33.0054178,19.7111372 C31.4837695,19.8675812 29.451584,20.4049819 27.6320018,21.976083 C24.1643021,24.9707762 25.4140496,26.3001444 19.1288338,26.3001444 C16.4866391,26.3001444 13.1531221,22.4524007 9.8231405,21.9580505 C7.44802571,21.6050361 4.96026171,21.8082671 3.11046832,22.4723827 C2.71434803,22.6145307 2.34651056,22.777148 2.0164371,22.9608845 C0.908585859,23.5774007 0.214049587,24.4218412 0.214049587,25.4609025 C0.214049587,27.0495487 1.6736685,28.2437545 3.63064738,29.1314079 C5.30190542,27.8770939 7.36960514,27.1337004 9.60619835,27.1337004 C10.6009183,27.1337004 11.5615702,27.2828339 12.4695133,27.5564079 L11.3839991,29.9506679 C10.8136823,29.8094946 10.2187787,29.7329783 9.60619835,29.7329783 C5.48445822,29.7329783 2.13101469,33.1229242 2.13101469,37.2902166 C2.13101469,41.4565343 5.48429752,44.8464801 9.60619835,44.8464801 C13.7280992,44.8464801 17.081382,41.4566968 17.081382,37.2902166 C17.081382,34.6667329 15.751607,32.3520758 13.7382231,30.9965523 L14.8195592,28.6113899 C17.7085859,30.3917329 19.6432277,33.6041155 19.6517447,37.2658484 L29.9045914,37.2658484 C29.9132691,33.609639 31.8422865,30.4016426 34.7242424,28.6196751 L35.8087925,31.0027256 C33.8007117,32.3590614 32.4751148,34.6706318 32.4751148,37.2902166 C32.4751148,41.4565343 35.8283976,44.8464801 39.9502984,44.8464801 C44.0721993,44.8464801 47.4254821,41.4566968 47.4254821,37.2902166 C47.425,33.1230866 44.0715565,29.7331408 39.9498163,29.7331408 L39.9498163,29.7331408 Z M14.4128329,37.2903791 C14.4128329,39.9695848 12.2562672,42.1494043 9.60571625,42.1494043 C6.95516529,42.1494043 4.79876033,39.9695848 4.79876033,37.2903791 C4.79876033,34.6106859 6.95516529,32.4303791 9.60571625,32.4303791 C9.82073003,32.4303791 10.0320478,32.4462996 10.2396694,32.4740794 L9.04745179,35.1038989 L8.40112489,36.5296029 C8.10528007,37.1821841 8.38875115,37.9535199 9.03411387,38.2524368 C9.20766758,38.332852 9.38973829,38.3708664 9.56891644,38.3708664 C10.0559917,38.3708664 10.5221763,38.0894946 10.738315,37.6123646 L11.4579201,36.0251805 L12.6044995,33.4959206 C13.7057622,34.3876354 14.4128329,35.7566426 14.4128329,37.2903791 L14.4128329,37.2903791 Z M39.9498163,42.1494043 C37.2992654,42.1494043 35.1428604,39.9695848 35.1428604,37.2903791 C35.1428604,35.7592419 35.8475207,34.3921841 36.9454086,33.5006318 L38.0958448,36.0282671 L38.8176997,37.6144765 C39.0344812,38.0906318 39.4998623,38.3711913 39.9864555,38.3711913 C40.1662764,38.3711913 40.3489899,38.332852 40.5230257,38.2519495 C41.168067,37.9518953 41.4502525,37.1800722 41.1536042,36.5281408 L40.5050275,35.1034116 L39.3089532,32.4750542 C39.5188246,32.4466245 39.7325528,32.430704 39.949977,32.430704 C42.600528,32.430704 44.7570937,34.6110108 44.7570937,37.290704 C44.756933,39.9695848 42.6003673,42.1494043 39.9498163,42.1494043 L39.9498163,42.1494043 Z" id="Shape"></path>
                    </g>
                </g>
            </g>
        </g>
    </g>
</svg>