<?xml version="1.0" encoding="UTF-8" standalone="no"?>
<svg width="44px" height="44px" viewBox="0 0 44 44" version="1.1" xmlns="http://www.w3.org/2000/svg" xmlns:xlink="http://www.w3.org/1999/xlink">
    <!-- Generator: Sketch 3.6.1 (26313) - http://www.bohemiancoding.com/sketch -->
    <title>nitrogen filling</title>
    <desc>Created with Sketch.</desc>
    <defs></defs>
    <g id="Page-1" stroke="none" stroke-width="1" fill="none" fill-rule="evenodd">
        <g id="28-getstarted-copy" transform="translate(-715.000000, -1379.000000)" fill="#FFFFFF">
            <g id="nitrogen-filling" transform="translate(715.000000, 1379.000000)">
                <g id="Capa_1">
                    <g id="Group">
                        <path d="M21.9428638,0 C9.84337391,0 0,9.84337391 0,21.9428638 C0,34.0423536 9.84337391,43.8857275 21.9428638,43.8857275 C34.0423536,43.8857275 43.8857275,34.0423536 43.8857275,21.9428638 C43.8857275,9.84337391 34.0423536,0 21.9428638,0 L21.9428638,0 Z M26.491571,21.9428638 C26.5966609,22.6430377 26.5525333,23.3655304 26.349113,24.0630261 C25.7371942,26.1635478 23.7824464,27.6305971 21.5960928,27.6305971 L21.5958377,27.6305971 C21.1272696,27.6305971 20.6602319,27.5636406 20.208371,27.4316406 C17.8034203,26.7304464 16.334458,24.3547014 16.6974261,21.9428638 L5.02390725,21.9428638 C5.02390725,12.6135884 12.6135884,5.02390725 21.9428638,5.02390725 C31.2721391,5.02390725 38.8618203,12.6135884 38.8618203,21.9428638 L26.491571,21.9428638 Z M27.0587919,40.0720335 L28.9766927,40.0720335 C29.1677489,40.0720335 29.3134883,40.1112239 29.4139153,40.189606 C29.5143423,40.267988 29.564555,40.374537 29.564555,40.5092561 C29.564555,40.6292786 29.5247522,40.7309288 29.4451455,40.8142097 C29.3655387,40.8974906 29.2449057,40.9391304 29.0832428,40.9391304 L26.3790761,40.9391304 C26.1953682,40.9391304 26.0520782,40.8883053 25.9492018,40.7866536 C25.8463253,40.6850019 25.7948879,40.5655936 25.7948879,40.428425 C25.7948879,40.3402453 25.8279548,40.2232863 25.8940897,40.0775447 C25.9602245,39.9318031 26.0324819,39.8172936 26.1108639,39.7340127 C26.4366392,39.3959902 26.7305675,39.1063484 26.9926574,38.8650787 C27.2547473,38.623809 27.4421266,38.4652102 27.5548007,38.3892776 C27.7556547,38.2472102 27.9228264,38.1045325 28.0563208,37.9612404 C28.1898152,37.8179482 28.2914653,37.6709841 28.3612743,37.5203436 C28.4310833,37.3697032 28.4659873,37.2221267 28.4659873,37.0776098 C28.4659873,36.9208458 28.4286339,36.7806175 28.3539261,36.6569209 C28.2792182,36.5332242 28.177568,36.4370852 28.0489725,36.3685009 C27.920377,36.2999166 27.7801487,36.265625 27.6282835,36.265625 C27.3074071,36.265625 27.0551187,36.4064656 26.8714108,36.688151 C26.8469164,36.7248926 26.8058889,36.8253181 26.7483271,36.9894305 C26.6907653,37.1535429 26.6258562,37.2796871 26.5535977,37.3678668 C26.4813393,37.4560466 26.3754026,37.5001359 26.2357846,37.5001359 C26.1133127,37.5001359 26.0116625,37.4597207 25.9308311,37.3788893 C25.8499996,37.2980578 25.8095845,37.1878347 25.8095845,37.0482167 C25.8095845,36.8792055 25.8475502,36.7028485 25.9234828,36.5191406 C25.9994154,36.3354327 26.1127002,36.1688734 26.2633407,36.0194577 C26.4139812,35.8700419 26.6050345,35.7494089 26.8365065,35.6575549 C27.0679784,35.565701 27.3392497,35.5197747 27.6503284,35.5197747 C28.0250925,35.5197747 28.3447394,35.5785603 28.6092788,35.6961334 C28.7807395,35.7745154 28.9313777,35.8822891 29.0611979,36.0194577 C29.1910182,36.1566262 29.292056,36.315225 29.3643144,36.4952587 C29.4365729,36.6752925 29.4727015,36.8620593 29.4727015,37.055565 C29.4727015,37.3592954 29.3973824,37.6354654 29.246742,37.8840834 C29.0961015,38.1327015 28.9424015,38.3274289 28.7856375,38.4682716 C28.6288734,38.6091143 28.366175,38.8301729 27.9975345,39.1314538 C27.628894,39.4327347 27.3759933,39.6666526 27.2388247,39.8332144 C27.1800382,39.8993493 27.1200279,39.9789548 27.0587919,40.0720335 Z M18.9578748,30.3327615 L22.9048347,36.3050442 L22.9048347,30.2774626 C22.9048347,29.88576 22.9889343,29.5919875 23.157136,29.3961362 C23.3253377,29.2002849 23.5522914,29.1023607 23.8380038,29.1023607 C24.1329329,29.1023607 24.3656468,29.2002849 24.5361526,29.3961362 C24.7066585,29.5919875 24.7919101,29.88576 24.7919101,30.2774626 L24.7919101,38.2474185 C24.7919101,39.1368138 24.4232544,39.5815048 23.6859318,39.5815048 C23.5016012,39.5815048 23.3357061,39.5550076 23.1882416,39.5020126 C23.0407771,39.4490175 22.9025312,39.3649179 22.7734998,39.2497113 C22.6444683,39.1345046 22.5246552,38.9997149 22.4140568,38.845338 C22.3034585,38.6909611 22.1928617,38.5331303 22.0822634,38.371841 L18.2320765,32.4686821 L18.2320765,38.4064029 C18.2320765,38.7934972 18.1422167,39.0861177 17.9624943,39.2842731 C17.782772,39.4824285 17.5523621,39.5815048 17.2712579,39.5815048 C16.9809372,39.5815048 16.7482232,39.4812765 16.5731091,39.2808169 C16.397995,39.0803574 16.3104393,38.7888889 16.3104393,38.4064029 L16.3104393,30.588519 C16.3104393,30.2567239 16.3473049,29.9963608 16.4210371,29.8074219 C16.5085942,29.6000499 16.6537524,29.4306987 16.8565161,29.2993631 C17.0592798,29.1680275 17.2781691,29.1023607 17.5131907,29.1023607 C17.6975213,29.1023607 17.855352,29.132314 17.9866876,29.1922215 C18.1180232,29.2521289 18.2332281,29.3327724 18.3323058,29.4341542 C18.4313835,29.5355361 18.5327639,29.6668697 18.6364498,29.828159 C18.7401358,29.9894483 18.8472764,30.1576474 18.9578748,30.3327615 Z" id="Shape"></path>
                        <path d="M18.6515362,21.6190493 C18.1759536,23.2517681 19.1133449,24.9611362 20.7458087,25.4374841 C22.3785275,25.9129391 24.0877681,24.9758029 24.5642435,23.3430841 C24.8274783,22.4396174 24.6577275,21.5135768 24.1769159,20.7850899 L25.3579014,9.61891014 L20.3523594,19.6697855 C19.5558957,20.0265043 18.9151536,20.7162203 18.6515362,21.6190493 L18.6515362,21.6190493 Z" id="Shape"></path>
                    </g>
                </g>
            </g>
        </g>
    </g>
</svg>