<?xml version="1.0" encoding="UTF-8" standalone="no"?>
<svg width="42px" height="42px" viewBox="0 0 42 42" version="1.1" xmlns="http://www.w3.org/2000/svg" xmlns:xlink="http://www.w3.org/1999/xlink">
    <!-- Generator: Sketch 3.6.1 (26313) - http://www.bohemiancoding.com/sketch -->
    <title>plug n play</title>
    <desc>Created with Sketch.</desc>
    <defs></defs>
    <g id="Page-1" stroke="none" stroke-width="1" fill="none" fill-rule="evenodd">
        <g id="28-getstarted-copy" transform="translate(-643.000000, -1379.000000)" fill="#FFFFFF">
            <g id="plug-n-play" transform="translate(643.000000, 1379.000000)">
                <g id="Capa_1">
                    <g id="Group">
                        <path d="M17.2579615,8.65038462 L16.6901538,8.65038462 C16.0246154,8.65038462 15.4858846,9.14469231 15.4858846,9.75530769 L15.4858846,14.4350769 L18.4630385,14.4350769 L18.4630385,9.75530769 C18.4622308,9.1455 17.9235,8.65038462 17.2579615,8.65038462 L17.2579615,8.65038462 Z" id="Shape"></path>
                        <path d="M25.2395769,8.65038462 L24.6709615,8.65038462 C24.0070385,8.65038462 23.4675,9.14469231 23.4675,9.75530769 L23.4675,14.4350769 L26.4454615,14.4350769 L26.4454615,9.75530769 C26.4438462,9.1455 25.9051154,8.65038462 25.2395769,8.65038462 L25.2395769,8.65038462 Z" id="Shape"></path>
                        <path d="M20.9652692,0.466038462 C9.40476923,0.466038462 0,9.87080769 0,21.4313077 C0,27.0124615 2.16784615,32.2648846 6.10453846,36.2209615 C8.43553846,38.5632692 11.3206154,40.3434231 14.4471923,41.3627308 C14.6555769,41.4313846 14.8671923,41.4636923 15.0747692,41.4636923 C15.9244615,41.4636923 16.7151923,40.9225385 16.9938462,40.0704231 C17.3403462,39.0099231 16.7612308,37.8694615 15.7015385,37.5245769 C13.1791154,36.6999231 10.8505385,35.2638462 8.96780769,33.3714231 C5.78953846,30.1778077 4.03926923,25.9374231 4.03926923,21.4313077 C4.03926923,12.0976154 11.6323846,4.5045 20.9660769,4.5045 C30.2997692,4.5045 37.8928846,12.0976154 37.8928846,21.4313077 C37.8928846,25.9543846 36.1329231,30.2020385 32.9385,33.3980769 C31.7116154,34.4981538 28.6690385,36.7128462 26.8412308,36.7128462 C25.9026923,36.7128462 25.2016154,36.4172308 24.6313846,35.784 C23.1864231,34.1742692 22.869,30.9152308 22.8827308,28.644 C26.3873077,28.4671154 29.1770769,25.578 29.1770769,22.0306154 L29.1770769,15.7467692 L12.7534615,15.7467692 L12.7534615,22.0306154 C12.7534615,25.5093462 15.4333846,28.3564615 18.8410385,28.6351154 C18.8200385,31.3408846 19.1996538,35.7751154 21.6186923,38.4768462 C22.953,39.9670385 24.7606154,40.7529231 26.8412308,40.7529231 C30.7472308,40.7529231 35.1943846,36.8073462 35.6870769,36.3590769 L35.7516923,36.2976923 C39.7368462,32.3343462 41.9289231,27.0560769 41.9289231,21.4345385 C41.9305385,9.87080769 32.5257692,0.466038462 20.9652692,0.466038462 L20.9652692,0.466038462 Z" id="Shape"></path>
                    </g>
                </g>
            </g>
        </g>
    </g>
</svg>