<?xml version="1.0" encoding="UTF-8" standalone="no"?>
<svg width="35px" height="42px" viewBox="0 0 35 42" version="1.1" xmlns="http://www.w3.org/2000/svg" xmlns:xlink="http://www.w3.org/1999/xlink">
    <!-- Generator: Sketch 3.6.1 (26313) - http://www.bohemiancoding.com/sketch -->
    <title>premium fuel</title>
    <desc>Created with Sketch.</desc>
    <defs></defs>
    <g id="Page-1" stroke="none" stroke-width="1" fill="none" fill-rule="evenodd">
        <g id="28-getstarted-copy" transform="translate(-163.000000, -1379.000000)">
            <g id="premium-fuel" transform="translate(163.000000, 1379.000000)">
                <g id="transport-(2)" fill="#FFFFFF">
                    <g id="Capa_1">
                        <path d="M33.533637,11.1498333 L33.0682214,11.1498333 L31.8863863,7.81296078 C31.7738697,7.4954902 31.520125,7.24836275 31.1999804,7.1450098 L29.6771009,6.65247059 C29.1085565,6.46854902 28.4999255,6.78087255 28.316692,7.34965686 C28.133253,7.91857843 28.4450377,8.52860784 29.0128283,8.71211765 L30.0277387,9.04043137 L30.7747884,11.1497647 L30.453753,11.1497647 C30.2412598,11.1497647 30.0483645,11.2745294 29.9610648,11.4688137 L29.0849842,13.4172157 C29.0494887,13.4962059 29.0333855,13.5827451 29.0382508,13.6692157 L29.3677831,19.6216863 C29.3837492,19.9084118 29.6204315,20.1328235 29.9072733,20.1328235 L30.2440693,20.1328235 L30.2440693,33.0368431 C30.2440693,34.4767843 29.4276732,35.7284804 28.2344631,36.3544314 L28.2344631,28.3054608 C28.2344631,27.5130882 27.9490602,26.7865294 27.4765181,26.2221373 L27.4765181,4.03302941 C27.4765866,1.80922549 25.6702229,0 23.4497681,0 L4.83615663,0 C2.61570181,0 0.809338102,1.80922549 0.809338102,4.03302941 L0.809338102,26.2217941 C0.336658886,26.7861176 0.0511875,27.5128137 0.0511875,28.3053235 L0.0511875,38.7530294 C0.0511875,40.543451 1.50561145,42 3.29340512,42 L24.9923825,42 C26.6081122,42 27.9511845,40.8102745 28.1948562,39.2596373 C30.9288991,38.514549 32.9458373,36.0078627 32.9458373,33.0368431 L32.9458373,20.1329608 L33.5335685,20.1329608 C33.8319224,20.1329608 34.073881,19.8907059 34.073881,19.5918333 L34.073881,11.691098 C34.0739495,11.3922255 33.8320595,11.1498333 33.533637,11.1498333 L33.533637,11.1498333 Z M23.1540866,11.5806078 L5.13197515,11.5806078 L5.13197515,4.32915686 L23.1540866,4.32915686 L23.1540866,11.5806078 L23.1540866,11.5806078 Z" id="Shape"></path>
                    </g>
                </g>
                <g id="signs" transform="translate(7.875000, 19.687500)" fill="#5C656F">
                    <g id="Capa_1">
                        <g id="Layer_5_21_">
                            <g id="Group">
                                <path d="M13.02875,13.3476792 C13.02875,13.3476792 11.3336026,10.3510189 11.0295401,9.81356604 C11.3754953,9.70501415 11.7440271,9.60915566 11.8971521,9.33720283 C12.1523467,8.88406132 11.6980896,8.14071226 11.8173703,7.65500943 C11.9402417,7.15512736 12.6655837,6.72257547 12.6655837,6.21445755 C12.6655837,5.71941509 11.915684,5.14108019 11.79273,4.64412736 C11.6726238,4.15850943 12.1255189,3.41435377 11.8694988,2.96176415 C11.6134788,2.50913208 10.7607252,2.54632075 10.4096934,2.19888679 C10.0485083,1.84134906 10.0496226,0.966566038 9.61397995,0.726962264 C9.1765625,0.486466981 8.46566627,0.972509434 7.98,0.857377358 C7.49986439,0.743561321 7.07090802,0 6.56939269,0 C6.06044811,0 5.25094929,0.84345283 5.12399175,0.873806604 C4.63857311,0.989872642 3.92676887,0.505018868 3.48980542,0.746533019 C3.05457547,0.986943396 3.05725825,1.86181132 2.69673349,2.2199434 C2.34627948,2.56801415 1.49348467,2.53243868 1.23824882,2.98558019 C0.983054245,3.43863679 1.43731132,4.18181604 1.31807193,4.66777358 C1.19850236,5.15496226 0.447900943,5.64860377 0.447900943,6.21203774 C0.447900943,6.72019811 1.17505896,7.15139151 1.29867335,7.65101887 C1.41882075,8.13663679 0.965925708,8.88070755 1.22194575,9.33346698 C1.36132665,9.57990566 1.67756486,9.68107075 1.99339033,9.77833019 C2.03024764,9.78966509 2.09995873,9.83207547 2.05274175,9.90284434 C1.83667453,10.2864481 0.0976120283,13.3735755 0.0976120283,13.3735755 C-0.0407370283,13.6191226 0.0716096698,13.8296038 0.347193396,13.841533 L1.69613797,13.8993962 C1.9717217,13.9113255 2.31742925,14.1173066 2.4645283,14.3572925 L3.18433962,15.5321321 C3.33143868,15.7721179 3.5648408,15.7676179 3.70314858,15.5221132 C3.70314858,15.5221132 5.71717571,11.9456321 5.71800118,11.9446132 C5.75840802,11.8960472 5.79902123,11.9060236 5.81846108,11.9230047 C6.03882075,12.1159953 6.34602005,12.3085189 6.60241156,12.3085189 C6.85385024,12.3085189 7.08667453,12.1272877 7.31698113,11.9251698 C7.33571934,11.9087406 7.38132665,11.8750755 7.41467571,11.9449528 C7.41521226,11.9460566 9.42701061,15.502967 9.42701061,15.502967 C9.56568986,15.7481745 9.79913325,15.7523349 9.9457783,15.5120519 L10.6635672,14.3358113 C10.8102535,14.0956557 11.1555896,13.8888679 11.4311733,13.8765142 L12.7799941,13.8160613 C13.055454,13.8036226 13.1674292,13.5928443 13.02875,13.3476792 L13.02875,13.3476792 Z M8.79870283,10.1305613 C7.30724057,11.0230472 5.51699882,10.9274009 4.14960495,10.0402642 C2.14597877,8.7201934 1.4867158,5.98945755 2.69120283,3.85115094 C3.90943396,1.68817925 6.58738797,0.924962264 8.7092217,2.11359906 C8.72036557,2.11983962 8.73138561,2.12629245 8.74244693,2.13266038 C8.75817217,2.14161792 8.77385613,2.15070283 8.78949882,2.15987264 C9.44409788,2.54806132 10.0117335,3.11145283 10.4181958,3.83005189 C11.6604481,6.02639151 10.9339917,8.85281604 8.79870283,10.1305613 L8.79870283,10.1305613 Z" id="Shape"></path>
                                <path d="M8.45761792,2.80625943 C8.45142689,2.80256604 8.4451533,2.79912736 8.43896226,2.79547642 C7.30550708,2.12073113 5.86084906,2.07140094 4.65008844,2.7959434 C2.85336675,3.87110377 2.24198113,6.24926887 3.28727594,8.09728302 C3.60623821,8.66122642 4.04332547,9.11139623 4.54760613,9.43446226 C4.59048939,9.46239623 4.63386792,9.48986321 4.67819575,9.51626887 C6.47685731,10.5880755 8.78772406,9.95493396 9.82971698,8.10496698 C10.8716686,6.25491509 10.2562795,3.87806604 8.45761792,2.80625943 L8.45761792,2.80625943 Z M8.90758255,5.83064151 L8.27778892,6.46204245 C8.08272995,6.65758019 7.96080778,7.04356132 8.00691038,7.31971698 L8.15557783,8.21126887 C8.20163915,8.48742453 8.04207547,8.60667453 7.80095519,8.47630189 L7.0224941,8.05533962 C6.78137382,7.92496698 6.38683962,7.92496698 6.14571934,8.05533962 L5.36729953,8.47630189 C5.12617925,8.60667453 4.96657429,8.48742453 5.01263561,8.21126887 L5.16130307,7.31971698 C5.20736439,7.04356132 5.08544222,6.65758019 4.89038325,6.46204245 L4.2606309,5.83064151 C4.06553066,5.63510377 4.12653302,5.44211321 4.3960908,5.40178302 L5.26638561,5.27170755 C5.5359434,5.23141981 5.8551533,4.99287736 5.97571344,4.74164151 L6.36492335,3.93049528 C6.48548349,3.67925943 6.68277123,3.67925943 6.80329009,3.93049528 L7.19254127,4.74164151 C7.31310142,4.99287736 7.63227005,5.23141981 7.9018691,5.27170755 L8.77216392,5.40178302 C9.04168042,5.44211321 9.10264151,5.63510377 8.90758255,5.83064151 L8.90758255,5.83064151 Z" id="Shape"></path>
                            </g>
                        </g>
                    </g>
                </g>
            </g>
        </g>
    </g>
</svg>