<?xml version="1.0" encoding="UTF-8" standalone="no"?>
<svg width="185px" height="185px" viewBox="0 0 185 185" version="1.1" xmlns="http://www.w3.org/2000/svg" xmlns:xlink="http://www.w3.org/1999/xlink">
    <!-- Generator: Sketch 3.6.1 (26313) - http://www.bohemiancoding.com/sketch -->
    <title>bajaj</title>
    <desc>Created with Sketch.</desc>
    <defs></defs>
    <g id="Page-1" stroke="none" stroke-width="1" fill="none" fill-rule="evenodd">
        <g id="28-getstarted-copy" transform="translate(-317.000000, -463.000000)">
            <g id="bajaj" transform="translate(317.000000, 463.000000)">
                <path d="M92.5,5 C44.252,5 5,44.252 5,92.5 C5,140.748 44.252,180 92.5,180 C140.748,180 180,140.748 180,92.5 C180,44.252 140.748,5 92.5,5 M0,92.5 C0,41.495 41.495,0 92.5,0 C143.505,0 185,41.495 185,92.5 C185,143.505 143.505,185 92.5,185 C41.495,185 0,143.505 0,92.5 Z" id="Fill-1" fill="#BCC4CE"></path>
                <g id="Bajaj_Auto_Logo" transform="translate(15.000000, 75.000000)">
                    <g id="svg2">
                        <g id="#ffffffff"></g>
                        <g id="#0a51a1ff" transform="translate(1.506112, 1.528090)" fill="#575D63">
                            <path d="M14.3193643,0.397303371 C15.038533,0.0229213483 15.9196088,-0.0534831461 16.6500733,0.343820225 C21.7896822,2.7505618 26.9594132,5.09235955 32.0764303,7.5411236 C33.2135452,7.92314607 33.4131051,9.71101124 32.2985819,10.2382022 C28.1868949,12.2934831 23.9584841,14.1080899 19.8204401,16.1060674 C23.8003423,17.9588764 27.7802445,19.8155056 31.7676773,21.6530337 C32.4303667,21.9433708 33.1645966,22.5011236 33.0441076,23.3339326 C33.0252812,24.2546067 32.0952567,24.6595506 31.4062103,25.0033708 C26.4962836,27.2802247 21.5901222,29.5570787 16.6839609,31.841573 C15.9271394,32.231236 15.0046455,32.181573 14.2628851,31.7880899 C11.0360391,30.2561798 7.78283619,28.7853933 4.5597555,27.2534831 C8.11418093,25.6107865 11.6573105,23.9451685 15.2155012,22.3139326 C15.5732029,22.031236 16.3902689,21.981573 16.2886064,21.3665169 C15.5506112,20.621573 14.462445,20.365618 13.5587775,19.8766292 C13.1333007,19.7429213 12.6701711,19.3074157 12.2221027,19.6283146 C8.17066015,21.4849438 4.14557457,23.3988764 0.086601467,25.2364045 C0.109193154,23.0053933 0.0715403423,20.774382 0.112958435,18.5433708 C1.87887531,17.748764 3.63726161,16.9350562 5.3805868,16.0869663 C3.61843521,15.2694382 1.86381418,14.4442697 0.0978973105,13.634382 C0.0903667482,11.4033708 0.0978973105,9.17235955 0.0903667482,6.94134831 C4.2397066,8.8858427 8.41163814,10.7806742 12.5534474,12.7480899 C13.7809291,12.1979775 15.0310024,11.678427 16.2208313,11.0442697 C16.4806357,10.4330337 15.8480685,10.1732584 15.4225917,9.98606742 C11.7966259,8.30898876 8.17066015,6.63191011 4.55599022,4.93573034 C7.80919315,3.41910112 11.0661614,1.91393258 14.3193643,0.397303371 L14.3193643,0.397303371 Z" id="path6"></path>
                            <path d="M48.6624939,8.02247191 C53.2862592,8.03011236 57.9062592,8.00719101 62.5262592,8.03011236 C64.585868,8.14089888 66.8563325,8.16 68.5808313,9.47797753 C69.8723227,10.4024719 70.1810758,12.2705618 69.5936919,13.6916854 C69.0514914,14.8797753 67.8503667,15.521573 66.7057213,15.9761798 C67.880489,16.4498876 69.1230318,17.1298876 69.6313447,18.3791011 C70.1735452,19.9148315 69.8497311,21.8822472 68.4490465,22.8373034 C66.7320782,24.0559551 64.533154,24.0674157 62.5224939,24.1629213 C57.8987286,24.1438202 53.2749633,24.2049438 48.651198,24.1285393 C48.6888509,18.7611236 48.6587286,13.3898876 48.6624939,8.02247191 L48.6624939,8.02247191 Z M53.8510513,11.5523596 C53.8359902,13.4051685 53.8435208,15.2579775 53.8472861,17.1069663 C54.649291,15.9991011 55.0559413,14.1883146 56.6110024,13.9667416 C58.6819071,13.8674157 60.7641076,14.0240449 62.8387775,13.9132584 C63.5353545,13.8635955 64.2884108,13.3937079 64.2394621,12.5991011 C64.0737897,11.968764 63.4826406,11.56 62.8538386,11.5714607 C59.8529095,11.525618 56.8519804,11.5752809 53.8510513,11.5523596 L53.8510513,11.5523596 Z M53.8472861,17.3820225 C53.8397555,19.5251685 53.8359902,21.6721348 53.8548166,23.8152809 C54.6304645,22.8182022 54.931687,21.2404494 56.2194132,20.7934831 C58.2940831,20.5986517 60.3875795,20.8316854 62.4660147,20.6903371 C63.4449878,20.7017978 64.4540831,19.7391011 64.1754523,18.7076404 C64.0060147,17.7755056 62.9442054,17.3438202 62.1007824,17.3858427 C59.3483619,17.3705618 56.5997066,17.3858427 53.8472861,17.3820225 L53.8472861,17.3820225 Z" id="path8"></path>
                            <path d="M78.7470905,8.02247191 C80.9460147,8.04157303 83.1449389,7.98044944 85.3438631,8.05685393 C88.45022,13.4586517 91.6996577,18.7764045 94.851198,24.1514607 C92.8292421,24.1705618 90.8110513,24.1552809 88.7890954,24.1629213 C88.2732518,23.2575281 87.7611736,22.3444944 87.2603912,21.4276404 L87.0457702,21.2901124 C84.1502689,21.301573 81.2547677,21.301573 78.3592665,21.2901124 C79.1913936,20.1555056 79.5453301,18.4364045 80.9799022,17.9168539 C82.3956479,17.7793258 83.8189242,17.8977528 85.2384352,17.8557303 C84.1502689,15.9494382 83.1637653,13.9820225 81.981467,12.1330337 C79.7411247,16.1519101 77.4970171,20.1669663 75.2340831,24.1705618 C73.223423,24.1476404 71.2127628,24.1782022 69.2021027,24.1514607 C72.353643,18.7573034 75.580489,13.4089888 78.7470905,8.02247191 L78.7470905,8.02247191 Z" id="path10"></path>
                            <path d="M105.898533,8.02247191 L111.072029,8.02247191 C111.083325,11.7089888 111.064499,15.3955056 111.083325,19.0858427 C111.08709,20.4076404 110.906357,21.9051685 109.889731,22.848764 C108.620831,24.1132584 106.719364,24.1705618 105.047579,24.1667416 C102.423178,24.1208989 99.7950122,24.2278652 97.1706112,24.1208989 C95.6080196,23.7579775 95.2013692,21.9013483 94.3692421,20.7323596 C97.5433741,20.6979775 100.721271,20.7667416 103.895403,20.7017978 C104.799071,20.7170787 105.966308,20.1631461 105.891002,19.0896629 C105.909829,15.4031461 105.894768,11.712809 105.898533,8.02247191 L105.898533,8.02247191 Z" id="path12"></path>
                            <path d="M119.91291,8.04539326 C122.108068,7.99573034 124.299462,8.03011236 126.494621,8.02247191 C129.649927,13.4204494 132.888068,18.7649438 136.039609,24.1591011 C134.013888,24.1552809 131.984401,24.1782022 129.962445,24.1438202 C129.439071,23.188764 128.904401,22.2451685 128.373496,21.2977528 C125.436577,21.2939326 122.499658,21.3053933 119.562738,21.2939326 C120.349682,20.1746067 120.722445,18.6006742 122.006406,17.9474157 C123.4711,17.7525843 124.958386,17.9092135 126.434377,17.8519101 C125.372567,15.9265169 124.288166,14.0125843 123.222592,12.0910112 C120.937066,16.1022472 118.71555,20.1478652 116.43379,24.1629213 C114.411834,24.1591011 112.393643,24.1667416 110.375452,24.1591011 C113.55335,18.7878652 116.761369,13.4319101 119.91291,8.04539326 L119.91291,8.04539326 Z" id="path14"></path>
                            <path d="M147.128362,8.02629213 C148.822738,8.01865169 150.517115,8.02247191 152.211491,8.02629213 C152.207726,11.9764045 152.211491,15.9265169 152.215257,19.8804494 C152.237848,21.1716854 151.706944,22.5355056 150.615012,23.2651685 C149.17291,24.2278652 147.36934,24.1667416 145.712616,24.1667416 C143.325428,24.1323596 140.93824,24.2125843 138.554817,24.1323596 C136.800196,23.987191 136.442494,21.9051685 135.546357,20.7094382 C138.690367,20.7247191 141.838142,20.7514607 144.985917,20.705618 C145.919707,20.7285393 147.128362,20.1860674 147.117066,19.0896629 C147.154719,15.3993258 147.117066,11.712809 147.128362,8.02629213 L147.128362,8.02629213 Z" id="path16"></path>
                        </g>
                    </g>
                </g>
            </g>
        </g>
    </g>
</svg>