<?xml version="1.0" encoding="UTF-8" standalone="no"?>
<svg width="185px" height="185px" viewBox="0 0 185 185" version="1.1" xmlns="http://www.w3.org/2000/svg" xmlns:xlink="http://www.w3.org/1999/xlink">
    <!-- Generator: Sketch 3.6.1 (26313) - http://www.bohemiancoding.com/sketch -->
    <title>royal enfield</title>
    <desc>Created with Sketch.</desc>
    <defs></defs>
    <g id="Page-1" stroke="none" stroke-width="1" fill="none" fill-rule="evenodd">
        <g id="28-getstarted-copy" transform="translate(-567.000000, -463.000000)">
            <g id="royal-enfield" transform="translate(567.000000, 463.000000)">
                <path d="M92.5,5 C44.252,5 5,44.252 5,92.5 C5,140.748 44.252,180 92.5,180 C140.748,180 180,140.748 180,92.5 C180,44.252 140.748,5 92.5,5 M0,92.5 C0,41.495 41.495,0 92.5,0 C143.505,0 185,41.495 185,92.5 C185,143.505 143.505,185 92.5,185 C41.495,185 0,143.505 0,92.5 Z" id="Fill-1" fill="#BCC4CE"></path>
                <g id="Royal_Enfield_logo" transform="translate(22.000000, 67.000000)">
                    <g id="Group">
                        <g id="#d9a606ff" transform="translate(0.737173, 0.736544)" fill="#BCC4CE">
                            <path d="M0.571308901,1.65538244 C0.943581152,1.11770538 1.14077487,0.417988669 1.75078534,0.0865439093 C4.97775916,0.130736544 8.20473298,0.0957507082 11.4298639,0.103116147 C13.5510785,0.0423512748 15.6520209,1.07535411 16.9955183,2.69759207 C18.1657801,4.06756374 18.4993508,5.97152975 18.2745131,7.71713881 C18.0699476,9.06869688 17.5815707,10.4386686 16.5937592,11.418272 C15.7533822,12.2763456 14.647623,12.8048159 13.5179058,13.1730878 C15.2944921,15.1488669 17.0157906,17.1854108 18.9711414,18.9917847 C21.5899476,21.2179887 24.776377,22.6155807 27.9720209,23.8032578 C28.9119162,24.167847 29.8573403,24.5213881 30.8322513,24.7847025 C30.3678325,25.7477337 29.3431623,26.2890935 28.4051099,26.7052408 C25.9521675,27.6553824 23.176712,27.3128895 20.7753717,26.3701133 C17.4875812,25.0148725 14.728712,22.657932 12.3402723,20.0689802 C11.0133613,18.5866856 9.80808377,16.9883853 8.81658639,15.2611898 C8.84238743,16.7950425 8.74286911,18.3417847 8.88846073,19.8664306 C9.5095288,20.6066572 10.939644,20.6379603 11.1589529,21.7593484 C10.6226597,22.427762 10.3093613,23.2471671 9.7233089,23.8769122 C6.99761257,23.9100567 4.26270157,23.9358357 1.54253403,23.865864 C1.01914136,23.0206799 0.305926702,22.1957507 0.158492147,21.1885269 C0.897507853,20.6968839 1.75815707,20.431728 2.48611518,19.9235127 C2.53034555,19.6067989 2.57457592,19.2919263 2.58379058,18.9733711 C2.58747644,14.3681303 2.58010471,9.76104816 2.58747644,5.15580737 C2.55430366,4.72124646 2.62433508,4.16147309 2.20230366,3.88895184 C1.55174869,3.4194051 0.775874346,3.17082153 0.0534450262,2.83569405 C0.0829319372,2.38640227 0.324356021,2.01260623 0.571308901,1.65538244 L0.571308901,1.65538244 Z M1.89637696,0.992492918 C1.63468063,1.43626062 1.40615707,1.90396601 1.25503665,2.39745042 C2.02722513,2.7233711 2.94684817,3.03824363 3.32833508,3.85212465 C3.50157068,4.38796034 3.40942408,4.96983003 3.4278534,5.52407932 C3.42416754,10.2582153 3.42601047,14.9905099 3.42416754,19.7246459 C3.42048168,20.0339943 3.40942408,20.3967422 3.12561257,20.5937677 C2.52665969,21.0246459 1.8060733,21.2345609 1.14077487,21.5383853 C1.37114136,22.0723796 1.66048168,22.5750708 1.98852356,23.0556657 C4.41197906,23.0446176 6.83727749,23.0703966 9.25889005,23.0446176 C9.67539267,22.6947592 9.84862827,22.1184136 10.1729843,21.6820113 C9.61826178,21.0430595 8.61386387,21.1130312 8.09231414,20.4409348 C7.95409424,20.0910765 7.98910995,19.7043909 7.97436649,19.336119 C8.00016754,17.5223796 7.94303665,15.7086402 7.95225131,13.8949008 C8.29503665,13.8967422 8.63597906,13.8985836 8.9787644,13.8985836 C11.2842723,18.0729462 14.5628482,21.7796034 18.6246702,24.3169972 C20.6518953,25.6114731 23.014534,26.4529745 25.4398325,26.4271955 C26.8294031,26.4345609 28.2060733,26.0294618 29.3560628,25.2487252 C25.3034555,23.7093484 21.094199,22.1552408 17.8727539,19.1427762 C16.0169215,17.3143059 14.295623,15.3569405 12.6130262,13.3701133 C12.4305759,13.1546742 12.2812984,12.9134561 12.1375497,12.672238 C13.6874555,12.3131728 15.2926492,11.7276204 16.3320628,10.4626062 C17.4931099,8.86798867 17.7879791,6.72464589 17.2332565,4.84645892 C16.7098639,3.16713881 15.2226178,1.92606232 13.6137382,1.32393768 C12.4471623,0.843342776 11.1681675,0.97407932 9.93893194,0.961189802 C7.25746597,0.985127479 4.576,0.924362606 1.89637696,0.992492918 L1.89637696,0.992492918 Z" id="Shape"></path>
                            <path d="M7.98910995,3.5427762 C9.18701571,3.48016997 10.4807539,3.50963173 11.5164817,4.19645892 C12.2462827,4.6825779 12.5669529,5.59773371 12.5024503,6.44844193 C12.4195183,7.9417847 11.7376335,9.40934844 10.6355602,10.4239377 C9.91681675,11.1181303 8.81105759,11.2101983 7.88037696,10.978187 C7.97989529,8.50155807 7.9227644,6.02124646 7.98910995,3.5427762 L7.98910995,3.5427762 Z M8.82211518,4.34929178 C8.80184293,6.22932011 8.77604188,8.1111898 8.78157068,9.99121813 C8.82027225,10.051983 8.89583246,10.1716714 8.93453403,10.2305949 C9.95736126,10.2195467 10.6503037,9.31175637 11.0686492,8.4776204 C11.5220105,7.54957507 11.8961257,6.42082153 11.5035812,5.40991501 C10.9525445,4.50764873 9.77491099,4.41189802 8.82211518,4.34929178 L8.82211518,4.34929178 Z" id="Shape"></path>
                            <path d="M24.4317487,3.83002833 C25.9024084,3.50226629 27.4725864,3.67167139 28.8252984,4.34008499 C31.1529215,5.46699717 32.8428901,7.78711048 33.2538639,10.333711 C33.5984921,12.467847 33.2464921,14.7529745 32.0670157,16.5888102 C31.1602932,18.1226629 29.6822618,19.3066572 27.9867644,19.8572238 C25.7955183,20.518272 23.3038743,20.0432011 21.4941152,18.6492918 C20.4252147,17.9090652 19.6714555,16.7932011 19.1554346,15.6184136 C18.1086492,12.8932011 18.2745131,9.65977337 19.8520628,7.1684136 C20.9062199,5.55538244 22.5427435,4.28484419 24.4317487,3.83002833 L24.4317487,3.83002833 Z M24.5552251,4.66968839 C22.4082094,5.2276204 20.6537382,6.94376771 19.8723351,8.99688385 C19.3268272,10.4368272 19.2438953,12.022238 19.4539895,13.5358357 C19.7414869,15.3845609 20.7053403,17.2093484 22.3344921,18.2055241 C24.1184503,19.4263456 26.5566492,19.6878187 28.5212147,18.7487252 C29.5974869,18.2331445 30.4820942,17.3750708 31.1731937,16.413881 C32.5553927,14.4233711 32.8668482,11.7975921 32.1757487,9.49589235 C31.6191832,7.59008499 30.216712,5.96600567 28.4438115,5.08031161 C27.240377,4.52053824 25.8508063,4.3621813 24.5552251,4.66968839 L24.5552251,4.66968839 Z" id="Shape"></path>
                            <path d="M33.3423246,4.17988669 C33.8307016,4.0786119 34.3375079,4.13753541 34.8350995,4.12464589 C36.6743455,4.14490085 38.5172775,4.08413598 40.3565236,4.15963173 C40.6642932,4.90538244 41.1342408,5.60878187 41.1969005,6.43371105 C40.9388901,6.6233711 40.6845654,6.81671388 40.426555,7.00637394 C40.7601257,7.66189802 41.2300733,8.22903683 41.6465759,8.82932011 C42.1275812,8.37266289 42.4924817,7.81104816 42.8389529,7.24943343 C43.0085026,6.87011331 42.5164398,6.66756374 42.3118743,6.44107649 C42.4537801,5.6713881 42.6915183,4.92563739 42.9145131,4.17804533 C44.5197068,4.07124646 46.1304293,4.15779037 47.737466,4.13569405 C48.0949948,4.11359773 48.4488377,4.17804533 48.7713508,4.33640227 C49.0017173,5.12634561 49.550911,5.82974504 49.5472251,6.68045326 C48.7031623,7.03031161 47.7190366,7.27521246 47.1901152,8.09093484 C46.1838743,9.49773371 45.2310785,10.9413598 44.2322094,12.3536827 C43.6166702,13.1436261 43.9428691,14.1876771 43.891267,15.1028329 C43.946555,15.533711 43.7972775,16.1137394 44.2229948,16.3954674 C44.6800419,16.6679887 45.1776335,16.8650142 45.6586387,17.0915014 C45.7305131,17.7433428 45.2310785,18.2294618 44.9638534,18.7745042 C44.7740314,19.0415014 44.6560838,19.4981586 44.2524817,19.4815864 C42.5274974,19.5368272 40.8006702,19.4889518 39.0738429,19.5220963 C38.6849843,19.4981586 38.150534,19.6049575 37.9256963,19.1906516 C37.5718534,18.5903683 37.122178,17.990085 37.0742618,17.2719547 C37.5349948,16.9423513 37.9920419,16.5832861 38.5467644,16.4267705 C38.9466806,15.8117564 38.7974031,15.0439093 38.8066178,14.3497167 C38.8342618,13.7770538 38.4859476,13.3038244 38.1947644,12.8453258 C37.2659267,11.4550992 36.2467853,10.1256374 35.2903037,8.75382436 C34.9585759,8.28611898 34.6139476,7.8092068 34.1218848,7.498017 C33.6408796,7.15184136 33.0400838,7.02294618 32.5590785,6.68045326 C32.4448168,6.22195467 32.7046702,5.77818697 32.8078743,5.33994334 C32.9645236,4.94773371 32.9884817,4.45977337 33.3423246,4.17988669 L33.3423246,4.17988669 Z M33.7827853,5.01402266 C33.6703665,5.41175637 33.5597906,5.81133144 33.4510576,6.21090652 C34.387267,6.50368272 35.2368586,7.07818697 35.7399791,7.93626062 C36.6725026,9.26388102 37.6400419,10.5675637 38.5817801,11.8896601 C39.1217592,12.6169972 39.7188691,13.4179887 39.6691099,14.371813 C39.6340942,15.1396601 39.7133403,15.9332861 39.5345759,16.6808782 C39.1365026,17.1320113 38.502534,17.2885269 38.0030995,17.6089235 C38.1910785,17.9587819 38.3809005,18.3086402 38.5651937,18.6603399 C40.3970681,18.6677054 42.2289424,18.6750708 44.0589738,18.6511331 C44.2580105,18.3012748 44.4662618,17.9550992 44.6745131,17.6089235 C44.136377,17.2922096 43.5374241,17.0528329 43.0951204,16.5961756 C43.0582618,15.4803116 42.9882304,14.366289 43.0158743,13.2504249 C43.0361466,12.4973088 43.5429529,11.8970255 43.9373403,11.2967422 C44.8459058,10.0022663 45.734199,8.68937677 46.6446073,7.39490085 C47.0924398,6.72464589 47.8646283,6.43371105 48.5833717,6.15566572 C48.4340942,5.77634561 48.2866597,5.3970255 48.142911,5.01402266 C46.5948482,4.93668555 45.0430995,4.95325779 43.4968796,5.01033994 C43.4268482,5.39334278 43.3660314,5.77818697 43.3125864,6.16303116 C43.592712,6.3029745 43.865466,6.45580737 44.1290052,6.62705382 C43.5263665,8.00070822 42.5588272,9.18654391 41.6760628,10.3907932 C40.9591623,9.07974504 39.7188691,8.04674221 39.2913089,6.59206799 C39.6193508,6.43371105 39.9473927,6.27903683 40.2772775,6.12436261 C40.1409005,5.75240793 40.0063665,5.38045326 39.8755183,5.00665722 C37.8464503,4.94773371 35.8118534,4.94957507 33.7827853,5.01402266 L33.7827853,5.01402266 Z" id="Shape"></path>
                            <path d="M53.2404607,4.11912181 C54.6724188,4.13753541 56.1062199,4.07124646 57.5363351,4.15779037 C59.0585969,8.11855524 60.4205236,12.1437677 61.9575288,16.1008499 C62.5306806,16.3310198 63.1683351,16.4930595 63.6290681,16.9294618 C63.7156859,17.7746459 63.1277906,18.5314448 62.9213822,19.3342776 C62.6670576,19.4521246 62.3998325,19.546034 62.1160209,19.520255 C60.4536963,19.5110482 58.7913717,19.5165722 57.1290471,19.520255 C56.8526073,19.5092068 56.4674346,19.5423513 56.3439581,19.2274788 C56.1228063,18.5977337 55.9219267,17.9569405 55.7744921,17.3050992 C55.7063037,16.8521246 56.2038953,16.6606232 56.4766492,16.4046742 C56.4342618,16.1505666 56.3660733,15.901983 56.2370681,15.6773371 C55.1073508,15.6883853 53.9776335,15.6405099 52.8497592,15.6975921 C52.774199,15.9388102 52.6967958,16.178187 52.6212356,16.4194051 C52.9068901,16.5851275 53.2036021,16.736119 53.4616126,16.946034 C53.612733,17.2111898 53.4726702,17.4984419 53.3860524,17.7562323 C53.1722723,18.3399433 52.9437487,18.9199717 52.6838953,19.4852691 C50.9294241,19.5128895 49.1602094,19.5754958 47.411267,19.4576487 C46.9947644,18.7063739 46.7570262,17.8703966 46.3497382,17.1135977 C46.4123979,17.0233711 46.5414031,16.8392351 46.6040628,16.7490085 C47.2472461,16.5611898 47.8683141,16.3089235 48.4801675,16.040085 C49.4919372,13.2780453 50.6419267,10.5675637 51.6997696,7.82209632 C52.2102618,6.58838527 52.6249215,5.30864023 53.2404607,4.11912181 L53.2404607,4.11912181 Z M53.7067225,4.99376771 C52.3558534,8.54206799 50.9128377,12.0553824 49.5416963,15.5963173 C49.3592461,16.0529745 49.1915393,16.5648725 48.7584503,16.8466006 C48.3345759,17.0822946 47.8590995,17.2038244 47.4075812,17.3750708 C47.5900314,17.7985836 47.763267,18.2276204 47.9199162,18.6621813 C49.3150157,18.7008499 50.7119581,18.6327195 52.1070576,18.6953258 C52.2802932,18.2754958 52.4553717,17.8575071 52.6286073,17.4376771 C52.2692356,17.1596317 51.554178,17.0012748 51.7218848,16.4175637 C51.8416754,15.8651558 52.1125864,15.3624646 52.313466,14.8376771 C53.830199,14.8247875 55.345089,14.8542493 56.861822,14.8192635 C57.1345759,15.5005666 57.5068482,16.178187 57.4828901,16.9349858 C57.1972356,17.0546742 56.915267,17.176204 56.6314555,17.2977337 C56.7696754,17.7635977 56.9097382,18.2294618 57.0590157,18.6934844 C58.7766283,18.6824363 60.4942408,18.6456091 62.2118534,18.6953258 C62.4366911,18.2478754 62.6154555,17.78017 62.764733,17.3014164 C62.2376545,17.0915014 61.6368586,16.9570822 61.2332565,16.5335694 C60.8001675,15.6736544 60.5587435,14.7290368 60.1975288,13.8378187 C59.1544293,10.8879603 58.0025969,7.97492918 57.0092565,5.00849858 C55.9090262,4.93484419 54.8069529,4.93668555 53.7067225,4.99376771 L53.7067225,4.99376771 Z" id="Shape"></path>
                            <path d="M65.4222408,4.17067989 C67.5471414,4.0601983 69.6812565,4.13201133 71.8098429,4.13569405 C72.2042304,4.83909348 72.9358743,5.5111898 72.8842723,6.36189802 C72.4253822,6.80382436 71.8245864,7.04872521 71.2643351,7.33045326 C71.1795602,10.1827195 71.1943037,13.0423513 71.2551204,15.8946176 C73.0833089,16.1542493 75.2045236,15.8264873 76.4945759,14.392068 C76.736,14.2060907 77.0216545,13.7126062 77.3607539,14.0090652 C77.9670785,14.6130312 78.7374241,15.0770538 79.1815707,15.8246459 C78.4167539,17.227762 77.493445,18.5369688 76.7120419,19.9290368 C75.9177382,20.3451841 74.8654241,20.288102 74.272,19.5699717 C71.5131309,19.4263456 68.7339895,19.5626062 65.9677487,19.5055241 C65.6839372,19.5165722 65.4056545,19.3913598 65.2748063,19.1335694 C64.9172775,18.5369688 64.4344293,17.9716714 64.3330681,17.2609065 C64.8785759,16.8686969 65.444356,16.5041076 66.0635812,16.2371105 C66.2183874,14.878187 66.1133403,13.5082153 66.1446702,12.1437677 C66.1114974,10.5417847 66.2165445,8.93427762 66.0783246,7.33597734 C65.4738429,6.98611898 64.8067016,6.6970255 64.3643979,6.13172805 C64.6961257,5.46699717 65.1144712,4.84830028 65.4222408,4.17067989 L65.4222408,4.17067989 Z M65.4074974,6.03597734 C65.9898639,6.36558074 66.9629319,6.52209632 66.9758325,7.35623229 C67.0108482,10.2398017 66.9776754,13.1252125 66.9924188,16.0087819 C67.1177382,16.9939093 65.958534,17.1633144 65.309822,17.5260623 C65.5143874,17.9145892 65.7355393,18.292068 65.9695916,18.6640227 C68.6178848,18.6621813 71.266178,18.6603399 73.9144712,18.6640227 C74.7345759,18.5830028 75.2211099,19.5533994 76.0780733,19.2992918 C76.7820733,18.1576487 77.5266178,17.0399433 78.1734869,15.8633144 C77.8509738,15.5631728 77.5229319,15.2685552 77.1893613,14.9813031 C75.9195812,16.3181303 74.028733,16.8171388 72.2337173,16.8318697 C71.6531937,16.8226629 70.9823665,16.9294618 70.5068901,16.5206799 C70.372356,16.1229462 70.3760419,15.6957507 70.372356,15.2814448 C70.4,12.58017 70.3594555,9.87705382 70.3907853,7.1776204 C70.5068901,6.44844193 71.3933403,6.45212465 71.8651309,6.05439093 C71.8301152,5.66954674 71.5868482,5.34915014 71.4246702,5.00849858 C69.6020105,4.92195467 67.7756649,4.99192635 65.9530052,4.96430595 C65.7484398,5.31048159 65.5678325,5.66954674 65.4074974,6.03597734 L65.4074974,6.03597734 Z" id="Shape"></path>
                            <path d="M25.5227644,6.56813031 C26.1733194,6.31770538 26.8386178,6.73753541 27.1814031,7.27889518 C27.9830785,8.50524079 28.3461361,9.97464589 28.4438115,11.423796 C28.5193717,13.0276204 28.3055916,14.694051 27.5684188,16.1358357 C27.1979895,16.761898 26.6045654,17.4652975 25.7973613,17.3677054 C24.7984921,17.2866856 24.2806283,16.2776204 23.9396859,15.4600567 C23.1251099,13.2743626 23.0771937,10.7774788 23.8862408,8.5825779 C24.2382408,7.8 24.6768586,6.90694051 25.5227644,6.56813031 L25.5227644,6.56813031 Z M24.3174869,10.1072238 C23.9765445,12.165864 24.1239791,14.4712465 25.3366283,16.2352691 C25.5006492,16.3494334 25.6628272,16.4654391 25.8250052,16.5832861 C26.6616963,16.4046742 26.967623,15.5300283 27.2035183,14.8137394 C27.8798743,12.5930595 27.7324398,10.0888102 26.6672251,8.01359773 C26.5290052,7.69320113 26.2359791,7.48512748 25.9908691,7.25311615 C24.9311832,7.77790368 24.5681257,9.04107649 24.3174869,10.1072238 L24.3174869,10.1072238 Z" id="Shape"></path>
                            <path d="M53.070911,12.979745 C53.5519162,11.5876771 54.1766702,10.2508499 54.7019058,8.87719547 C55.2252984,10.2342776 55.7007749,11.6097734 56.2094241,12.9723796 C55.1626387,12.9650142 54.1176963,12.979745 53.070911,12.979745 L53.070911,12.979745 Z M54.2927749,12.1364023 C54.4641675,12.1364023 54.8069529,12.140085 54.9783455,12.140085 C54.884356,11.8344193 54.7903665,11.5287535 54.694534,11.2249292 C54.5563141,11.5269122 54.425466,11.8325779 54.2927749,12.1364023 L54.2927749,12.1364023 Z" id="Shape"></path>
                            <path d="M44.9509529,22.4498584 C45.2163351,22.2123229 45.380356,21.8716714 45.6844398,21.6783286 C46.3110366,21.6157224 46.9431623,21.6617564 47.573445,21.6470255 C48.4746387,22.8236544 49.1344084,24.1623229 49.9489843,25.3978754 C50.2585969,26.025779 50.8188482,26.5689802 50.905466,27.2815864 C50.2954555,28.0254958 49.5435393,28.6441926 48.8413822,29.2978754 C48.5428272,29.551983 48.277445,29.1082153 48.0691937,28.9388102 C46.4769005,27.1932011 43.974199,26.368272 41.6521047,26.7347025 C41.2134869,26.8009915 41.2908901,27.3055241 41.2503455,27.6314448 C41.2153298,29.1339943 41.2485026,30.6383853 41.2300733,32.1409348 C41.8032251,32.1796034 42.376377,32.1906516 42.9513717,32.1888102 C43.1559372,31.9715297 43.3605026,31.7542493 43.5632251,31.5332861 C44.3372565,31.5553824 45.5056754,31.1024079 45.9258639,32.0101983 C46.8270576,33.4943343 47.7927539,34.9379603 48.7086911,36.4110482 C49.0864921,36.9082153 48.5096545,37.3298867 48.1852984,37.6447592 C47.6176754,38.1161473 47.2140733,38.8287535 46.4842723,39.0754958 C45.5462199,38.2063739 44.7463874,37.1144476 43.5226806,36.6246459 C42.8610681,36.3226629 42.1183665,36.4276204 41.4162094,36.420255 C41.3332775,36.7332861 41.2300733,37.0481586 41.2319162,37.3759207 C41.237445,39.5855524 41.2411309,41.7951841 41.2319162,44.0048159 C41.2300733,44.384136 41.2466597,44.7966006 41.5009843,45.1041076 C43.7346178,45.2882436 46.1599162,45.4024079 48.1797696,44.2644476 C48.9759162,43.8575071 49.5251099,43.1393768 50.1388063,42.5169972 C50.5129215,42.342068 50.7488168,42.736119 50.9976126,42.9405099 C51.5136335,43.4708215 52.096,43.9348442 52.5899058,44.4872521 C52.8239581,44.8223796 52.5419895,45.2164306 52.3798115,45.520255 C51.4122723,47.076204 50.5295079,48.6873938 49.5140524,50.2120397 C48.8671832,50.2949008 48.198199,50.372238 47.5568586,50.2157224 C47.0408377,49.8769122 46.5672042,49.3631728 45.896377,49.3871105 C42.1496963,49.3613314 38.4011728,49.3650142 34.6544921,49.3889518 C34.3946387,49.3760623 34.0702827,49.4184136 33.9099476,49.1624646 C33.4455288,48.5050992 33.1082723,47.7667139 32.6843979,47.0835694 C33.1396021,46.2991501 34.1052984,46.1389518 34.7761257,45.6160057 C35.1152251,45.3711048 35.0802094,44.9365439 35.0783665,44.5664306 C35.0433508,38.6004249 35.1133822,32.6307365 35.0451937,26.6665722 C34.5918325,25.7550992 33.2593927,25.8784703 32.6954555,25.0664306 C33.0529843,24.1844193 33.4860733,23.3318697 34.0518534,22.5621813 C37.3801885,22.5014164 40.7103665,22.5492918 44.0387016,22.540085 C44.3390995,22.5179887 44.6671414,22.5805949 44.9509529,22.4498584 L44.9509529,22.4498584 Z M46.0382827,22.5253541 C45.6954974,23.072238 45.0670576,23.3834278 44.4257173,23.374221 C41.0973822,23.4055241 37.7653613,23.333711 34.4351832,23.4092068 C34.1734869,23.8805949 33.9431204,24.3685552 33.7496126,24.8712465 C34.4204398,25.1106232 35.1096963,25.3941926 35.605445,25.9245042 C35.9408586,26.2854108 35.9242723,26.8046742 35.9334869,27.2631728 C35.9169005,33.2770538 35.9390157,39.2909348 35.9021571,45.3048159 C35.9537592,46.4814448 34.4554555,46.5643059 33.8104293,47.1885269 C33.8417592,47.6580737 34.2637906,48.0668555 34.442555,48.5124646 C38.3772147,48.565864 42.3155602,48.5124646 46.2502199,48.540085 C46.952377,48.4977337 47.4167958,49.0667139 47.9420314,49.4239377 C48.4119791,49.4810198 49.0699058,49.6154391 49.2781571,49.0483003 C50.0724607,47.6691218 50.9515393,46.334136 51.6979267,44.9291785 C51.4417592,44.3786119 50.8428063,44.0545326 50.4539476,43.5905099 C49.7904921,44.036119 49.2707853,44.6750708 48.5428272,45.0322946 C46.3994974,46.2310198 43.8451937,46.1352691 41.4733403,45.986119 C40.7822408,45.9419263 40.345466,45.2127479 40.4007539,44.5664306 C40.3933822,41.9240793 40.3804817,39.281728 40.4025969,36.6393768 C40.4173403,36.2508499 40.4505131,35.6413598 40.9646911,35.6229462 C41.7737382,35.5308782 42.6049005,35.5143059 43.4084188,35.6652975 C44.6892565,36.0759207 45.6604817,37.0684136 46.6151204,37.9669972 C47.059267,37.5545326 47.4960419,37.1328612 47.9033298,36.6835694 C46.9708063,35.2491501 46.0401257,33.8128895 45.164733,32.3434844 C44.785089,32.3287535 44.405445,32.3177054 44.027644,32.3103399 C43.7493613,32.5589235 43.4655497,32.7983003 43.1762094,33.032153 C42.5403979,33.0192635 41.9045864,33.0560907 41.2706178,33.0358357 C40.8190995,33.0542493 40.3952251,32.6675637 40.4228691,32.2053824 C40.3602094,30.7378187 40.4062827,29.2684136 40.3933822,27.7990085 C40.4099686,27.2576487 40.3675812,26.6260623 40.7896126,26.2117564 C41.2356021,25.7256374 41.969089,25.8637394 42.5606702,25.815864 C44.8330052,25.7550992 47.1219267,26.6555241 48.657089,28.3458924 C49.0975497,27.9205382 49.5324817,27.4915014 49.9600419,27.0532578 C49.0385759,25.5488669 48.1134241,24.05 47.2306597,22.5235127 C46.8325864,22.5161473 46.4345131,22.5143059 46.0382827,22.5253541 L46.0382827,22.5253541 Z" id="Shape"></path>
                            <path d="M79.5225131,27.5449008 C80.0901361,27.4970255 80.661445,27.4933428 81.2327539,27.4896601 C82.0841885,28.6276204 82.7365864,29.8963173 83.532733,31.0711048 C83.6930681,31.3730878 84.0413822,31.7634561 83.7428272,32.0912181 C83.1365026,32.7209632 82.4914764,33.3212465 81.8151204,33.8754958 C81.230911,33.4298867 80.8402094,32.7485836 80.1362094,32.4631728 C78.8885445,31.7229462 77.3957696,31.8076487 76.0006702,31.7892351 C75.9619686,32.1464589 75.9306387,32.5036827 75.897466,32.8609065 C76.2070785,32.9327195 76.5222199,32.9179887 76.817089,32.7872521 C77.1672461,32.0893768 78.0407958,32.3011331 78.6747644,32.3103399 C79.063623,32.3011331 79.2608168,32.6859773 79.4543246,32.9621813 C80.1343665,34.0669972 80.8604817,35.146034 81.5313089,36.2563739 C81.5349948,36.3594901 81.5442094,36.5657224 81.5478953,36.6688385 C81.1295497,37.2433428 80.5637696,37.6871105 80.0846073,38.2063739 C79.9261152,38.4126062 79.6644188,38.4439093 79.4340524,38.5101983 C78.551288,37.5398017 77.5450471,36.3024079 76.0817592,36.4331445 C75.7795183,37.6263456 76.0412147,38.928187 75.950911,40.1637394 C76.4982618,40.4859773 77.062199,40.7787535 77.6445654,41.0310198 C77.6906387,41.1286119 77.7809424,41.3256374 77.8270157,41.4232295 C77.4694869,42.0732295 77.1027435,42.7177054 76.7599581,43.3769122 C76.4356021,43.483711 76.0983455,43.5555241 75.7574031,43.5481586 C74.1540524,43.5481586 72.5488586,43.5389518 70.9455079,43.5518414 C70.6727539,43.5279037 70.3354974,43.5905099 70.1401466,43.3511331 C69.6720419,42.7453258 69.371644,42.0327195 68.9790995,41.3808782 C69.4582618,40.7953258 70.2451937,40.668272 70.8404607,40.2410765 C70.7612147,37.2856941 70.8773194,34.3266289 70.7980733,31.3712465 C70.1788482,31.1318697 69.5651518,30.8740793 68.9625131,30.5905099 C69.1652356,29.8263456 69.6130681,29.1542493 69.992712,28.4674221 C70.1217173,28.1672805 70.4939895,28.2169972 70.7630576,28.18017 C73.3486911,28.1691218 75.9361675,28.1949008 78.523644,28.1728045 C78.982534,28.231728 79.2497592,27.8376771 79.5225131,27.5449008 L79.5225131,27.5449008 Z M78.7060942,29.0161473 C76.0356859,29.0087819 73.3634346,29.0253541 70.6911832,29.0069405 C70.4497592,29.3733711 70.2359791,29.7563739 70.0461571,30.1504249 C70.6727539,30.4247875 71.671623,30.6181303 71.6624084,31.481728 C71.671623,34.2437677 71.6679372,37.0076487 71.6660942,39.7696884 C71.6292356,40.1729462 71.6974241,40.6627479 71.3933403,40.9813031 C70.9897382,41.2538244 70.5124188,41.3919263 70.0719581,41.5944759 C70.265466,41.9498584 70.455288,42.3070822 70.643267,42.6643059 C72.4917277,42.7526912 74.3457173,42.7177054 76.194178,42.6753541 C76.3803141,42.3015581 76.5701361,41.9314448 76.7654869,41.5613314 C76.2918534,41.3293201 75.816377,41.0991501 75.3372147,40.883711 C75.1971518,40.5283286 75.0921047,40.1582153 75.1086911,39.7752125 C75.1252775,38.4844193 75.0828901,37.1917847 75.1455497,35.9009915 C75.219267,35.8310198 75.3630157,35.6929178 75.436733,35.6229462 C76.2162932,35.5732295 77.0419267,35.5419263 77.7477696,35.9396601 C78.4775707,36.2563739 79.0083351,36.8566572 79.6128168,37.3464589 C80.0256335,37.2065156 80.3057592,36.7203966 80.6577592,36.4386686 C79.9371728,35.3191218 79.2350157,34.1903683 78.5089005,33.0745042 C77.5855916,32.9308782 77.0253403,33.8902266 76.1186178,33.7815864 C75.7647749,33.7760623 75.3593298,33.7171388 75.1252775,33.4243626 C75.0239162,32.7430595 75.0902618,32.0543909 75.0828901,31.3694051 C75.6615707,30.826204 76.4945759,30.9753541 77.2188482,30.9532578 C78.8996021,30.9256374 80.6651309,31.4706799 81.8372356,32.7191218 C82.2039791,32.3987252 82.5965236,32.0967422 82.8840209,31.6971671 C82.286911,30.6623229 81.636356,29.6550992 81.015288,28.6331445 C80.8365236,28.231728 80.3334031,28.3864023 79.9887749,28.3422096 C79.7104921,28.7804533 79.2331728,29.0584986 78.7060942,29.0161473 L78.7060942,29.0161473 Z" id="Shape"></path>
                            <path d="M103.452984,27.53017 C104.016921,27.5062323 104.582702,27.5007082 105.150325,27.5025496 C106.095749,28.7454674 106.818178,30.1430595 107.669613,31.4522663 C107.986597,31.8279037 107.581152,32.218272 107.299183,32.453966 C106.73156,32.91983 106.292942,33.5532578 105.605529,33.8607649 C105.010262,33.0266289 104.180942,32.3692635 103.187602,32.08017 C102.301152,31.8094901 101.364942,31.8094901 100.449005,31.8168555 C100.452691,32.1796034 100.412147,32.5515581 100.500607,32.9106232 C101.014785,33.0542493 101.440503,32.7246459 101.733529,32.3416431 C102.413571,32.3398017 103.355309,32.0304533 103.804984,32.7191218 C104.527414,33.8423513 105.229571,34.982153 105.959372,36.1016997 C106.151037,36.3429178 106.128921,36.7130312 105.891183,36.9155807 C105.316188,37.4937677 104.746723,38.0811615 104.112754,38.5949008 C103.082555,37.6668555 102.076314,36.1956091 100.485864,36.4939093 C100.443476,37.6226629 100.469277,38.7532578 100.467435,39.8820113 C102.220063,39.859915 104.188314,40.2723796 105.708733,39.1528329 C106.327958,38.8766289 106.646785,38.0351275 107.361843,38.0093484 C107.934995,38.416289 108.456545,38.8987252 108.959665,39.3866856 C109.237948,39.6426346 109.018639,40.0330028 108.869361,40.2944759 C108.167204,41.4305949 107.525864,42.6016997 106.805277,43.7249292 C106.420105,44.4135977 105.531812,44.1318697 104.894157,44.1631728 C104.51267,43.8501416 104.088796,43.5094901 103.559874,43.5647309 C100.802848,43.5426346 98.0439791,43.5739377 95.2869529,43.5426346 C95.0584293,43.5371105 94.8446492,43.4524079 94.6290262,43.3916431 C94.2604398,42.7269122 93.8918534,42.0603399 93.5029948,41.4066572 C93.9047539,40.7511331 94.7838325,40.7216714 95.3477696,40.2429178 C95.3164398,37.2930595 95.3477696,34.3413598 95.3330262,31.3896601 C94.713801,31.1392351 94.0945759,30.8888102 93.4993089,30.5886686 C93.6559581,29.7434844 94.2585969,29.086119 94.5774241,28.3053824 C94.9294241,28.2335694 95.283267,28.1709632 95.6444817,28.1654391 C97.9241885,28.1783286 100.207581,28.2041076 102.487288,28.159915 C102.944335,28.2243626 103.193131,27.8229462 103.452984,27.53017 L103.452984,27.53017 Z M102.844817,28.9977337 C100.296042,29.0308782 97.747267,29.0216714 95.1984921,29.0014164 C94.9736545,29.3807365 94.7580314,29.7637394 94.553466,30.1522663 C95.0270995,30.3529745 95.5449634,30.4910765 95.9522513,30.8188385 C96.1918325,31.1042493 96.1715602,31.5093484 96.1918325,31.8610482 C96.1918325,34.378187 96.1826178,36.8934844 96.1955183,39.4087819 C96.2028901,39.9114731 96.1420733,40.4123229 96.0554555,40.9076487 C95.581822,41.1415014 95.1081885,41.3753541 94.632712,41.6018414 C94.8133194,41.9590652 94.9902408,42.3181303 95.1653194,42.6790368 C98.0974241,42.7711048 101.031372,42.6827195 103.965319,42.7305949 C104.737508,42.6845609 105.212984,43.5058074 106.012817,43.386119 C106.759204,42.1966006 107.483476,40.9905099 108.156147,39.7586402 C107.824419,39.5524079 107.555351,39.0754958 107.133319,39.1031161 C106.497508,39.6094901 105.859853,40.136119 105.083979,40.417847 C103.843686,40.9536827 102.472545,40.7179887 101.165906,40.7713881 C100.694115,40.7953258 100.224168,40.7566572 99.7689634,40.6388102 C99.5404398,39.7567989 99.641801,38.8416431 99.6233717,37.9430595 C99.6325864,37.2672805 99.5772984,36.5859773 99.6823455,35.9157224 C99.9016545,35.5179887 100.443476,35.632153 100.82312,35.5953258 C102.164775,35.5548159 103.250262,36.5104816 104.131183,37.4109065 C104.494241,37.1089235 104.842555,36.7922096 105.181654,36.4644476 C104.473969,35.3393768 103.749696,34.2253541 103.043853,33.0984419 C102.612607,33.1021246 102.164775,33.1094901 101.833047,33.4206799 C101.208293,33.938102 100.338429,33.8313031 99.6344293,33.5532578 C99.588356,32.8130312 99.5865131,32.0728045 99.5938848,31.3325779 C99.833466,31.2055241 100.06199,31.0342776 100.336586,30.9882436 C102.282723,30.7820113 104.398408,31.2773371 105.789822,32.7209632 C106.151037,32.3950425 106.503037,32.0580737 106.842136,31.7082153 C106.16578,30.5684136 105.43045,29.4635977 104.737508,28.3330028 C104.470283,28.344051 104.206743,28.3550992 103.943204,28.3661473 C103.628063,28.6497167 103.316607,29.0419263 102.844817,28.9977337 L102.844817,28.9977337 Z" id="Shape"></path>
                            <path d="M124.681717,28.251983 C124.854953,27.9665722 125.230911,28.0788952 125.507351,28.042068 C126.987225,28.0439093 128.465257,28.0291785 129.945131,28.0475921 C132.359372,28.1378187 134.788356,28.9424929 136.655246,30.4984419 C138.057717,31.7560907 139.076859,33.4759207 139.334869,35.355949 C139.657382,37.6208215 139.001298,40.0606232 137.44955,41.763881 C136.024963,43.1983003 133.905592,43.6291785 131.950241,43.5739377 C129.552586,43.5260623 127.149403,43.6531161 124.755435,43.503966 C124.440293,42.8686969 124.108565,42.2426346 123.808168,41.6018414 C123.845026,41.5042493 123.920586,41.3109065 123.957445,41.2133144 C124.410806,40.9002833 124.910241,40.6609065 125.363602,40.3497167 C125.573696,40.0882436 125.476021,39.7126062 125.509194,39.4032578 C125.455749,36.701983 125.509194,33.9988669 125.424419,31.2975921 C124.947099,31.0066572 124.455037,30.7396601 123.962974,30.4763456 C123.913215,30.3640227 123.811853,30.1375354 123.762094,30.0252125 C124.071707,29.4359773 124.292859,28.7970255 124.681717,28.251983 L124.681717,28.251983 Z M124.740691,29.9865439 C125.335958,30.273796 126.316398,30.457932 126.286911,31.2994334 C126.314555,34.3100567 126.338513,37.3206799 126.338513,40.3313031 C126.33667,41.1525496 125.339644,41.3016997 124.77755,41.6478754 C124.96,41.994051 125.068733,42.4046742 125.354387,42.6808782 C127.613822,42.7913598 129.882471,42.7011331 132.143749,42.7250708 C133.570178,42.7563739 135.051895,42.4912181 136.251644,41.6847025 C137.421906,40.8524079 138.072461,39.4842776 138.402346,38.1216714 C138.875979,36.1790368 138.420775,34.0688385 137.265257,32.4484419 C135.691393,30.2075071 132.941738,29.111898 130.286073,28.9093484 C128.616377,28.8393768 126.942995,28.9388102 125.275141,28.8522663 C125.06689,29.2168555 124.889969,29.5961756 124.740691,29.9865439 L124.740691,29.9865439 Z" id="Shape"></path>
                            <path d="M52.6286073,28.3109065 C53.1040838,28.067847 53.6606492,28.1985836 54.1729843,28.1764873 C55.5459686,28.226204 56.9300105,28.0825779 58.2937801,28.2759207 C59.7128377,29.9994334 61.058178,31.7818697 62.5067225,33.4796034 C62.5509529,32.7854108 62.6154555,32.0672805 62.3611309,31.4007082 C61.8119372,31.0526912 61.0563351,31.015864 60.6029738,30.5610482 C60.761466,29.7269122 61.2996021,29.0253541 61.6571309,28.2685552 C62.5362094,28.1322946 63.4263455,28.1856941 64.3109529,28.1820113 C65.1918743,28.1912181 66.0783246,28.1267705 66.9518743,28.2611898 C67.2817592,28.9093484 67.6908901,29.5114731 68.0207749,30.1577904 C68.151623,30.3437677 68.1055497,30.5647309 68.0686911,30.7709632 C67.4936963,30.9366856 66.8062827,31.0471671 66.4487539,31.5811615 C66.1833717,31.9199717 66.2368168,32.3692635 66.2183874,32.7725212 C66.2276021,36.0888102 66.2091728,39.4050992 66.229445,42.7213881 C66.2552461,43.0123229 66.1649424,43.2885269 66.0635812,43.5555241 C65.1568586,43.5168555 64.2482932,43.596034 63.3452565,43.5168555 C62.9729843,43.4450425 62.7794764,43.0822946 62.5601675,42.8152975 C60.9844607,40.5909348 59.3424084,38.4144476 57.755644,36.1992918 C57.6082094,35.9930595 57.4239162,35.8199717 57.2359372,35.6524079 C57.1880209,37.2046742 57.2451518,38.7587819 57.2101361,40.3110482 C57.7998743,40.622238 58.3951414,40.924221 58.9775079,41.251983 C58.892733,42.0179887 58.3177382,42.5851275 58.0394555,43.2793201 C57.9473089,43.3456091 57.7648586,43.478187 57.672712,43.5426346 C56.264712,43.55 54.856712,43.5352691 53.450555,43.5518414 C53.1132984,43.5463173 52.7170681,43.5905099 52.4830157,43.2903683 C52.0738848,42.6992918 51.8306178,42.0106232 51.4859895,41.3808782 C51.9688377,40.8468839 52.7023246,40.694051 53.3215497,40.3754958 C53.3215497,37.4035411 53.3657801,34.4315864 53.2994346,31.4633144 C52.6673089,31.1668555 52.0443979,30.8409348 51.4767749,30.4339943 C51.7827016,29.690085 52.1347016,28.9461756 52.6286073,28.3109065 L52.6286073,28.3109065 Z M52.5512042,30.1007082 C52.9953508,30.3511331 53.4652984,30.5665722 53.8633717,30.8869688 C54.2467016,31.220255 54.1416545,31.778187 54.1729843,32.2293201 C54.152712,34.9305949 54.2024712,37.6355524 54.1490262,40.3349858 C54.1766702,41.1875354 53.1446283,41.318272 52.5604188,41.6331445 C52.7299686,41.9811615 52.8774031,42.3494334 53.1114555,42.6624646 C54.5120838,42.7637394 55.9274555,42.7121813 57.3317696,42.6845609 C57.5879372,42.3788952 57.7593298,42.0143059 57.9565236,41.6699717 C57.4828901,41.4121813 57.0129424,41.1507082 56.5411518,40.8966006 C56.3974031,40.4712465 56.3347435,40.0274788 56.3623874,39.5818697 C56.4232042,37.4827195 56.3089424,35.381728 56.4103037,33.2844193 C56.699644,33.4133144 56.9392251,33.6213881 57.1106178,33.8865439 C59.2502618,36.8327195 61.4046492,39.767847 63.5406073,42.715864 C64.1487749,42.7177054 64.7587853,42.7103399 65.3669529,42.6845609 C65.4111832,39.0754958 65.3798534,35.4645892 65.3853822,31.8536827 C65.3227225,30.9035411 66.3400209,30.4966006 67.0366492,30.1283286 C66.826555,29.7784703 66.6293613,29.4212465 66.446911,29.0584986 C65.0241675,29.0143059 63.5995812,29.0474504 62.1768377,29.040085 C62.0128168,29.4009915 61.8340524,29.7545326 61.6442304,30.1025496 C62.2431832,30.4432011 63.0706597,30.6475921 63.3544712,31.3362606 C63.4226597,32.8461756 63.3931728,34.3616147 63.36,35.8715297 C61.4138639,33.6600567 59.6796649,31.266289 57.7777592,29.0161473 C56.2223246,29.0548159 54.6650471,29.0511331 53.1077696,29.0179887 C52.9234764,29.3788952 52.7391832,29.7416431 52.5512042,30.1007082 L52.5512042,30.1007082 Z" id="Shape"></path>
                            <path d="M84.9517906,28.2998584 C85.862199,28.0660057 86.8057801,28.2169972 87.7346178,28.18017 C88.9822827,28.2188385 90.2391623,28.0917847 91.4812984,28.2556657 C91.8038115,28.9203966 92.1742408,29.5667139 92.6478743,30.1375354 C92.5907435,30.3032578 92.6276021,30.5555241 92.4156649,30.6181303 C91.8756859,30.8961756 91.3117487,31.1208215 90.7588691,31.3675637 C90.7367539,34.0504249 90.7367539,36.7332861 90.7422827,39.4161473 C90.7496545,39.6628895 90.7441257,39.9169972 90.8049424,40.1582153 C91.330178,40.5964589 91.9770471,40.8616147 92.494911,41.3164306 C92.4082932,42.1468839 91.7614241,42.7563739 91.4481257,43.503966 C90.329466,43.6070822 89.2071204,43.5389518 88.0866178,43.5592068 C87.0361466,43.5371105 85.9801466,43.6144476 84.9333613,43.4929178 C84.5997906,42.8355524 84.2662199,42.178187 83.9013194,41.5392351 C83.9086911,41.4398017 83.9215916,41.2390935 83.9289634,41.1396601 C84.4892147,40.857932 85.0549948,40.5854108 85.6023455,40.2815864 C85.6521047,37.3077904 85.6134031,34.3339943 85.6207749,31.3620397 C85.0734241,31.1097734 84.5242304,30.8593484 83.9768796,30.6144476 C83.9400209,30.524221 83.8663037,30.3456091 83.829445,30.2572238 C84.2146178,29.6109065 84.5942618,28.9609065 84.9517906,28.2998584 L84.9517906,28.2998584 Z M84.9444188,30.1283286 C85.5415288,30.4045326 86.4648377,30.6512748 86.4593089,31.4596317 C86.4777382,34.2953258 86.4593089,37.1291785 86.4758953,39.9648725 C86.4611518,40.2484419 86.4740524,40.5522663 86.3321466,40.8100567 C85.9285445,41.18017 85.3959372,41.3606232 84.9186178,41.6073654 C85.1065969,41.973796 85.2982618,42.3402266 85.4917696,42.7048159 C87.3125864,42.7140227 89.1352461,42.7563739 90.9542199,42.6753541 C91.1366702,42.3199717 91.3264921,41.9701133 91.52,41.620255 C91.0721675,41.3587819 90.5930052,41.1433428 90.1820314,40.8229462 C89.8613613,40.576204 89.9129634,40.1269122 89.894534,39.7696884 C89.9019058,37.2543909 89.9055916,34.7409348 89.894534,32.2274788 C89.8834764,31.7616147 89.9516649,31.3012748 90.0401257,30.8464589 C90.5248168,30.5481586 91.0371518,30.3014164 91.5605445,30.0786119 C91.3375497,29.7213881 91.112712,29.367847 90.8878743,29.0143059 C89.0910157,29.0161473 87.296,29.0161473 85.5009843,29.01983 C85.2964188,29.3788952 85.1102827,29.7490085 84.9444188,30.1283286 L84.9444188,30.1283286 Z" id="Shape"></path>
                            <path d="M110.179686,28.2630312 C110.551958,28.1912181 110.931602,28.1507082 111.313089,28.1617564 C113.080461,28.1912181 114.849675,28.1378187 116.617047,28.1856941 C117.020649,28.7767705 117.365277,29.4083569 117.71912,30.0307365 C117.704377,30.1283286 117.678576,30.3235127 117.663832,30.4211048 C117.160712,30.8096317 116.60599,31.1189802 116.042052,31.4062323 C115.986764,34.2253541 116.025466,37.0463173 116.02178,39.8654391 C117.663832,40.2944759 119.558366,39.88017 120.898178,38.8305949 C121.28888,38.5764873 121.530304,37.9338527 122.066597,38.0148725 C122.717152,38.631728 123.566743,39.1067989 123.972188,39.9335694 C123.131812,41.2998584 122.285906,42.6606232 121.460272,44.036119 C120.881592,44.2626062 120.254995,44.2036827 119.64867,44.1779037 C119.457005,43.9771955 119.263497,43.7764873 119.073675,43.575779 C116.29822,43.529745 113.520921,43.5849858 110.743623,43.55 C110.118869,43.5463173 109.88666,42.8576487 109.577047,42.434136 C109.309822,42.0474504 108.889634,41.3919263 109.464628,41.0641643 C109.903246,40.5835694 110.922387,40.5706799 110.92423,39.7844193 C110.951874,37.3851275 110.916859,34.9858357 110.937131,32.5883853 C110.927916,32.1888102 110.95556,31.7763456 110.833927,31.3915014 C110.334492,31.0195467 109.715267,30.8243626 109.274806,30.3769122 C109.208461,29.577762 109.927204,28.9848442 110.179686,28.2630312 L110.179686,28.2630312 Z M110.749152,29.0456091 C110.49667,29.3512748 110.363979,29.7287535 110.212859,30.0896601 C110.752838,30.4211048 111.670618,30.5371105 111.764607,31.2865439 C111.803309,34.383711 111.736963,37.4808782 111.792251,40.5780453 C111.33889,41.0862606 110.680963,41.2998584 110.089382,41.5926346 C110.308691,41.9701133 110.531686,42.3439093 110.756524,42.7195467 C113.404817,42.7213881 116.05311,42.7140227 118.701403,42.7195467 C119.274555,42.6679887 119.731602,43.0288952 120.144419,43.3713881 C120.395058,43.3566572 120.645696,43.3419263 120.898178,43.3290368 C121.554262,42.1855524 122.289592,41.0899433 122.958576,39.9538244 C122.630534,39.6389518 122.302492,39.327762 121.97445,39.0165722 C120.384,40.673796 117.927372,41.0752125 115.734283,40.8229462 C115.096628,40.6572238 115.170346,39.9133144 115.177717,39.4014164 C115.231162,36.5509915 115.092942,33.6950425 115.247749,30.8501416 C115.712168,30.5684136 116.207916,30.3437677 116.716565,30.1522663 C116.585717,29.7213881 116.353508,29.3365439 116.075225,28.9866856 C114.300482,29.0584986 112.518366,28.9314448 110.749152,29.0456091 L110.749152,29.0456091 Z" id="Shape"></path>
                            <path d="M129.677906,31.0250708 C130.964272,30.7783286 132.418346,31.1650142 133.295581,32.1685552 C134.609592,33.6287535 135.020565,35.7518414 134.655665,37.6466006 C134.462157,38.7330028 133.809759,39.767847 132.801675,40.2631728 C131.837822,40.7511331 130.722848,40.6793201 129.677906,40.5964589 C129.727665,37.4072238 129.720293,34.2143059 129.677906,31.0250708 L129.677906,31.0250708 Z M130.56067,31.8905099 C130.536712,34.5015581 130.545927,37.1144476 130.555141,39.7273371 C131.686702,39.977762 133.017298,39.4990085 133.513047,38.3997167 C134.231791,36.8235127 134.029068,34.9029745 133.181319,33.4151558 C132.683728,32.4723796 131.640628,31.8113314 130.56067,31.8905099 L130.56067,31.8905099 Z" id="Shape"></path>
                        </g>
                        <g id="#fe0100ff" transform="translate(1.842932, 1.657224)" fill="#575D63">
                            <path d="M0.790617801,0.0718130312 C3.47024084,0.00368271955 6.15170681,0.0644475921 8.83317277,0.040509915 C10.0624084,0.0533994334 11.3414031,-0.0773371105 12.5079791,0.40325779 C14.1168586,1.00538244 15.6041047,2.24645892 16.1274974,3.92577904 C16.6822199,5.80396601 16.3873508,7.94730878 15.2263037,9.54192635 C14.1868901,10.8069405 12.5816963,11.3924929 11.0317906,11.7515581 C11.1755393,11.9927762 11.3248168,12.2339943 11.507267,12.4494334 C13.1898639,14.4362606 14.9111623,16.3936261 16.7669948,18.2220963 C19.9884398,21.2345609 24.1976963,22.7886686 28.2503037,24.3280453 C27.1003141,25.1087819 25.723644,25.513881 24.3340733,25.5065156 C21.9087749,25.5322946 19.5461361,24.6907932 17.518911,23.3963173 C13.457089,20.8589235 10.1785131,17.1522663 7.87300524,12.9779037 C7.5302199,12.9779037 7.18927749,12.9760623 6.84649215,12.974221 C6.83727749,14.7879603 6.89440838,16.6016997 6.86860733,18.4154391 C6.88335079,18.783711 6.84833508,19.1703966 6.98655497,19.520255 C7.50810471,20.1923513 8.51250262,20.1223796 9.06722513,20.7613314 C8.74286911,21.1977337 8.56963351,21.7740793 8.15313089,22.1239377 C5.73151832,22.1497167 3.3062199,22.1239377 0.882764398,22.1349858 C0.554722513,21.6543909 0.265382199,21.1516997 0.0350157068,20.6177054 C0.700314136,20.313881 1.42090052,20.103966 2.0198534,19.6730878 C2.30366492,19.4760623 2.31472251,19.1133144 2.31840838,18.803966 C2.32025131,14.06983 2.31840838,9.33753541 2.32209424,4.60339943 C2.30366492,4.04915014 2.39581152,3.46728045 2.22257592,2.93144476 C1.84108901,2.11756374 0.921465969,1.80269122 0.149277487,1.47677054 C0.300397906,0.983286119 0.528921466,0.515580737 0.790617801,0.0718130312 L0.790617801,0.0718130312 Z M6.88335079,2.62209632 C6.81700524,5.10056657 6.87413613,7.58087819 6.7746178,10.0575071 C7.70529843,10.2895184 8.81105759,10.1974504 9.52980105,9.50325779 C10.6318743,8.48866856 11.3137592,7.02110482 11.3966911,5.52776204 C11.4611937,4.67705382 11.1405236,3.76189802 10.4107225,3.27577904 C9.37499476,2.58895184 8.08125654,2.55949008 6.88335079,2.62209632 L6.88335079,2.62209632 Z" id="Shape"></path>
                            <path d="M23.449466,3.7490085 C24.7450471,3.44150142 26.1346178,3.59985836 27.3380524,4.15963173 C29.1109529,5.04532578 30.5134241,6.6694051 31.0699895,8.57521246 C31.761089,10.8769122 31.4496335,13.5026912 30.0674346,15.4932011 C29.3763351,16.4543909 28.4917277,17.3124646 27.4154555,17.8280453 C25.4508901,18.7671388 23.0126911,18.5056657 21.228733,17.2848442 C19.5995812,16.2886686 18.6357277,14.463881 18.3482304,12.6151558 C18.1381361,11.1015581 18.2210681,9.51614731 18.7665759,8.07620397 C19.5479791,6.02308782 21.3024503,4.30694051 23.449466,3.7490085 L23.449466,3.7490085 Z M24.4170052,5.64745042 C23.5710995,5.98626062 23.1324817,6.87932011 22.7804817,7.66189802 C21.9714346,9.85679887 22.0193508,12.3536827 22.8339267,14.5393768 C23.1748691,15.3569405 23.692733,16.3660057 24.6916021,16.4470255 C25.4988063,16.5446176 26.0922304,15.8412181 26.4626597,15.2151558 C27.1998325,13.7733711 27.4136126,12.1069405 27.3380524,10.5031161 C27.240377,9.05396601 26.8773194,7.58456091 26.075644,6.3582153 C25.7328586,5.81685552 25.0675602,5.3970255 24.4170052,5.64745042 L24.4170052,5.64745042 Z" id="Shape"></path>
                            <path d="M32.6770262,4.09334278 C34.7060942,4.02889518 36.7406911,4.02705382 38.7697592,4.08597734 C38.9006073,4.45977337 39.0351414,4.83172805 39.1715183,5.20368272 C38.8416335,5.35835694 38.5135916,5.51303116 38.1855497,5.6713881 C38.6131099,7.12606232 39.8534031,8.15906516 40.5703037,9.47011331 C41.4530681,8.26586402 42.4206073,7.08002833 43.0232461,5.70637394 C42.7597068,5.53512748 42.4869529,5.38229462 42.2068272,5.24235127 C42.2602723,4.85750708 42.321089,4.47266289 42.3911204,4.08966006 C43.9373403,4.0325779 45.489089,4.01600567 47.0371518,4.09334278 C47.1809005,4.47634561 47.3283351,4.85566572 47.4776126,5.23498584 C46.7588691,5.51303116 45.9866806,5.80396601 45.5388482,6.47422096 C44.6284398,7.76869688 43.7401466,9.0815864 42.8315812,10.3760623 C42.4371937,10.9763456 41.9303874,11.5766289 41.9101152,12.329745 C41.8824712,13.4456091 41.9525026,14.5596317 41.9893613,15.6754958 C42.4316649,16.132153 43.0306178,16.3715297 43.5687539,16.6882436 C43.3605026,17.0344193 43.1522513,17.3805949 42.9532147,17.7304533 C41.1231832,17.7543909 39.2913089,17.7470255 37.4594346,17.7396601 C37.2751414,17.3879603 37.0853194,17.038102 36.8973403,16.6882436 C37.3967749,16.367847 38.0307435,16.2113314 38.4288168,15.7601983 C38.6075812,15.0126062 38.5283351,14.2189802 38.5633508,13.4511331 C38.6131099,12.4973088 38.016,11.6963173 37.4760209,10.9689802 C36.5342827,9.64688385 35.5667435,8.34320113 34.6342199,7.01558074 C34.1310995,6.15750708 33.2815079,5.58300283 32.3452984,5.29022663 C32.4540314,4.89065156 32.5646073,4.49107649 32.6770262,4.09334278 L32.6770262,4.09334278 Z" id="Shape"></path>
                            <path d="M52.6009634,4.07308782 C53.7011937,4.01600567 54.803267,4.01416431 55.9034974,4.0878187 C56.8968377,7.05424929 58.0486702,9.96728045 59.0917696,12.9171388 C59.4529843,13.8083569 59.6944084,14.7529745 60.1274974,15.6128895 C60.5310995,16.0364023 61.1318953,16.1708215 61.6589738,16.3807365 C61.5096963,16.8594901 61.3309319,17.3271955 61.1060942,17.7746459 C59.3884817,17.7249292 57.6708691,17.7617564 55.9532565,17.7728045 C55.8039791,17.3087819 55.6639162,16.8429178 55.5256963,16.3770538 C55.8095079,16.2555241 56.0914764,16.1339943 56.3771309,16.0143059 C56.401089,15.2575071 56.0288168,14.5798867 55.7560628,13.8985836 C54.2393298,13.9335694 52.7244398,13.9041076 51.2077068,13.9169972 C51.0068272,14.4417847 50.7359162,14.9444759 50.6161257,15.4968839 C50.4484188,16.0805949 51.1634764,16.2389518 51.5228482,16.5169972 C51.3496126,16.9368272 51.174534,17.3548159 51.0012984,17.7746459 C49.606199,17.7120397 48.2092565,17.78017 46.8141571,17.7415014 C46.6575079,17.3069405 46.4842723,16.8779037 46.301822,16.4543909 C46.7533403,16.2831445 47.2288168,16.1616147 47.6526911,15.9259207 C48.0857801,15.6441926 48.2534869,15.1322946 48.4359372,14.6756374 C49.8070785,11.1347025 51.2500942,7.6213881 52.6009634,4.07308782 L52.6009634,4.07308782 Z M51.9651518,12.0590652 C53.0119372,12.0590652 54.0568796,12.0443343 55.1036649,12.0516997 C54.5950157,10.6890935 54.1195393,9.31359773 53.5961466,7.95651558 C53.070911,9.33016997 52.4461571,10.6669972 51.9651518,12.0590652 L51.9651518,12.0590652 Z" id="Shape"></path>
                            <path d="M64.3017382,5.11529745 C64.4620733,4.74886686 64.6426806,4.3898017 64.8472461,4.04362606 C66.6699058,4.07124646 68.4962513,4.00127479 70.318911,4.0878187 C70.481089,4.42847025 70.724356,4.74886686 70.7593717,5.13371105 C70.2875812,5.53144476 69.4011309,5.52776204 69.2850262,6.25694051 C69.2536963,8.95637394 69.2942408,11.6594901 69.2665969,14.3607649 C69.2702827,14.7750708 69.2665969,15.2022663 69.4011309,15.6 C69.8766073,16.0087819 70.5474346,15.901983 71.1279581,15.9111898 C72.9229738,15.8964589 74.813822,15.3974504 76.0836021,14.0606232 C76.4171728,14.3478754 76.7452147,14.6424929 77.0677277,14.9426346 C76.4208586,16.1192635 75.6763141,17.2369688 74.9723141,18.3786119 C74.1153508,18.6327195 73.6288168,17.6623229 72.808712,17.7433428 C70.1604188,17.7396601 67.5121257,17.7415014 64.8638325,17.7433428 C64.6297801,17.3713881 64.4086283,16.9939093 64.2040628,16.6053824 C64.8527749,16.2426346 66.0119791,16.0732295 65.8866597,15.088102 C65.8719162,12.2045326 65.905089,9.31912181 65.8700733,6.43555241 C65.8571728,5.60141643 64.8841047,5.44490085 64.3017382,5.11529745 L64.3017382,5.11529745 Z" id="Shape"></path>
                            <path d="M44.9325236,21.6046742 C45.3287539,21.5936261 45.7268272,21.5954674 46.1249005,21.6028329 C47.0076649,23.1293201 47.9328168,24.628187 48.8542827,26.1325779 C48.4267225,26.5708215 47.9917906,26.9998584 47.5513298,27.4252125 C46.0161675,25.7348442 43.7272461,24.8344193 41.454911,24.8951841 C40.8633298,24.9430595 40.1298429,24.8049575 39.6838534,25.2910765 C39.261822,25.7053824 39.3042094,26.3369688 39.287623,26.8783286 C39.3005236,28.3477337 39.2544503,29.8171388 39.3171099,31.2847025 C39.289466,31.7468839 39.7133403,32.1335694 40.1648586,32.1151558 C40.7988272,32.1354108 41.4346387,32.0985836 42.0704503,32.1114731 C42.3597906,31.8776204 42.6436021,31.6382436 42.9218848,31.3896601 C43.2996859,31.3970255 43.6793298,31.4080737 44.0589738,31.4228045 C44.9343665,32.8922096 45.8650471,34.3284703 46.7975707,35.7628895 C46.3902827,36.2121813 45.9535079,36.6338527 45.5093613,37.0463173 C44.5547225,36.1477337 43.5834974,35.1552408 42.3026597,34.7446176 C41.4991414,34.5936261 40.6679791,34.6101983 39.8589319,34.7022663 C39.3447539,34.7206799 39.3115812,35.33017 39.2968377,35.7186969 C39.2747225,38.3610482 39.287623,41.0033994 39.2949948,43.6457507 C39.2397068,44.292068 39.6764817,45.0212465 40.3675812,45.0654391 C42.7394346,45.2145892 45.2937382,45.3103399 47.4370681,44.1116147 C48.1650262,43.7543909 48.684733,43.1154391 49.3481885,42.66983 C49.7370471,43.1338527 50.336,43.457932 50.5921675,44.0084986 C49.8457801,45.4134561 48.9667016,46.7484419 48.1723979,48.1276204 C47.9641466,48.6947592 47.3062199,48.5603399 46.8362723,48.5032578 C46.3110366,48.146034 45.8466178,47.5770538 45.1444607,47.6194051 C41.209801,47.5917847 37.2714555,47.6451841 33.3367958,47.5917847 C33.1580314,47.1461756 32.736,46.7373938 32.7046702,46.267847 C33.3496963,45.6436261 34.848,45.5607649 34.7963979,44.384136 C34.8332565,38.370255 34.8111414,32.3563739 34.8277277,26.3424929 C34.8185131,25.8839943 34.8350995,25.3647309 34.4996859,25.0038244 C34.0039372,24.4735127 33.3146806,24.1899433 32.6438534,23.9505666 C32.8373613,23.4478754 33.0677277,22.959915 33.3294241,22.4885269 C36.6596021,22.4130312 39.991623,22.4848442 43.3199581,22.4535411 C43.9612984,22.4627479 44.5897382,22.1515581 44.9325236,21.6046742 L44.9325236,21.6046742 Z" id="Shape"></path>
                            <path d="M77.6003351,28.0954674 C78.1274136,28.1378187 78.604733,27.8597734 78.8830157,27.4215297 C79.227644,27.4657224 79.7307644,27.3110482 79.9095288,27.7124646 C80.5305969,28.7344193 81.1811518,29.7416431 81.7782618,30.7764873 C81.4907644,31.1760623 81.0982199,31.4780453 80.7314764,31.7984419 C79.5593717,30.55 77.7938429,30.0049575 76.113089,30.0325779 C75.3888168,30.0546742 74.5558115,29.9055241 73.9771309,30.4487252 C73.9845026,31.133711 73.9181571,31.8223796 74.0195183,32.5036827 C74.2535707,32.7964589 74.6590157,32.8553824 75.0128586,32.8609065 C75.9195812,32.9695467 76.4798325,32.0101983 77.4031414,32.1538244 C78.1292565,33.2696884 78.8314136,34.3984419 79.552,35.5179887 C79.2,35.7997167 78.9198743,36.2858357 78.5070576,36.425779 C77.9025759,35.9359773 77.3718115,35.3356941 76.6420105,35.0189802 C75.9361675,34.6212465 75.110534,34.6525496 74.3309738,34.7022663 C74.2572565,34.772238 74.1135079,34.9103399 74.0397906,34.9803116 C73.9771309,36.2711048 74.0195183,37.5637394 74.0029319,38.8545326 C73.9863455,39.2375354 74.0913927,39.6076487 74.2314555,39.9630312 C74.7106178,40.1784703 75.1860942,40.4086402 75.6597277,40.6406516 C75.464377,41.0107649 75.274555,41.3808782 75.0884188,41.7546742 C73.2399581,41.7970255 71.3859686,41.8320113 69.5375079,41.7436261 C69.3495288,41.3864023 69.1597068,41.0291785 68.966199,40.673796 C69.4066597,40.4712465 69.8839791,40.3331445 70.2875812,40.0606232 C70.5916649,39.742068 70.5234764,39.2522663 70.5603351,38.8490085 C70.562178,36.0869688 70.5658639,33.3230878 70.5566492,30.5610482 C70.5658639,29.6974504 69.5669948,29.5041076 68.9403979,29.229745 C69.1302199,28.8356941 69.344,28.4526912 69.5854241,28.0862606 C72.2576754,28.1046742 74.9299267,28.088102 77.6003351,28.0954674 L77.6003351,28.0954674 Z" id="Shape"></path>
                            <path d="M101.739058,28.0770538 C102.210848,28.1212465 102.522304,27.7290368 102.837445,27.4454674 C103.100984,27.4344193 103.364524,27.4233711 103.631749,27.4123229 C104.324691,28.5429178 105.060021,29.6477337 105.736377,30.7875354 C105.397277,31.1373938 105.045277,31.4743626 104.684063,31.8002833 C103.292649,30.3566572 101.176963,29.8613314 99.2308272,30.0675637 C98.9562304,30.1135977 98.7277068,30.2848442 98.4881257,30.411898 C98.4807539,31.1521246 98.4825969,31.8923513 98.5286702,32.6325779 C99.2326702,32.9106232 100.102534,33.0174221 100.727288,32.5 C101.059016,32.1888102 101.506848,32.1814448 101.938094,32.177762 C102.643937,33.3046742 103.368209,34.4186969 104.075895,35.5437677 C103.736796,35.8715297 103.388482,36.1882436 103.025424,36.4902266 C102.144503,35.5898017 101.059016,34.634136 99.7173613,34.6746459 C99.3377173,34.7114731 98.7958953,34.5973088 98.5765864,34.9950425 C98.4715393,35.6652975 98.5268272,36.3466006 98.5176126,37.0223796 C98.5360419,37.9209632 98.4346806,38.836119 98.6632042,39.7181303 C99.1184084,39.8359773 99.588356,39.8746459 100.060147,39.8507082 C101.366785,39.7973088 102.737927,40.0330028 103.97822,39.4971671 C104.754094,39.2154391 105.391749,38.6888102 106.02756,38.1824363 C106.449592,38.1548159 106.71866,38.631728 107.050387,38.8379603 C106.377717,40.06983 105.653445,41.2759207 104.907058,42.4654391 C104.107225,42.5851275 103.631749,41.763881 102.85956,41.809915 C99.9256126,41.7620397 96.9916649,41.8504249 94.0595602,41.7583569 C93.8844817,41.3974504 93.7075602,41.0383853 93.5269529,40.6811615 C94.0024293,40.4546742 94.4760628,40.2208215 94.9496963,39.9869688 C95.0363141,39.4916431 95.0971309,38.9907932 95.0897592,38.488102 C95.0768586,35.9728045 95.0860733,33.4575071 95.0860733,30.9403683 C95.065801,30.5886686 95.0860733,30.1835694 94.8464921,29.8981586 C94.4392042,29.5703966 93.9213403,29.4322946 93.4477068,29.2315864 C93.6522723,28.8430595 93.8678953,28.4600567 94.092733,28.0807365 C96.6415079,28.1009915 99.1902827,28.1101983 101.739058,28.0770538 L101.739058,28.0770538 Z" id="Shape"></path>
                            <path d="M109.643393,28.1249292 C111.412607,28.0107649 113.194723,28.1378187 114.969466,28.0660057 C115.247749,28.415864 115.479958,28.8007082 115.610806,29.2315864 C115.102157,29.4230878 114.606408,29.6477337 114.14199,29.9294618 C113.987183,32.7743626 114.125403,35.6303116 114.071958,38.4807365 C114.064586,38.9926346 113.990869,39.7365439 114.628524,39.9022663 C116.821613,40.1545326 119.278241,39.7531161 120.868691,38.0958924 C121.196733,38.4070822 121.524775,38.718272 121.852817,39.0331445 C121.183832,40.1692635 120.448503,41.2648725 119.792419,42.4083569 C119.539937,42.4212465 119.289298,42.4359773 119.03866,42.4507082 C118.625843,42.1082153 118.168796,41.7473088 117.595644,41.7988669 C114.947351,41.7933428 112.299058,41.8007082 109.650764,41.7988669 C109.425927,41.4232295 109.202932,41.0494334 108.983623,40.6719547 C109.575204,40.3791785 110.233131,40.1655807 110.686492,39.6573654 C110.631204,36.5601983 110.69755,33.4630312 110.658848,30.365864 C110.564859,29.6164306 109.647079,29.5004249 109.107099,29.1689802 C109.25822,28.8080737 109.390911,28.4305949 109.643393,28.1249292 L109.643393,28.1249292 Z" id="Shape"></path>
                            <path d="M123.634932,29.065864 C123.784209,28.6754958 123.961131,28.2961756 124.169382,27.9315864 C125.837236,28.0181303 127.510618,27.9186969 129.180314,27.9886686 C131.835979,28.1912181 134.585634,29.2868272 136.159497,31.527762 C137.315016,33.1481586 137.77022,35.2583569 137.296586,37.2009915 C136.966702,38.5635977 136.316147,39.931728 135.145885,40.7640227 C133.946136,41.5705382 132.464419,41.8356941 131.03799,41.8043909 C128.776712,41.7804533 126.508063,41.8706799 124.248628,41.7601983 C123.962974,41.4839943 123.854241,41.0733711 123.671791,40.7271955 C124.233885,40.3810198 125.230911,40.2318697 125.232754,39.4106232 C125.232754,36.4 125.208796,33.3893768 125.181152,30.3787535 C125.210639,29.5372521 124.230199,29.3531161 123.634932,29.065864 L123.634932,29.065864 Z M128.572147,30.1043909 C128.614534,33.2936261 128.621906,36.4865439 128.572147,39.675779 C129.617089,39.7586402 130.732063,39.8304533 131.695916,39.3424929 C132.704,38.8471671 133.356398,37.8123229 133.549906,36.7259207 C133.914806,34.8311615 133.503832,32.7080737 132.189822,31.2478754 C131.312586,30.2443343 129.858513,29.8576487 128.572147,30.1043909 L128.572147,30.1043909 Z" id="Shape"></path>
                            <path d="M51.445445,29.1800283 C51.6334241,28.8209632 51.8177173,28.4582153 52.0020105,28.0973088 C53.559288,28.1304533 55.1165654,28.134136 56.672,28.0954674 C58.5739058,30.3456091 60.3081047,32.7393768 62.2542408,34.9508499 C62.2874136,33.4409348 62.3169005,31.9254958 62.248712,30.4155807 C61.9649005,29.7269122 61.1374241,29.5225212 60.5384712,29.1818697 C60.7282932,28.8338527 60.9070576,28.4803116 61.0710785,28.1194051 C62.493822,28.1267705 63.9184084,28.0936261 65.3411518,28.1378187 C65.5236021,28.5005666 65.7207958,28.8577904 65.9308901,29.2076487 C65.2342618,29.5759207 64.2169634,29.9828612 64.279623,30.9330028 C64.2740942,34.5439093 64.3054241,38.1548159 64.2611937,41.763881 C63.6530262,41.7896601 63.0430157,41.7970255 62.4348482,41.7951841 C60.2988901,38.8471671 58.1445026,35.9120397 56.0048586,32.965864 C55.833466,32.7007082 55.5938848,32.4926346 55.3045445,32.3637394 C55.2031832,34.4610482 55.317445,36.5620397 55.2566283,38.6611898 C55.2289843,39.1067989 55.291644,39.5505666 55.4353927,39.9759207 C55.9071832,40.2300283 56.3771309,40.4915014 56.8507644,40.7492918 C56.6535707,41.0936261 56.482178,41.4582153 56.2260105,41.763881 C54.8216963,41.7915014 53.4063246,41.8430595 52.0056963,41.7417847 C51.771644,41.4287535 51.6242094,41.0604816 51.4546597,40.7124646 C52.0388691,40.3975921 53.070911,40.2668555 53.043267,39.4143059 C53.096712,36.7148725 53.0469529,34.009915 53.0672251,31.3086402 C53.0358953,30.8575071 53.1409424,30.2995751 52.7576126,29.966289 C52.3595393,29.6458924 51.8895916,29.4304533 51.445445,29.1800283 L51.445445,29.1800283 Z" id="Shape"></path>
                            <path d="M83.8386597,29.2076487 C84.0045236,28.8283286 84.1906597,28.4582153 84.3952251,28.0991501 C86.1902408,28.0954674 87.9852565,28.0954674 89.7821152,28.0936261 C90.0069529,28.4471671 90.2317906,28.8007082 90.4547853,29.157932 C89.9313927,29.3807365 89.4190576,29.6274788 88.9343665,29.925779 C88.8459058,30.3805949 88.7777173,30.8409348 88.7887749,31.3067989 C88.7998325,33.820255 88.7961466,36.333711 88.7887749,38.8490085 C88.8072042,39.2062323 88.7556021,39.6555241 89.0762723,39.9022663 C89.4872461,40.2226629 89.9664084,40.438102 90.4142408,40.6995751 C90.220733,41.0494334 90.030911,41.3992918 89.8484607,41.7546742 C88.0294869,41.8356941 86.2068272,41.7933428 84.3860105,41.784136 C84.1925026,41.4195467 84.0008377,41.0531161 83.8128586,40.6866856 C84.290178,40.4399433 84.8227853,40.2594901 85.2263874,39.8893768 C85.3682932,39.6315864 85.3553927,39.327762 85.3701361,39.0441926 C85.3535497,36.2084986 85.3719791,33.3746459 85.3535497,30.5389518 C85.3590785,29.7305949 84.4357696,29.4838527 83.8386597,29.2076487 L83.8386597,29.2076487 Z" id="Shape"></path>
                        </g>
                    </g>
                </g>
            </g>
        </g>
    </g>
</svg>