<?xml version="1.0" encoding="UTF-8" standalone="no"?>
<svg width="185px" height="185px" viewBox="0 0 185 185" version="1.1" xmlns="http://www.w3.org/2000/svg" xmlns:xlink="http://www.w3.org/1999/xlink">
    <!-- Generator: Sketch 3.6.1 (26313) - http://www.bohemiancoding.com/sketch -->
    <title>hero</title>
    <desc>Created with Sketch.</desc>
    <defs></defs>
    <g id="Page-1" stroke="none" stroke-width="1" fill="none" fill-rule="evenodd">
        <g id="28-getstarted-copy" transform="translate(-311.000000, -203.000000)">
            <g id="hero" transform="translate(311.000000, 203.000000)">
                <path d="M92.5,5 C44.252,5 5,44.252 5,92.5 C5,140.748 44.252,180 92.5,180 C140.748,180 180,140.748 180,92.5 C180,44.252 140.748,5 92.5,5 M0,92.5 C0,41.495 41.495,0 92.5,0 C143.505,0 185,41.495 185,92.5 C185,143.505 143.505,185 92.5,185 C41.495,185 0,143.505 0,92.5 Z" id="Fill-1" fill="#BCC4CE"></path>
                <g id="Hero_MotoCorp" transform="translate(51.000000, 45.000000)" fill="#575D63">
                    <g id="Layer_1">
                        <g id="Layer_x0020_1">
                            <g id="_229987144">
                                <path d="M5.47492105,94.1352632 L0.342631579,94.1352632 L0.342631579,72.9412895 L5.47492105,72.9412895 L5.47492105,80.7228947 L15.7395,80.7228947 L15.7395,72.9412895 L20.8717895,72.9412895 L20.8717895,94.1352632 L15.7395,94.1352632 L15.7395,85.1925789 L5.47492105,85.1925789 L5.47492105,94.1352632 Z" id="Shape"></path>
                                <path d="M48.3580263,83.2058684 L48.3580263,93.9694737 L54.6497368,93.9694737 L54.6497368,83.2058684 C54.6497368,81.7159737 55.3123421,80.2260789 56.4695526,79.2335526 C57.6295263,78.0735789 59.1188684,77.5773158 60.9414474,77.5773158 L60.9414474,71.7818684 C57.4631842,71.7818684 54.4833947,72.9412895 52.0004211,75.0937895 C49.5174474,77.2462895 48.3580263,80.0602895 48.3580263,83.2058684 L48.3580263,83.2058684 Z" id="Shape"></path>
                                <path d="M78.3272368,83.2058684 C78.3272368,84.6979737 77.8309737,86.0193158 76.8373421,87.0151579 C75.8420526,88.0082368 74.5185,88.6708421 73.1927368,88.6708421 C71.7028421,88.6708421 70.5456316,88.1723684 69.5497895,87.0151579 C68.5567105,86.0193158 68.0604474,84.6985263 68.0604474,83.2058684 C68.0604474,81.7159737 68.5567105,80.3924211 69.5497895,79.3993421 C70.5456316,78.4057105 71.8686316,77.9072368 73.1927368,77.9072368 C74.6848421,77.9072368 75.8420526,78.4057105 76.8373421,79.5634737 C77.8309737,80.5565526 78.3272368,81.8795526 78.3272368,83.3722105 L78.3272368,83.2058684 L78.3272368,83.2058684 Z M73.1927368,72.4422632 C70.2129474,72.4422632 67.7299737,73.4375526 65.7438158,75.5878421 C63.7548947,77.7408947 62.5982368,80.2260789 62.5982368,83.2053158 C62.5982368,86.1845526 63.5913158,88.8360789 65.7438158,90.8227895 C67.7305263,92.9758421 70.2135,93.9683684 73.1927368,93.9683684 C76.1747368,93.9683684 78.6577105,92.9752895 80.6438684,90.8227895 C82.6300263,88.6702895 83.7894474,86.1845526 83.7894474,83.2053158 C83.7894474,80.2260789 82.7963684,77.5762105 80.6438684,75.5878421 C78.6577105,73.4375526 76.1747368,72.4422632 73.1927368,72.4422632 L73.1927368,72.4422632 Z" id="Shape"></path>
                                <path d="M23.3569737,49.9263947 L37.5944211,59.0321053 L37.5944211,18.1362632 L23.3569737,8.36739474 L23.3569737,49.9263947 Z" id="Shape"></path>
                                <path d="M46.3718684,28.0703684 L60.7751053,19.6261579 L60.7751053,9.85673684 L46.3718684,0.253657895 L46.3718684,28.0703684 Z" id="Shape"></path>
                                <path d="M47.3649474,39.8259474 L47.3649474,41.4821842 L61.1077895,50.5873421 L61.1077895,30.7196842 L47.3649474,39.8259474 Z" id="Shape"></path>
                                <path d="M44.8819737,84.1989474 L31.6353947,84.1989474 L31.6353947,85.3589211 C31.6353947,87.1787368 31.9658684,88.5045 32.6284737,89.1654474 C33.2910789,89.8308158 34.1183684,90.1612895 35.1114474,90.1612895 C37.2639474,90.1612895 38.4233684,89.0013158 38.7538421,86.5183421 L45.0455526,86.8488158 C43.8861316,91.6506316 40.5764211,94.1363684 35.1114474,94.1363684 C31.6348421,94.1363684 29.1518684,93.1410789 27.3298421,91.3185 C25.5072632,89.3317895 24.6805263,86.8488158 24.6805263,83.7032368 C24.6805263,80.0608421 25.6736053,77.4115263 27.4961842,75.4253684 C29.316,73.6027895 31.9653158,72.6097105 35.1114474,72.6097105 C37.9271053,72.6097105 40.4100789,73.4386579 42.2321053,75.0948947 C44.2188158,76.7483684 45.0455526,79.8950526 45.0455526,84.3663947 L44.8819737,84.1989474 L44.8819737,84.1989474 Z M38.2575789,80.8870263 L38.2575789,80.3924211 C38.2575789,77.7408947 37.0981579,76.4173421 34.9451053,76.4173421 C32.7948158,76.4173421 31.6353947,77.9072368 31.6353947,81.0533684 L38.0912368,81.0533684 L38.2575789,80.8870263 L38.2575789,80.8870263 Z" id="Shape"></path>
                            </g>
                        </g>
                    </g>
                </g>
            </g>
        </g>
    </g>
</svg>