<?xml version="1.0" encoding="UTF-8" standalone="no"?>
<svg width="185px" height="185px" viewBox="0 0 185 185" version="1.1" xmlns="http://www.w3.org/2000/svg" xmlns:xlink="http://www.w3.org/1999/xlink">
    <!-- Generator: Sketch 3.6.1 (26313) - http://www.bohemiancoding.com/sketch -->
    <title>honda</title>
    <desc>Created with Sketch.</desc>
    <defs>
        <path id="path-1" d="M0,0.174454471 L0,60.6987451 L90.8310075,60.6987451 L90.8310075,0.174454471 L0,0.174454471 Z"></path>
    </defs>
    <g id="Page-1" stroke="none" stroke-width="1" fill="none" fill-rule="evenodd">
        <g id="28-getstarted-copy" transform="translate(-808.000000, -203.000000)">
            <g id="honda" transform="translate(808.000000, 203.000000)">
                <path d="M92.5,5 C44.252,5 5,44.252 5,92.5 C5,140.748 44.252,180 92.5,180 C140.748,180 180,140.748 180,92.5 C180,44.252 140.748,5 92.5,5 M0,92.5 C0,41.495 41.495,0 92.5,0 C143.505,0 185,41.495 185,92.5 C185,143.505 143.505,185 92.5,185 C41.495,185 0,143.505 0,92.5 Z" id="Fill-1" fill="#BCC4CE"></path>
                <g transform="translate(46.000000, 55.000000)" id="Group-14">
                    <g transform="translate(0.000000, 0.003560)">
                        <path d="M19.526166,54.8999853 L44.2400615,51.8210419 C44.2400615,51.8210419 43.8820434,50.5382675 45.6728437,50.2815702 C47.4638214,50.0246949 57.7483647,48.639384 57.7483647,48.639384 C57.7483647,48.639384 61.9444712,48.4852232 65.2701163,45.4064578 C65.2701163,45.4064578 67.67489,43.1485185 69.1074947,40.5313454 L15.1768768,50.8971453 L19.526166,54.8999853 Z" id="Fill-2" fill="#575D63"></path>
                        <path d="M14.0001743,49.7170498 L10.1113208,46.3303189 L78.3688731,28.4465994 L76.2198773,31.8591425 C76.2198773,31.8591425 73.9173438,36.8367914 65.7304987,38.5300678 C57.5438311,40.2237003 36.6673141,44.0722016 36.6673141,44.0722016 C36.6673141,44.0722016 34.4671982,44.0722016 34.3136605,45.8685486 L14.0001743,49.7170498 Z" id="Fill-4" fill="#575D63"></path>
                        <path d="M26.4338554,40.7881495 L9.03687613,45.5092792 L7.24589838,43.9699855 C7.24589838,43.9699855 5.0457825,41.7631364 9.39489418,40.3263792 L84.81618,15.8999051 C84.81618,15.8999051 84.2020291,17.9782275 82.9740822,20.0565499 C81.7459578,22.1346943 80.0573977,25.4447008 72.4589661,27.4459428 L28.4804335,38.9921586 C28.4804335,38.9921586 26.229375,39.1461413 26.4338554,40.7881495" id="Fill-6" fill="#575D63"></path>
                        <g id="Group-10">
                            <mask id="mask-2" fill="white">
                                <use xlink:href="#path-1"></use>
                            </mask>
                            <g id="Clip-9"></g>
                            <path d="M6.1202449,34.8127279 C6.1202449,34.8127279 -5.52040048,39.2999461 3.30597808,47.9208452 L16.9678191,60.6218427 L23.9520998,60.6987451 L5.60868912,44.688097 C5.60868912,44.688097 1.61759548,41.8400388 8.06458289,38.9921586 L80.4412066,12.9749445 C80.4412066,12.9749445 88.6337317,11.0050331 90.8310075,0.174436669 L6.1202449,34.8127279 Z" id="Fill-8" fill="#575D63" mask="url(#mask-2)"></path>
                        </g>
                        <g id="Group-13" transform="translate(0.887501, 62.305168)" fill="#575D63">
                            <path d="M67.8426455,7.81474143 C67.3745772,8.38332059 66.7616688,8.79667088 66.0025001,9.05390221 C65.243154,9.31148958 64.5068828,9.44019426 63.1612533,9.44019426 C62.676855,9.44019426 62.3713771,9.42648712 62.2441094,9.39818277 C62.1171967,9.37023445 62.0202815,9.31807613 61.9549614,9.24135176 C61.9137814,9.19079557 61.8931913,9.05283413 61.8931913,8.82817949 L61.8931913,2.19623938 L63.7890717,2.19623938 C64.9948311,2.19623938 65.606497,2.31390714 66.254728,2.54817457 C66.902959,2.78279803 67.4464649,3.18706957 67.8852455,3.76081116 C68.3243812,4.33437473 68.2283536,5.00869467 68.2283536,5.78377096 C68.2283536,6.56952814 68.3101812,7.24634028 67.8426455,7.81474143 L67.8426455,7.81474143 Z M72.8264981,5.72253388 C72.8264981,4.6184863 72.7821231,3.67180377 72.0623594,2.88337637 C71.3427733,2.09477096 70.3780594,1.49895554 69.16875,1.09717621 C67.9594406,0.695040853 66.6464711,0.494062182 64.5982955,0.494062182 L55.8938596,0.494062182 L55.8938596,1.95876768 L56.4895505,1.95876768 C57.0108688,1.95876768 57.3516693,1.9831557 57.5133721,2.03157572 C57.6743648,2.07999573 57.790095,2.15155767 57.8605626,2.24572748 C57.9306752,2.33989729 57.9659978,2.55031075 57.9659978,2.8764338 L57.9659978,8.70606136 C57.9659978,9.03271846 57.9328052,9.24437801 57.8669526,9.34121805 C57.7671975,9.46351419 57.6392198,9.5503854 57.481777,9.60111961 C57.3245118,9.65220984 56.9938288,9.67766596 56.4895505,9.67766596 L55.8938596,9.67766596 L55.8938596,11.1421934 L63.5253063,11.1421934 C64.2157824,11.1421934 65.1347013,11.0838046 66.2824181,10.9668489 C67.4301348,10.8502492 68.0007982,10.6996487 68.6259542,10.5164715 C69.4566554,10.2722353 70.2342841,9.907305 70.9586627,9.42096866 C71.6825089,8.93516637 72.2270797,8.38937309 72.5936178,7.78376686 C72.9589133,7.17833864 72.8264981,6.49137966 72.8264981,5.72253388 L72.8264981,5.72253388 Z M48.4562432,1.95876768 L49.294932,1.95876768 C49.6976801,1.95876768 49.969078,1.9831557 50.1091257,2.03157572 C50.2491734,2.07999573 50.3599336,2.16526481 50.4419387,2.28773897 C50.4994488,2.36926973 50.5283814,2.57345267 50.5283814,2.89975373 L50.5283814,7.97620082 L44.5436047,0.494062182 L36.9705555,0.494062182 L36.9705555,1.95876768 L37.890007,1.95876768 C38.2169625,1.95876768 38.4500203,1.9831557 38.589003,2.03157572 C38.7278082,2.07999573 38.8382134,2.15903429 38.920041,2.26851337 C39.0016912,2.3785265 39.0426937,2.55048876 39.0426937,2.78493421 L39.0426937,8.90508187 C39.0426937,9.11923363 38.9976087,9.27998097 38.907616,9.38696784 C38.8176234,9.49413273 38.6971007,9.56943298 38.5458705,9.61286858 C38.3948177,9.65612617 38.1148998,9.67766596 37.7062942,9.67766596 L36.9705555,9.67766596 L36.9705555,11.1421934 L43.4237555,11.1421934 L43.4237555,9.67766596 L42.6022842,9.67766596 C42.2100086,9.67766596 41.9338182,9.65220984 41.7746004,9.60111961 C41.6148502,9.5503854 41.504445,9.48113765 41.4433849,9.39480049 C41.3823248,9.30828532 41.3516173,9.1067726 41.3516173,8.79008433 L41.3516173,3.28960607 L47.715357,11.1421934 L52.8374824,11.1421934 L52.8374824,2.89868564 C52.8374824,2.57754701 52.8697875,2.36873568 52.9354626,2.27207367 C53.0007827,2.17541165 53.1174003,2.09904331 53.2851381,2.04279065 C53.4528759,1.986716 53.7327938,1.95876768 54.1250694,1.95876768 L54.9096206,1.95876768 L54.9096206,0.494062182 L48.4562432,0.494062182 L48.4562432,1.95876768 Z M78.7580247,6.2339703 L80.9684356,2.87269549 L83.1103314,6.2339703 L78.7580247,6.2339703 Z M89.970717,9.52670943 C89.7534566,9.42595308 89.5056662,9.15910894 89.2271683,8.72528696 L84.0785954,0.494062182 L80.0326542,0.494062182 L75.6112999,0.494952256 L75.6112999,1.76775783 L77.1633623,1.86851419 C77.8083983,1.8613936 78.0231736,2.26388499 77.8385733,2.75538376 L73.9669374,8.89012863 C73.8103821,9.13988335 73.6683819,9.31095554 73.5412917,9.40245513 C73.4134915,9.49413273 73.2514338,9.56338048 73.0540535,9.60895226 C72.8566732,9.65488007 72.5440952,9.67766596 72.1166745,9.67766596 L72.1166745,11.1421934 L78.7676097,11.1421934 L78.7676097,9.67766596 C78.1351763,9.67766596 77.7491132,9.6673411 77.6097755,9.64704742 C77.3964201,9.61678491 77.2428824,9.56889893 77.1486298,9.50267744 C77.0541996,9.43627793 77.0066295,9.36275783 77.0066295,9.2815831 C77.0066295,9.21055521 77.0719496,9.06066678 77.2032998,8.83209582 L77.8460283,7.75795472 L84.0237478,7.75795472 L84.5294461,8.72564299 C84.6856463,9.01046661 84.763214,9.19809418 84.763214,9.28923774 C84.763214,9.3960466 84.6730438,9.48612207 84.492526,9.55946415 C84.3116533,9.63316226 83.9953478,9.66983331 83.5432546,9.66983331 L83.0499813,9.67766596 L83.0499813,11.1421934 L91.1807363,11.1421934 L91.1807363,9.67766596 C90.5910804,9.67766596 90.1877998,9.62764381 89.970717,9.52670943 L89.970717,9.52670943 Z M10.6692751,1.95876768 L11.3151986,1.95876768 C11.8430844,1.95876768 12.184595,1.98173158 12.3390202,2.02765939 C12.4934454,2.07340919 12.6033181,2.15761017 12.6682832,2.27919426 C12.7170958,2.36588745 12.7414133,2.53126317 12.7414133,2.77567744 L12.7414133,4.76944282 L6.48523871,4.76944282 L6.48523871,2.91328285 C6.48523871,2.5823534 6.51807626,2.3676676 6.58339636,2.26815734 C6.64889396,2.16900312 6.75894413,2.09245677 6.91425687,2.03923035 C7.06974711,1.98564791 7.35996006,1.95876768 7.78507321,1.95876768 L8.5575544,1.95876768 L8.5575544,0.494062182 L0.170134011,0.494062182 L0.170134011,1.95876768 L0.939420193,1.95876768 C1.36932585,1.95876768 1.6588288,1.98422379 1.80792903,2.03531403 C1.95685176,2.08640427 2.06654692,2.16686694 2.13683703,2.27634602 C2.20712714,2.3858251 2.24227219,2.62151665 2.24227219,2.9837767 L2.24227219,8.78278573 C2.24227219,9.09395554 2.20712714,9.29529024 2.13683703,9.38696784 C2.06654692,9.47882346 1.93608422,9.5503854 1.74598143,9.60111961 C1.55552364,9.65220984 1.22093563,9.67766596 0.740797388,9.67766596 L0.170134011,9.67766596 L0.170134011,11.1421934 L8.5575544,11.1421934 L8.5575544,9.67766596 L7.98121101,9.67766596 C7.45794021,9.67766596 7.11039467,9.65719426 6.93892941,9.61660689 C6.76728665,9.57584151 6.64055145,9.49146251 6.55907883,9.36311386 C6.50973375,9.27624266 6.48523871,9.0537242 6.48523871,8.69555849 L6.48523871,6.74861099 L12.7414133,6.74861099 L12.7414133,8.69555849 C12.7414133,9.0537242 12.7069783,9.2815831 12.6377532,9.37860115 C12.5687056,9.47579721 12.4425029,9.55002937 12.2596776,9.60094159 C12.0768523,9.65220984 11.7296618,9.67766596 11.217751,9.67766596 L10.6692751,9.67766596 L10.6692751,11.1421934 L19.0566955,11.1421934 L19.0566955,9.67766596 L18.5632448,9.67766596 C17.9876114,9.67766596 17.6196533,9.65612617 17.4591931,9.61286858 C17.2990878,9.56943298 17.1796301,9.49502281 17.1017075,9.39070615 C17.0232524,9.2863895 16.9843798,9.05550435 16.9843798,8.69876276 L16.9843798,2.91524102 C16.9843798,2.56294979 17.0152649,2.33989729 17.0768575,2.24572748 C17.1386276,2.15155767 17.2474352,2.07999573 17.403813,2.03157572 C17.5596582,1.9831557 17.8764962,1.95876768 18.3536169,1.95876768 L19.0566955,1.95876768 L19.0566955,0.494062182 L10.6692751,0.494062182 L10.6692751,1.95876768 Z M30.789641,8.6028128 C30.0759124,9.20432469 29.123446,9.50481362 27.9324192,9.50481362 C26.7484923,9.50481362 25.7958484,9.20432469 25.0751973,8.6028128 C24.2404135,7.89929844 23.8234653,6.94371518 23.8234653,5.73588499 C23.8234653,4.5280548 24.270766,3.54220902 25.1664324,2.77727957 C25.879806,2.17113929 26.8397275,1.86780213 28.0460193,1.86780213 C28.7668479,1.86780213 29.434604,2.010926 30.0494649,2.29610566 C30.6641484,2.58128532 31.1517416,3.01208105 31.5120672,3.58795882 C31.8723927,4.1640146 32.052733,4.87500558 32.052733,5.72075373 C32.052733,6.92324348 31.6317023,7.8843452 30.789641,8.6028128 L30.789641,8.6028128 Z M34.1135112,1.7058087 C32.5550588,0.673679081 30.5177106,0.157436259 28.0004018,0.157436259 C25.4452853,0.157436259 23.3774072,0.676171288 21.7965897,1.71346333 C20.2161273,2.75039934 19.4257186,4.08355193 19.4257186,5.7130991 C19.4257186,7.46565447 20.327775,8.86502855 22.1322427,9.91246743 C23.62573,10.7808235 25.543798,11.2150015 27.8869791,11.2150015 C29.6609168,11.2150015 31.1753491,10.9862525 32.4300986,10.5291106 C33.684848,10.0721467 34.668732,9.42185874 35.3812181,8.5787808 C36.0940592,7.73623692 36.4504797,6.77068482 36.4504797,5.68248056 C36.4504797,4.06361427 35.6712535,2.73722625 34.1135112,1.7058087 L34.1135112,1.7058087 Z" id="Fill-11"></path>
                        </g>
                        <path d="M20.8565483,56.0803834 L25.6151531,60.596084 L57.9528628,60.596084 L46.031057,52.796011 L20.8565483,56.0803834 Z" id="Fill-1" fill="#575D63"></path>
                    </g>
                </g>
            </g>
        </g>
    </g>
</svg>