<?xml version="1.0" encoding="UTF-8" standalone="no"?>
<svg width="185px" height="185px" viewBox="0 0 185 185" version="1.1" xmlns="http://www.w3.org/2000/svg" xmlns:xlink="http://www.w3.org/1999/xlink">
    <!-- Generator: Sketch 3.6.1 (26313) - http://www.bohemiancoding.com/sketch -->
    <title>suzuki</title>
    <desc>Created with Sketch.</desc>
    <defs></defs>
    <g id="Page-1" stroke="none" stroke-width="1" fill="none" fill-rule="evenodd">
        <g id="28-getstarted-copy" transform="translate(-810.000000, -463.000000)">
            <g id="suzuki" transform="translate(810.000000, 463.000000)">
                <path d="M92.5,5 C44.252,5 5,44.252 5,92.5 C5,140.748 44.252,180 92.5,180 C140.748,180 180,140.748 180,92.5 C180,44.252 140.748,5 92.5,5 M0,92.5 C0,41.495 41.495,0 92.5,0 C143.505,0 185,41.495 185,92.5 C185,143.505 143.505,185 92.5,185 C41.495,185 0,143.505 0,92.5 Z" id="Fill-1" fill="#BCC4CE"></path>
                <g id="Suzuki_Motor_Corporation_logo" transform="translate(41.000000, 57.000000)" fill="#575D63">
                    <g id="svg2">
                        <g id="layer1" transform="translate(0.115238, 0.056622)">
                            <g id="g3308">
                                <path d="M73.8888967,32.0556746 C73.8888967,32.0556746 69.6664793,33.2846291 61.4846795,38.3339015 C54.1349013,42.8715679 51.255349,45.9189239 51.255349,45.9189239 L28.6190286,30.2080769 C28.6190286,30.2080769 38.1436987,23.1735784 46.1039965,28.5620582 L56.7791037,35.9163052 L58.0790522,35.0543806 L28.6190286,14.3317896 C28.6190286,14.3317896 32.8552937,13.1028455 41.0384773,8.05218201 C48.3882608,3.51451403 51.255349,0.465766418 51.255349,0.465766418 L73.9027445,16.178003 C73.9027445,16.178003 64.3780692,23.2138963 56.4177766,17.8240216 L45.7440531,10.4711616 L44.4440994,11.3289254 L73.8888967,32.0556746" id="path3213"></path>
                                <g id="g3300" transform="translate(0.000000, 52.761194)">
                                    <path d="M56.3624011,0.728856716 L39.1280041,0.728856716 L39.1280041,4.57558657 L47.4482453,4.57558657 L38.8359003,12.6555246 L38.8359003,15.8794425 L56.3347108,15.8794425 L56.3347108,12.0160276 L47.6268359,12.0160276 L56.3624011,3.95693806 L56.3624011,0.728856716" id="path3215"></path>
                                    <path d="M28.9803609,16.2659209 C35.8732822,16.2659209 37.6453139,14.498959 37.6453139,10.6021739 L37.6453139,0.728856716 L32.1769347,0.728856716 L32.1769347,10.0113321 C32.1769347,11.5711567 30.8479122,12.4998216 28.9803609,12.4998216 C27.0408137,12.4998216 25.794857,11.5669881 25.794857,9.98769925 L25.794857,0.728856716 L20.3278563,0.728856716 L20.3278563,10.6021739 C20.3278563,14.498959 22.0985043,16.2659209 28.9803609,16.2659209" id="path3217"></path>
                                    <path d="M66.3591493,16.2659209 C73.2520758,16.2659209 75.0241024,14.498959 75.0241024,10.6021739 L75.0241024,0.728856716 L69.5557283,0.728856716 L69.5557283,10.0113321 C69.5557283,11.5711567 68.2267058,12.4998216 66.3591493,12.4998216 C64.4196073,12.4998216 63.1736455,11.5669881 63.1736455,9.98769925 L63.1736455,0.728856716 L57.7066552,0.728856716 L57.7066552,10.6021739 C57.7066552,14.498959 59.4773032,16.2659209 66.3591493,16.2659209" id="path3219"></path>
                                    <path d="M102.26909,0.728856716 L96.5805926,0.728856716 L96.5805926,15.8794425 L102.26909,15.8794425 L102.26909,0.728856716" id="path3221"></path>
                                    <path d="M95.7222697,0.728856716 L88.2174348,0.728856716 L82.1689939,5.95607015 L82.1689939,0.728856716 L76.4638811,0.728856716 L76.4638811,15.8794425 L82.1689939,15.8794425 L82.1689939,10.5062478 L87.7882681,15.8794425 L95.4440032,15.8794425 L87.1099143,8.10534701 L95.7222697,0.728856716" id="path3223"></path>
                                    <path d="M6.8701104,4.91618881 C6.8701104,3.74562687 8.60060924,3.70670373 9.18205985,3.70670373 C9.77735303,3.70670373 11.0939167,3.94164254 11.9785463,5.41527836 L18.4160046,5.41527836 C18.4160046,2.56393806 15.730264,0.292328358 9.209745,0.292328358 C1.95549193,0.292328358 0.72476002,3.48426045 0.72476002,5.31656791 C0.72476002,8.69757836 3.33989153,9.68741493 9.00208556,10.293547 C9.48801146,10.3450022 12.4353981,10.2059634 12.4353981,11.6295493 C12.4353981,12.6861104 10.7741173,12.7556194 10.1802131,12.7556194 C9.56969359,12.7556194 8.43586646,12.6555246 7.49309394,10.9817045 L0.404963747,10.9817045 C0.404963747,14.3057172 2.63384733,16.2297769 10.1663705,16.2297769 C17.0883659,16.2297769 18.9282372,13.3895634 18.9282372,11.2277754 C18.9282372,9.13133284 17.5036847,6.9987306 11.5909125,6.23967463 C9.12806808,5.91853657 6.8701104,5.78368209 6.8701104,4.91618881" id="path3225"></path>
                                </g>
                            </g>
                        </g>
                    </g>
                </g>
            </g>
        </g>
    </g>
</svg>