<?xml version="1.0" encoding="UTF-8" standalone="no"?>
<svg width="185px" height="185px" viewBox="0 0 185 185" version="1.1" xmlns="http://www.w3.org/2000/svg" xmlns:xlink="http://www.w3.org/1999/xlink">
    <!-- Generator: Sketch 3.6.1 (26313) - http://www.bohemiancoding.com/sketch -->
    <title>tvs</title>
    <desc>Created with Sketch.</desc>
    <defs></defs>
    <g id="Page-1" stroke="none" stroke-width="1" fill="none" fill-rule="evenodd">
        <g id="28-getstarted-copy" transform="translate(-557.000000, -203.000000)">
            <g id="tvs" transform="translate(557.000000, 203.000000)">
                <path d="M92.5,5 C44.252,5 5,44.252 5,92.5 C5,140.748 44.252,180 92.5,180 C140.748,180 180,140.748 180,92.5 C180,44.252 140.748,5 92.5,5 M0,92.5 C0,41.495 41.495,0 92.5,0 C143.505,0 185,41.495 185,92.5 C185,143.505 143.505,185 92.5,185 C41.495,185 0,143.505 0,92.5 Z" id="Fill-1" fill="#BCC4CE"></path>
                <g id="TVS_Motor_logo" transform="translate(34.000000, 62.000000)" fill="#575D63">
                    <g id="Layer_2">
                        <path d="M7.54618429,55.1888198 L3.38520417,55.1888198 L1.76312717,60.7499879 L21.933302,60.7499879 L23.4848539,55.1888198 L18.6186229,55.1888198 L23.4848539,36.6734016 L26.799533,36.6734016 L26.5174326,39.7484004 L33.4994162,39.7484004 L36.3204197,30 L2.75047838,30 L-3.55271368e-15,39.7484004 L7.26408394,39.7484004 L8.74511076,36.6079761 L12.3418902,36.6079761 L7.54618429,55.1888198 Z" id="Shape"></path>
                        <path d="M59.779603,30 L75.3656472,30 L54.5607466,60.7499879 L41.5136056,60.7499879 L39.6799533,35.561168 L37,35.561168 L38.5515519,30 L55.8301982,30 L54.2786463,35.561168 L51.3165926,35.561168 L51.2460675,51.328715 L61.1901048,35.561168 L57.8754257,35.561168 L59.779603,30 Z" id="Shape"></path>
                        <path d="M100.383664,39.5254621 C100.383664,36.4504634 101.44154,33.7025921 102.781517,30.8892953 C96.9279344,29.9079127 90.5806766,29.5153597 84.7976194,30.8892953 C81.5534654,31.6744014 78.1682613,33.5717411 76.334609,36.2541868 C74.2188564,39.2637601 74.712532,43.123865 77.3219602,45.6754597 C78.6619369,46.9185443 80.2840139,47.7690759 81.976616,48.4887565 C83.3165926,49.077586 85.6439205,49.9935431 85.9965459,51.4329043 C86.9838971,55.0967326 80.6366393,55.4238601 78.1682613,54.7041796 L78.1682613,51.8254573 L71.5389031,51.8254573 L69,60.3961986 C74.9241073,61.7701342 81.1303149,62.2281128 87.1249473,60.9850281 C90.7217267,60.1999221 93.9658807,58.4988589 96.3637337,55.8164132 C98.3384361,53.5265204 99.4668375,49.2738626 97.3510849,46.7876933 C96.1521584,45.4137577 94.8121818,44.3669496 93.1901048,43.516418 C91.6385529,42.6658864 89.9459508,42.1424824 88.535449,41.1610998 C86.842847,39.9834407 86.842847,38.1515265 88.6764992,37.1047184 C90.0870009,36.2541868 92.4143288,36.6467399 93.9658807,36.9084419 L94.2479811,39.4600366 L100.383664,39.4600366 L100.383664,39.5254621 Z" id="Shape"></path>
                        <path d="M101.721927,3.559375 C99.7654485,2.809375 97.9093023,2.859375 95.9026578,3.359375 C93.9461794,3.859375 92.5415282,4.959375 90.9863787,6.159375 C89.4312292,7.359375 87.7757475,8.559375 85.9697674,9.359375 C84.1136213,10.159375 82.0066445,11.009375 80,10.209375 C81.4548173,10.259375 82.8093023,9.959375 84.0634551,9.159375 C85.0166113,8.559375 86.672093,7.309375 87.0232558,6.159375 L85.3677741,6.159375 C86.5717608,4.859375 88.0767442,3.859375 89.7322259,3.259375 L88.9295681,2.309375 C91.1368771,0.809375 93.5448505,0.109375 96.2036545,0.009375 C97.4578073,-0.040625 98.7119601,0.109375 99.8657807,0.459375 C101.119934,0.809375 102.07309,1.409375 102.97608,2.309375 L101.721927,3.559375 L101.721927,3.559375 Z" id="Shape"></path>
                        <path d="M69.9159468,9 C69.2136213,9 68.6116279,9.05 67.9093023,9.25 C67.2571429,9.45 66.6551495,9.7 66.00299,9.95 C64.7990033,10.45 63.6451827,11.1 62.4913621,11.7 C61.989701,11.95 61.3877076,12.25 60.8358804,12.35 C60.233887,12.45 59.4312292,12.45 58.879402,12.2 C58.2774086,11.9 57.7757475,11.6 57.2740864,11.15 C56.7724252,10.7 56.2707641,10.25 55.769103,9.9 C55.2172757,9.55 54.6654485,9.3 54.1136213,8.95 C54.3644518,8.95 55.6687708,8.9 55.317608,8.35 C55.0166113,7.9 54.3142857,7.7 53.7624585,7.6 C52.5083056,7.35 51.2541528,7.35 50,7.35 C51.0534884,6.45 52.207309,6 53.6119601,6 C54.9162791,6 55.9697674,6.6 57.0734219,7.25 C57.6252492,7.6 58.2774086,8.2 58.8292359,8.55 C59.3810631,8.9 59.9830565,9.1 60.5850498,9.3 C61.7388704,9.7 63.1936877,9.5 64.3475083,9.1 C65.3006645,8.75 66.1534884,8.35 67.2069767,8.35 C68.1601329,8.2 69.0631229,8.45 69.9159468,9 L69.9159468,9 Z" id="Shape"></path>
                        <path d="M60.3039867,19.05 C62.3607973,18.95 64.0664452,16.95 65.2202658,15.45 C66.4744186,13.85 67.3272425,11.45 69.2837209,10.55 C72.1933555,9.25 75.2534884,10.35 77.9122924,11.75 C80.420598,13 83.9322259,12.8 86.4405316,11.7 C89.1996678,10.5 91.3066445,8.45 93.6644518,6.7 C95.8717608,5.05 98.7312292,3.9 102.142525,4.8 L103.647508,3 L103.948505,5.95 L109.266113,11.3 L108.212625,12.55 L104.801329,12.55 L104.801329,11.7 C103.798007,11 102.744518,10.5 101.490365,10.65 C100.186047,10.8 98.7813953,11.4 98.9820598,12.95 C99.1325581,14 100.637542,14.95 101.390033,15.5 C102.443522,16.2 103.547176,16.85 104.650831,17.55 C106.908306,18.95 109.065449,20.5 111.172425,22.15 C113.128904,23.7 115.135548,25.3 116.640532,27.25 L112.025249,26.35 C112.878073,25.75 111.874751,25.1 111.322924,24.65 C110.620598,24.1 109.918272,23.65 109.115615,23.2 C107.560465,22.35 105.904983,21.9 104.199336,21.5 C100.938538,20.7 96.7245847,20.2 93.8651163,22.25 C93.7647841,22.3 93.6644518,22.4 93.5641196,22.45 L91.958804,21.1 C86.7916944,22.85 81.0225914,22.4 76.2568106,19.8 C74.3003322,21.15 72.0428571,21.45 69.7853821,21.7 C67.6282392,21.95 65.3707641,21.8 63.1634551,21.6 C57.8960133,25.95 50.7222591,28.5 44,26.2 L48.5149502,25.05 L48.5149502,26.05 C53.3810631,26.05 57.4445183,22.65 60.3039867,19.05 L60.3039867,19.05 Z" id="Shape"></path>
                    </g>
                </g>
            </g>
        </g>
    </g>
</svg>