<?xml version="1.0" encoding="UTF-8" standalone="no"?>
<svg width="185px" height="185px" viewBox="0 0 185 185" version="1.1" xmlns="http://www.w3.org/2000/svg" xmlns:xlink="http://www.w3.org/1999/xlink">
    <!-- Generator: Sketch 3.6.1 (26313) - http://www.bohemiancoding.com/sketch -->
    <title>vespa</title>
    <desc>Created with Sketch.</desc>
    <defs>
        <path id="path-1" d="M72.4507308,49.9552897 L144.901445,49.9552897 L144.901445,0 L72.4507308,0 L1.62543074e-05,0 L1.62543074e-05,49.9552897 L72.4507308,49.9552897 L72.4507308,49.9552897 Z"></path>
    </defs>
    <g id="Page-1" stroke="none" stroke-width="1" fill="none" fill-rule="evenodd">
        <g id="28-getstarted-copy" transform="translate(-77.000000, -733.000000)">
            <g id="vespa" transform="translate(77.000000, 733.000000)">
                <path d="M92.5,5 C44.252,5 5,44.252 5,92.5 C5,140.748 44.252,180 92.5,180 C140.748,180 180,140.748 180,92.5 C180,44.252 140.748,5 92.5,5 M0,92.5 C0,41.495 41.495,0 92.5,0 C143.505,0 185,41.495 185,92.5 C185,143.505 143.505,185 92.5,185 C41.495,185 0,143.505 0,92.5 Z" id="Fill-1" fill="#BCC4CE"></path>
                <g id="Page-1" transform="translate(20.000000, 68.000000)">
                    <mask id="mask-2" fill="white">
                        <use xlink:href="#path-1"></use>
                    </mask>
                    <g id="Clip-2"></g>
                    <path d="M126.629822,17.3232997 C127.228702,18.1274559 128.730811,18.5814861 128.730811,18.5814861 L125.615829,19.2725441 C126.439509,18.2986146 126.629822,17.3232997 126.629822,17.3232997 L126.629822,17.3232997 Z M88.2928034,25.5897985 C88.7104336,26.2447103 90.0289015,26.6316121 90.0289015,26.6316121 L87.9081506,27.1615869 L88.2928034,25.5897985 L88.2928034,25.5897985 Z M109.856519,17.3380353 C110.424687,20.8214106 112.702521,21.9586902 112.702521,21.9586902 L100.628376,24.4983627 C101.826892,23.6751889 101.995052,21.9953401 101.995052,21.9953401 C101.995052,21.9953401 109.836632,17.2123426 109.856519,17.3380353 L109.856519,17.3380353 Z M82.2197956,23.2109572 L81.1935933,28.4132242 L73.8118095,30.0506297 C74.6988016,28.8336272 74.3728034,28.0235516 74.3728034,28.0235516 L82.2196697,23.2109572 L82.2197956,23.2109572 Z M35.7670569,32.6633501 C37.6957331,36.2516373 42.4580768,36.4905542 42.4580768,36.4905542 L26.069049,39.8486146 L35.7670569,32.6633501 L35.7670569,32.6633501 Z M63.366523,25.7283375 C63.366523,25.7283375 63.3950951,25.9146096 63.4859718,25.9991184 C65.9825647,28.3206549 62.7706636,30.2801008 62.7706636,30.2801008 C61.3824648,30.7268262 61.5640924,31.3603275 61.5640924,31.3603275 L61.8236324,32.5316121 L53.2987148,34.2838791 L63.366523,25.7283375 L63.366523,25.7283375 Z M117.529184,12.5440806 C119.24187,12.1353904 120.084053,13.5596977 120.177699,13.6808564 C121.822039,15.838665 119.864288,17.4153652 119.856987,17.4185139 C117.826736,18.4246851 116.557482,16.6085642 116.512044,16.5353904 C114.865816,13.9149874 117.178893,12.661461 117.178893,12.661461 C117.300859,12.6170025 117.415021,12.5714106 117.529184,12.5440806 L117.529184,12.5440806 Z M91.6213841,17.1021411 C93.4389188,16.6678841 94.3241489,18.1735516 94.4229553,18.3040302 C96.168997,20.5921914 94.1035022,22.2760705 94.0958242,22.2808564 C91.9420959,23.3484887 90.5852383,21.4044081 90.5369049,21.3263224 C88.7896046,18.5460957 91.2520872,17.2236776 91.2520872,17.2236776 C91.3814796,17.1764484 91.5001732,17.1311083 91.6213841,17.1021411 L91.6213841,17.1021411 Z M44.9521523,27.2763224 C46.4749041,26.9327456 47.2044353,27.965869 47.2044353,27.965869 L43.1796784,31.6134761 C41.2069484,29.4643577 43.6637669,27.8411839 43.7751602,27.7753149 C44.2114188,27.5192695 44.6007287,27.3556675 44.9521523,27.2763224 L44.9521523,27.2763224 Z M9.05961762,0.000125944584 C9.05961762,0.000125944584 -0.964136719,5.41851385 0.0756592882,18.006801 C1.11381901,30.595466 14.323168,42.0046599 14.4224779,42.3528967 L14.462378,42.443073 L6.48700043,44.17267 C6.48700043,44.17267 5.81461328,47.9105793 3.64829818,49.9552897 L80.3726819,32.9353904 L79.8361063,36.3245592 L86.5004423,34.8462217 L87.2279596,31.3355164 L144.901458,18.6210327 L144.261167,15.5523929 L141.227999,16.165869 L138.093381,13.9080605 C138.093381,13.9080605 137.529743,16.1094458 135.296592,15.8564232 C132.885338,15.5835013 133.018632,13.9787154 133.19661,12.4575567 L134.034262,6.76196474 L126.357569,6.80012594 L126.132265,8.55453401 C123.0996,6.23060453 119.371137,6.64546599 119.371137,6.64546599 C111.565178,7.35528967 109.987799,13.6420655 109.987799,13.6420655 L102.367621,18.047733 C102.367621,18.047733 101.982465,10.7128463 93.6393008,11.6401763 C93.6393008,11.6401763 87.8773129,12.3926952 83.7662105,16.4265743 L83.3289449,18.3865239 L74.0950126,24.5375315 C74.0950126,24.5375315 73.9291185,19.5259446 68.141957,17.1574307 C67.5053164,16.8943325 53.001918,31.3735516 50.8509588,33.1619647 C50.8509588,33.1619647 48.2736845,35.1503778 45.4938885,33.6566751 L53.4002904,26.4326196 C53.4002904,26.4326196 49.5178902,18.0993703 41.0655985,21.7168766 C41.0655985,21.7168766 35.5666749,23.8784635 35.262326,29.22733 L20.4153077,40.3493703 C20.4153077,40.3493703 19.3748824,24.3895466 35.5464102,23.1789673 C35.5464102,23.1789673 32.0358242,19.7672544 30.1284197,15.4424433 C30.0590664,15.279471 30.1306853,15.1843829 30.1306853,15.1843829 C30.1306853,15.1843829 22.7183155,17.4707809 18.9337148,25.2589421 C18.8784588,25.3741814 16.4888537,29.8474811 16.0266662,37.6168766 L16.0140794,37.738539 C16.0140794,37.738539 2.63631901,23.1306045 15.0088971,9.4220403 C15.0854249,9.33853904 15.0216098,9.30037783 15.0216098,9.30037783 C15.0216098,9.30037783 10.2834327,5.18664987 9.05898828,0 L9.05961762,0.000125944584 Z" id="Fill-1" fill="#575D63" mask="url(#mask-2)"></path>
                </g>
            </g>
        </g>
    </g>
</svg>