<?xml version="1.0" encoding="UTF-8" standalone="no"?>
<svg width="185px" height="185px" viewBox="0 0 185 185" version="1.1" xmlns="http://www.w3.org/2000/svg" xmlns:xlink="http://www.w3.org/1999/xlink">
    <!-- Generator: Sketch 3.6.1 (26313) - http://www.bohemiancoding.com/sketch -->
    <title>yamaha</title>
    <desc>Created with Sketch.</desc>
    <defs></defs>
    <g id="Page-1" stroke="none" stroke-width="1" fill="none" fill-rule="evenodd">
        <g id="28-getstarted-copy" transform="translate(-322.000000, -733.000000)">
            <g id="yamaha" transform="translate(322.000000, 733.000000)">
                <path d="M92.5,5 C44.252,5 5,44.252 5,92.5 C5,140.748 44.252,180 92.5,180 C140.748,180 180,140.748 180,92.5 C180,44.252 140.748,5 92.5,5 M0,92.5 C0,41.495 41.495,0 92.5,0 C143.505,0 185,41.495 185,92.5 C185,143.505 143.505,185 92.5,185 C41.495,185 0,143.505 0,92.5 Z" id="Fill-1" fill="#BCC4CE"></path>
                <g id="YamahaCorp" transform="translate(22.000000, 77.000000)" fill="#575D63">
                    <g id="svg5398">
                        <path d="M15.9473468,-1.96498149e-07 C11.7719573,-1.96498152e-07 7.61893654,1.70984603 4.66657549,4.65384585 C1.71452295,7.59815354 0,11.7401535 0,15.9038458 C0,20.0675382 1.71452304,24.2095382 4.66657549,27.1538458 C7.61893623,30.0981535 11.7719573,31.8076923 15.9473468,31.8076923 C20.122736,31.8076923 24.2757571,30.0984612 27.2281182,27.1538458 C30.1801704,24.2098458 31.8946937,20.0675382 31.8946937,15.9038458 C31.8946937,11.7401538 30.1801707,7.59815354 27.2281182,4.65384585 C24.2757571,1.70984615 20.1227363,-1.96498149e-07 15.9473468,-1.96498149e-07 L15.9473468,-1.96498149e-07 Z M15.9473468,0.673076738 C19.9447119,0.673076738 23.9192462,2.31584603 26.7460339,5.13461508 C29.5728214,7.953384 31.2197757,11.9173843 31.2197757,15.9038458 C31.2194672,19.8903074 29.5725131,23.8543074 26.7460339,26.6730766 C23.9192459,29.4918455 19.9447123,31.1346154 15.9473468,31.1346154 C11.9499814,31.1346154 7.97483042,29.4918458 5.14865974,26.6730766 C2.32218031,23.8543071 0.674917943,19.8903074 0.674917943,15.9038458 C0.674917974,11.9173846 2.32218059,7.95338431 5.14865974,5.13461508 C7.97483011,2.31615348 11.9499814,0.673076738 15.9473468,0.673076738 L15.9473468,0.673076738 Z M15.9473468,2.39423058 C12.4010577,2.39423062 8.8809174,3.85484585 6.37315372,6.35576892 C3.86539035,8.856384 2.40077954,12.3672305 2.40077954,15.9038458 C2.40077948,19.4407686 3.86539004,22.9513074 6.37315372,25.4519228 C8.88091709,27.9528446 12.4013665,29.4134612 15.9473468,29.4134612 C19.4936351,29.4134615 23.0231094,27.9528458 25.5311816,25.4519228 C28.0386352,22.9513065 29.4939141,19.4407689 29.4939141,15.9038458 C29.4939147,12.3672308 28.0386368,8.85638431 25.5311816,6.35576892 C23.0231082,3.85484554 19.4936357,2.39423058 15.9473468,2.39423058 L15.9473468,2.39423058 Z M15.9473468,3.09615354 C15.995786,3.09615354 16.0428381,3.10630738 16.0823304,3.13461508 C16.1218231,3.16261508 16.1530618,3.20446123 16.1691056,3.24999969 L17.3068244,6.45192277 C17.3342836,6.53038431 17.3327412,6.62284585 17.3068244,6.70192277 C17.2809075,6.781 17.2306937,6.84684585 17.1621991,6.89423046 C16.9644283,7.02992308 16.8029114,7.22792277 16.7186816,7.45192277 C16.6347601,7.67623015 16.6205678,7.93176892 16.6801149,8.16346123 C16.7399698,8.39546154 16.873797,8.60361508 17.0561406,8.75961508 C17.3831856,9.03930738 17.6472916,9.38838431 17.8274754,9.77884585 C18.0076592,10.1693077 18.1070842,10.5993074 18.1070842,11.0288458 L18.1070842,12.1730766 L23.7474699,8.92307662 L24.4513129,10.1346151 L18.1070842,13.7788458 L18.1070842,14.6634612 L18.8687774,15.0961535 L25.213006,11.4519228 L25.9072073,12.6538458 L20.2668217,15.9038458 L21.2599152,16.4807689 C21.6329318,16.6955375 21.9558135,16.9857689 22.2048003,17.3365382 C22.4537866,17.6873071 22.6268747,18.0970766 22.7061679,18.5192305 C22.7502871,18.7546151 22.8720821,18.9669228 23.0436269,19.1346151 C23.2148617,19.3019994 23.4336909,19.4221535 23.6703364,19.4615382 C23.9072899,19.5009225 24.1572801,19.4678458 24.3741794,19.3653843 C24.4494608,19.3293843 24.5334601,19.3193074 24.6152216,19.3365382 C24.6966733,19.3537683 24.7727281,19.3981535 24.8273386,19.4615382 L27.0449261,22.0384612 C27.0763951,22.075076 27.0981482,22.1250766 27.1027763,22.1730766 C27.1074027,22.2210754 27.0982254,22.2658458 27.0738512,22.307692 C27.0494773,22.3498462 27.0116045,22.3835382 26.9677927,22.4038458 C26.9236711,22.4238449 26.8709902,22.4323074 26.8231674,22.4230766 L23.4775027,21.7980766 C23.3954321,21.7826911 23.3212303,21.7448458 23.2653857,21.682692 C23.2098486,21.6208446 23.1658063,21.534692 23.1593271,21.4519228 C23.1401983,21.2137686 23.0517259,20.982692 22.8990016,20.7980766 C22.7462777,20.61346 22.5323091,20.4777689 22.3012172,20.4134612 C22.0698152,20.3494597 21.8235295,20.3529997 21.5973742,20.432692 C21.1910353,20.5754609 20.7535339,20.6358458 20.3246718,20.5961535 C19.8958102,20.5564606 19.4735038,20.4163843 19.1001778,20.2019228 L18.1070842,19.6346151 L18.1070842,26.1346151 L16.7090399,26.1346151 L16.7090399,18.8269228 L15.9473468,18.3942305 L15.1856537,18.8269228 L15.1856537,26.1346151 L13.7876094,26.1346151 L13.7876094,19.6346151 L12.7945159,20.2019228 C12.4214977,20.416384 11.998884,20.5564612 11.5700219,20.5961535 C11.1408512,20.6358449 10.7033501,20.5754612 10.2973195,20.432692 C10.0708556,20.3529994 9.82456838,20.3494612 9.59347648,20.4134612 C9.36207604,20.4777695 9.14810777,20.6134612 8.99569201,20.7980766 C8.84327564,20.9826908 8.75418709,21.2134612 8.73536652,21.4519228 C8.72888669,21.5349991 8.69448578,21.6208458 8.63894967,21.682692 C8.58341326,21.7445369 8.49926094,21.7829997 8.41719092,21.7980766 L5.07152626,22.4230766 C5.02401204,22.4323065 4.97102133,22.4241535 4.92690098,22.4038458 C4.88308917,22.3838449 4.8449081,22.3498458 4.82084245,22.307692 C4.79677681,22.2655382 4.78759792,22.2210766 4.7919174,22.1730766 C4.7965454,22.1250751 4.81829705,22.0750766 4.84976751,22.0384612 L7.06735503,19.4615382 C7.12165669,19.3981532 7.19801915,19.3534612 7.2794721,19.3365382 C7.36123328,19.3189988 7.44523195,19.3293843 7.52051422,19.3653843 C7.73741295,19.4678455 7.98740317,19.5009228 8.22435722,19.4615382 C8.46100243,19.4218455 8.67952188,19.3023074 8.85106674,19.1346151 C9.02230275,18.9672298 9.14440536,18.7546151 9.18852571,18.5192305 C9.26751009,18.0967686 9.44059792,17.6873074 9.68989333,17.3365382 C9.93887989,16.9857683 10.2617609,16.6859228 10.6347784,16.4711535 L11.627872,15.9038458 L5.98748632,12.6538458 L6.68168764,11.4519228 L13.0259163,15.0961535 L13.7876094,14.6634612 L13.7876094,13.7788458 L7.44338074,10.1346151 L8.14722374,8.92307662 L13.7876094,12.1730766 L13.7876094,11.0288458 C13.7876091,10.599308 13.8870345,10.1693074 14.0672183,9.77884585 C14.2470935,9.38838462 14.5111986,9.03930738 14.8385531,8.75961508 C15.0205878,8.60361508 15.1547232,8.39546123 15.2145788,8.16346123 C15.274434,7.93176923 15.2599333,7.67623046 15.176012,7.45192277 C15.0920911,7.22761477 14.9302648,7.03023046 14.7324945,6.89423046 C14.6639997,6.84715354 14.6140946,6.78099969 14.5878693,6.70192277 C14.5622609,6.62284615 14.5697429,6.53038431 14.5975109,6.45192277 L15.7255881,3.24999969 C15.7416315,3.20446123 15.7728709,3.16261508 15.8123632,3.13461508 C15.8518553,3.10661508 15.898907,3.09615354 15.9473468,3.09615354 L15.9473468,3.09615354 Z M15.9473468,10.0769228 C15.7480333,10.0769231 15.5484125,10.1571535 15.4074125,10.2980766 C15.2664122,10.4389994 15.1856537,10.6377689 15.1856537,10.8365382 L15.1856537,12.9807689 L15.9473468,13.4134612 L16.7090399,12.9807689 L16.7090399,10.8365382 C16.709039,10.6377692 16.6282812,10.438692 16.4872812,10.2980766 C16.3462812,10.1574609 16.1466597,10.0769228 15.9473468,10.0769228 L15.9473468,10.0769228 Z M15.9473468,14.8942305 L15.0699535,15.4038458 L15.0699535,16.4134612 L15.9473468,16.9134612 L16.8247402,16.4134612 L16.8247402,15.4038458 L15.9473468,14.8942305 L15.9473468,14.8942305 Z M13.0259163,16.7115382 L11.1650711,17.7788458 C10.9922918,17.8782305 10.8598539,18.0480766 10.8083288,18.2403843 C10.7564938,18.432692 10.7854973,18.644692 10.8854623,18.8173074 C10.9848096,18.9896151 11.155738,19.1219997 11.3482631,19.1730766 C11.5410962,19.225076 11.7539852,19.1961535 11.9267642,19.0961535 L13.7876094,18.0288458 L13.7876094,17.1442305 L13.0259163,16.7115382 L13.0259163,16.7115382 Z M18.8687774,16.7115382 L18.1070842,17.1442305 L18.1070842,18.0288458 L19.9679294,19.0961535 C20.1407069,19.1961523 20.3535968,19.2250766 20.5464305,19.1730766 C20.7392627,19.1216917 20.9092664,18.9896151 21.0092314,18.8173074 C21.1091948,18.6449985 21.1381986,18.432692 21.0863649,18.2403843 C21.0348379,18.0477677 20.9024015,17.8782305 20.7296225,17.7788458 L18.8687774,16.7115382 L18.8687774,16.7115382 Z" id="path5411"></path>
                        <path d="M34.6136488,2.65384597 L39.7815919,18.9038458 L39.7815919,29.1538458 L44.949535,29.1538458 L44.949535,18.3749997 L50.3103118,2.65384597 L45.9522702,2.65384597 L42.4426969,12.9807689 L39.2609409,2.65384597 L34.6136488,2.65384597 L34.6136488,2.65384597 Z M53.6366931,2.65384597 L48.7772839,29.1538458 L53.0871171,29.1538458 L54.1187774,22.9903843 L59.4795542,22.9903843 L60.4726477,29.1538458 L65.2259984,29.1538458 L60.8390317,2.65384597 L53.6366931,2.65384597 L53.6366931,2.65384597 Z M67.4243025,2.65384597 L67.4243025,29.1538458 L71.5991521,29.1538458 L71.5991521,9.17307662 L75.1472921,26.5480766 L79.0425328,26.5480766 L82.1953638,8.89423046 L82.1953638,29.1538458 L87.083698,29.1538458 L87.083698,2.65384597 L79.5149754,2.65384597 L77.2781045,15.2596151 L74.6941329,2.65384597 L67.4243025,2.65384597 L67.4243025,2.65384597 Z M94.0642779,2.65384597 L89.2048687,29.1538458 L93.5147019,29.1538458 L94.5463621,22.9903843 L99.9071389,22.9903843 L100.909874,29.1538458 L105.653583,29.1538458 L101.266617,2.65384597 L94.0642779,2.65384597 L94.0642779,2.65384597 Z M107.861529,2.65384597 L107.861529,29.1538458 L112.508821,29.1538458 L112.508821,17.5192305 L117.609272,17.5192305 L117.609272,29.1538458 L122.362623,29.1538458 L122.362623,2.65384597 L117.609272,2.65384597 L117.609272,12.807692 L112.508821,12.807692 L112.508821,2.65384597 L107.861529,2.65384597 L107.861529,2.65384597 Z M129.352845,2.65384597 L124.493435,29.1538458 L128.803269,29.1538458 L129.834929,22.9903843 L135.186064,22.9903843 L136.188799,29.1538458 L140.932508,29.1538458 L136.545542,2.65384597 L129.352845,2.65384597 L129.352845,2.65384597 Z M56.8377325,6.72115354 L58.7564278,18.5673074 L54.8611871,18.5673074 L56.8377325,6.72115354 L56.8377325,6.72115354 Z M97.2653173,6.72115354 L99.1936543,18.5673074 L95.2887719,18.5673074 L97.2653173,6.72115354 L97.2653173,6.72115354 Z M132.553884,6.72115354 L134.472579,18.5673074 L130.567697,18.5673074 L132.553884,6.72115354 L132.553884,6.72115354 Z" id="polygon5425"></path>
                    </g>
                </g>
            </g>
        </g>
    </g>
</svg>